<?xml version="1.0" standalone="no"?><!DOCTYPE svg PUBLIC "-//W3C//DTD SVG 1.1//EN" "http://www.w3.org/Graphics/SVG/1.1/DTD/svg11.dtd" ><svg xmlns="http://www.w3.org/2000/svg"><metadata></metadata><defs><font id="未来圆SC:Version 1.00" horiz-adv-x="1129"><font-face font-family="未来圆SC" font-weight="400" font-stretch="normal" units-per-em="1024" panose-1="0 0 5 0 0 0 0 0 0 0" ascent="925" descent="-386" x-height="0" bbox="2 -264 1048 892" underline-thickness="51" underline-position="-248" unicode-range="U+0020-f8b6" /><missing-glyph horiz-adv-x="0"  /><glyph glyph-name="space" unicode=" " d="" /><glyph glyph-name="exclam" unicode="!" d="M132 730 q-23 0 -37 -14 q-14 -14 -13 -36 l8 -419 q1 -18 12.5 -29.5 q11.5 -11.5 30.5 -11.5 q19 0 30 11.5 q11 11.5 12 29.5 l6 419 q1 22 -12.5 36 q-13.5 14 -36.5 14 l0 0 ZM133 98 q-30 0 -51 -20.5 q-21 -20.5 -21 -49.5 q0 -30 21 -51 q21 -21 51 -21 q31 0 51.5 21 q20.5 21 20.5 51 q0 29 -20.5 49.5 q-20.5 20.5 -51.5 20.5 l0 0 Z" /><glyph glyph-name="quotedbl" unicode="&quot;" d="M119 443 q15 0 25.5 10 q10.5 10 11.5 25 l10 203 q2 22 -11 35.5 q-13 13.5 -35 13.5 q-24 0 -36.5 -13.5 q-12.5 -13.5 -11.5 -35.5 l10 -203 q1 -15 11 -25 q10 -10 26 -10 l0 0 ZM312 443 q16 0 26 10 q10 10 11 25 l10 202 q2 22 -11 36 q-13 14 -36 14 q-22 0 -35.5 -14 q-13.5 -14 -11.5 -36 l10 -202 q1 -15 11.5 -25 q10.5 -10 25.5 -10 l0 0 Z" /><glyph glyph-name="numbersign" unicode="#" d="M553 501 q0 16 -9.5 26 q-9.5 10 -26.5 10 l-39 0 l17 131 q2 18 -8 29 q-10 11 -27 11 q-18 0 -30.5 -11 q-12.5 -11 -14.5 -29 l-17 -131 l-178 0 l18 131 q2 18 -8 29 q-10 11 -27 11 q-18 0 -30.5 -11 q-12.5 -11 -14.5 -29 l-18 -131 l-47 0 q-16 0 -26 -10 q-10 -10 -10 -26 q0 -17 10 -26.5 q10 -9.5 26 -9.5 l37 0 l-32 -241 l-46 0 q-16 0 -26 -9.5 q-10 -9.5 -10 -25.5 q0 -16 10 -25.5 q10 -9.5 26 -9.5 l37 0 l-18 -146 q-2 -17 7 -28 q9 -11 27 -11 q18 0 30 11 q12 11 15 28 l19 146 l178 0 l-19 -145 q-2 -18 7.5 -29 q9.5 -11 26.5 -11 q18 0 31 11 q13 11 15 29 l19 145 l50 0 q16 0 25.5 9.5 q9.5 9.5 9.5 25.5 q0 16 -9.5 25.5 q-9.5 9.5 -25.5 9.5 l-41 0 l32 241 l49 0 q17 0 26.5 9.5 q9.5 9.5 9.5 26.5 l0 0 ZM356 224 l-178 0 l32 241 l178 0 l-32 -241 Z" /><glyph glyph-name="dollar" unicode="$" d="M538 174 q0 52 -17 88 q-17 36 -46.5 61.5 q-29.5 25.5 -68.5 42.5 q-39 17 -85 31 q-50 16 -81.5 29.5 q-31.5 13.5 -50 29 q-18.5 15.5 -25.5 34.5 q-7 19 -7 44 q0 54 39.5 81.5 q39.5 27.5 97.5 27.5 q39 0 72 -9.5 q33 -9.5 64 -32.5 q14 -10 30 -9.5 q16 0.5 28 14.5 q12 14 11.5 28.5 q-0.5 14.5 -15.5 25.5 q-30 24 -65.5 38.5 q-35.5 14.5 -81.5 19.5 l0 122 q0 17 -11.5 28.5 q-11.5 11.5 -28.5 11.5 q-17 0 -28.5 -11.5 q-11.5 -11.5 -11.5 -28.5 l0 -122 q-44 -4 -80 -20 q-36 -16 -62 -40.5 q-26 -24.5 -40.5 -57.5 q-14.5 -33 -14.5 -72 q0 -42 14 -73.5 q14 -31.5 41 -56 q27 -24.5 67.5 -44 q40.5 -19.5 95.5 -36.5 q48 -14 79 -28.5 q31 -14.5 50 -31 q19 -16.5 26.5 -37.5 q7.5 -21 7.5 -50 q0 -34 -12.5 -60 q-12.5 -26 -34.5 -43 q-22 -17 -52.5 -25.5 q-30.5 -8.5 -63.5 -8.5 q-50 0 -89 13.5 q-39 13.5 -72 37.5 q-15 11 -30.5 10 q-15.5 -1 -28.5 -14 q-12 -13 -11.5 -29 q0.5 -16 14.5 -27 q39 -30 88.5 -48 q49.5 -18 107.5 -21 l0 -117 q0 -17 11.5 -28.5 q11.5 -11.5 28.5 -11.5 q17 0 28.5 11.5 q11.5 11.5 11.5 28.5 l0 121 q96 14 148.5 72 q52.5 58 52.5 142 l0 0 Z" /><glyph glyph-name="percent" unicode="%" d="M655 721 l-469 -709 q-10 -14 -6.5 -29 q3.5 -15 18.5 -25 q14 -9 29 -5.5 q15 3.5 25 17.5 l469 709 q10 14 6.5 29 q-3.5 15 -17.5 25 q-15 9 -29.5 5.5 q-14.5 -3.5 -25.5 -17.5 l0 0 ZM227 719 q-38 0 -70 -13 q-32 -13 -55 -37 q-23 -24 -36.5 -57.5 q-13.5 -33.5 -13.5 -76.5 q0 -43 13.5 -77.5 q13.5 -34.5 36.5 -58.5 q23 -24 55 -37.5 q32 -13.5 70 -13.5 q39 0 71.5 13.5 q32.5 13.5 56 37.5 q23.5 24 36.5 58.5 q13 34.5 13 77.5 q0 43 -13 76.5 q-13 33.5 -36.5 57.5 q-23.5 24 -56 37 q-32.5 13 -71.5 13 l0 0 ZM227 656 q28 0 46 -10.5 q18 -10.5 28.5 -28 q10.5 -17.5 15 -39 q4.5 -21.5 4.5 -43.5 q0 -24 -4.5 -46 q-4.5 -22 -15 -39 q-10.5 -17 -28.5 -27 q-18 -10 -46 -10 q-27 0 -45 10 q-18 10 -29 27.5 q-11 17.5 -15 39.5 q-4 22 -4 45 q0 23 4 44.5 q4 21.5 15 39 q11 17.5 29 27.5 q18 10 45 10 l0 0 ZM677 327 q-38 0 -71 -13 q-33 -13 -56.5 -37 q-23.5 -24 -36.5 -58.5 q-13 -34.5 -13 -77.5 q0 -43 13 -77 q13 -34 37 -58 q24 -24 56.5 -37 q32.5 -13 70.5 -13 q39 0 71 13 q32 13 55 37 q23 24 36.5 58 q13.5 34 13.5 77 q0 43 -13.5 77.5 q-13.5 34.5 -36.5 58.5 q-23 24 -55 37 q-32 13 -71 13 l0 0 ZM677 262 q28 0 46 -10 q18 -10 29 -27 q11 -17 15 -39 q4 -22 4 -45 q0 -22 -4 -44 q-4 -22 -15 -39 q-11 -17 -29 -27.5 q-18 -10.5 -46 -10.5 q-27 0 -45 10.5 q-18 10.5 -28.5 27.5 q-10.5 17 -15 39 q-4.5 22 -4.5 44 q0 24 4.5 45.5 q4.5 21.5 15 38.5 q10.5 17 28.5 27 q18 10 45 10 l0 0 Z" /><glyph glyph-name="ampersand" unicode="&amp;" d="M334 743 q-47 0 -83.5 -13 q-36.5 -13 -61.5 -36 q-25 -23 -38 -54.5 q-13 -31.5 -13 -67.5 q0 -57 30 -99.5 q30 -42.5 80 -90.5 q-72 -44 -114 -96 q-42 -52 -42 -124 q0 -47 18 -85 q18 -38 50.5 -65 q32.5 -27 77.5 -41.5 q45 -14.5 98 -14.5 q81 0 140 27.5 q59 27.5 105 79.5 l81 -77 q14 -14 31.5 -14.5 q17.5 -0.5 32.5 11.5 q15 12 15.5 28 q0.5 16 -13.5 29 l-95 89 q22 37 43 81 q21 44 40 98 q7 20 -1 35 q-8 15 -29 21 q-20 5 -35 -4 q-15 -9 -20 -29 q-11 -42 -25 -79 q-14 -37 -31 -70 l-202 191 q33 19 62 40 q29 21 50.5 45.5 q21.5 24.5 33.5 54 q12 29.5 12 64.5 q0 35 -14 66 q-14 31 -40 53.5 q-26 22.5 -62.5 34.5 q-36.5 12 -80.5 12 l0 0 ZM335 674 q48 0 76.5 -26.5 q28.5 -26.5 28.5 -76.5 q0 -46 -31.5 -80 q-31.5 -34 -89.5 -67 q-44 42 -66.5 74 q-22.5 32 -22.5 75 q0 43 27 72 q27 29 78 29 l0 0 ZM301 331 l225 -215 q-38 -41 -81 -63.5 q-43 -22.5 -99 -22.5 q-71 0 -115 35.5 q-44 35.5 -44 99.5 q0 51 28 90.5 q28 39.5 86 75.5 l0 0 Z" /><glyph glyph-name="quotesingle" unicode="&#39;" d="M119 443 q15 0 25.5 10 q10.5 10 11.5 25 l10 203 q2 22 -11 35.5 q-13 13.5 -35 13.5 q-24 0 -36.5 -13.5 q-12.5 -13.5 -11.5 -35.5 l10 -203 q1 -15 11 -25 q10 -10 26 -10 l0 0 Z" /><glyph glyph-name="parenleft" unicode="(" d="M231 872 q-36 -53 -70 -105.5 q-34 -52.5 -59 -113 q-25 -60.5 -40 -132.5 q-15 -72 -15 -165 q0 -92 15 -164 q15 -72 40 -132.5 q25 -60.5 59 -113 q34 -52.5 70 -106.5 q10 -13 23 -15 q13 -2 28 6 q13 8 15 21.5 q2 13.5 -6 27.5 q-33 50 -60 100 q-27 50 -46 105.5 q-19 55.5 -30 121.5 q-11 66 -11 149 q0 83 11 149 q11 66 30 122 q19 56 46 105.5 q27 49.5 60 100.5 q8 14 6 27 q-2 13 -15 22 q-15 8 -28 6 q-13 -2 -23 -16 l0 0 Z" /><glyph glyph-name="parenright" unicode=")" d="M77 882 q-14 -9 -16.5 -22 q-2.5 -13 6.5 -27 q33 -51 60 -100.5 q27 -49.5 46.5 -105.5 q19.5 -56 29.5 -122 q10 -66 10 -149 q0 -83 -10 -149 q-10 -66 -29.5 -121.5 q-19.5 -55.5 -46.5 -105.5 q-27 -50 -60 -100 q-9 -14 -6.5 -27.5 q2.5 -13.5 16.5 -21.5 q13 -8 27 -6 q14 2 23 15 q37 54 70 106.5 q33 52.5 58.5 113 q25.5 60.5 40 132.5 q14.5 72 14.5 164 q0 93 -14.5 165 q-14.5 72 -40 132.5 q-25.5 60.5 -58.5 113 q-33 52.5 -70 105.5 q-9 14 -23 16 q-14 2 -27 -6 l0 0 Z" /><glyph glyph-name="asterisk" unicode="*" d="M444 637 q-6 19 -21 26 q-15 7 -34 -1 l-116 -51 l11 129 q2 21 -9.5 33 q-11.5 12 -31.5 12 q-21 0 -32.5 -12 q-11.5 -12 -9.5 -33 l10 -130 l-118 50 q-17 9 -32 2 q-15 -7 -21 -25 q-7 -20 1 -33.5 q8 -13.5 28 -18.5 l125 -29 l-83 -96 q-14 -16 -12.5 -32 q1.5 -16 19.5 -29 q16 -12 32 -8.5 q16 3.5 27 21.5 l66 109 l64 -109 q11 -18 27 -21 q16 -3 34 9 q16 12 17.5 28.5 q1.5 16.5 -11.5 32.5 l-83 95 l125 29 q19 5 27 18.5 q8 13.5 1 33.5 l0 0 Z" /><glyph glyph-name="plus" unicode="+" d="M275 540 q-19 0 -31 -12 q-12 -12 -12 -30 l0 -124 l-122 0 q-18 0 -28.5 -10.5 q-10.5 -10.5 -10.5 -27.5 q0 -18 10.5 -28.5 q10.5 -10.5 28.5 -10.5 l122 0 l0 -123 q0 -19 12 -31 q12 -12 31 -12 q19 0 30.5 12 q11.5 12 11.5 31 l0 123 l125 0 q18 0 28 10.5 q10 10.5 10 28.5 q0 17 -10 27.5 q-10 10.5 -28 10.5 l-125 0 l0 124 q0 18 -11.5 30 q-11.5 12 -30.5 12 l0 0 Z" /><glyph glyph-name="comma" unicode="," d="M127 98 q-30 0 -50.5 -20.5 q-20.5 -20.5 -20.5 -49.5 q0 -19 8.5 -34.5 q8.5 -15.5 21.5 -25.5 l-36 -146 q-4 -15 3 -24 q7 -9 23 -9 q14 0 27 8 q13 8 19 23 l58 134 q10 22 14.5 39 q4.5 17 4.5 35 q0 29 -20 49.5 q-20 20.5 -52 20.5 l0 0 Z" /><glyph glyph-name="hyphen" unicode="-­&#x2011;" d="M109 275 l228 0 q17 0 28.5 11.5 q11.5 11.5 11.5 28.5 q0 18 -11.5 29 q-11.5 11 -28.5 11 l-228 0 q-18 0 -29 -11 q-11 -11 -11 -29 q0 -17 11 -28.5 q11 -11.5 29 -11.5 l0 0 Z" /><glyph glyph-name="period" unicode="." d="M127 98 q-30 0 -50.5 -20.5 q-20.5 -20.5 -20.5 -49.5 q0 -30 20.5 -51 q20.5 -21 50.5 -21 q32 0 52 21 q20 21 20 51 q0 29 -20 49.5 q-20 20.5 -52 20.5 l0 0 Z" /><glyph glyph-name="slash" unicode="/" d="M366 820 l-236 -905 q-5 -17 3.5 -31 q8.5 -14 26.5 -19 q17 -4 31 4.5 q14 8.5 19 26.5 l235 906 q6 18 -3 31.5 q-9 13.5 -26 17.5 q-18 4 -31.5 -4 q-13.5 -8 -18.5 -27 l0 0 Z" /><glyph glyph-name="zero" unicode="0" d="M307 719 q-123 0 -182.5 -97 q-59.5 -97 -59.5 -283 q0 -186 59.5 -284.5 q59.5 -98.5 182.5 -98.5 q123 0 183.5 98.5 q60.5 98.5 60.5 283.5 q0 185 -60.5 283 q-60.5 98 -183.5 98 l0 0 ZM307 645 q36 0 63.5 -17 q27.5 -17 46 -53.5 q18.5 -36.5 28.5 -95 q10 -58.5 10 -141.5 q0 -164 -38 -236 q-38 -72 -110 -72 q-71 0 -108.5 72 q-37.5 72 -37.5 237 q0 165 37.5 235.5 q37.5 70.5 108.5 70.5 l0 0 Z" /><glyph glyph-name="one" unicode="1" d="M308 708 l-24 0 q-9 0 -16.5 -2.5 q-7.5 -2.5 -13.5 -6.5 l-180 -111 q-15 -9 -18.5 -24 q-3.5 -15 5.5 -29 q10 -16 24.5 -19.5 q14.5 -3.5 30.5 5.5 l141 87 l0 -593 q0 -20 13 -33 q13 -13 33 -13 q21 0 33.5 13 q12.5 13 12.5 33 l0 652 q0 18 -11 29.5 q-11 11.5 -30 11.5 l0 0 Z" /><glyph glyph-name="two" unicode="2" d="M251 719 q-58 0 -106.5 -20 q-48.5 -20 -89.5 -61 q-12 -12 -10.5 -26.5 q1.5 -14.5 15.5 -25.5 q15 -12 30 -10 q15 2 28 14 q29 26 59.5 39.5 q30.5 13.5 69.5 13.5 q55 0 90 -34 q35 -34 35 -95 q0 -45 -14 -84.5 q-14 -39.5 -49 -89 q-35 -49.5 -95 -116 q-60 -66.5 -155 -165.5 q-7 -8 -11 -18 q-4 -10 -4 -21 l0 -14 q0 -17 9.5 -27 q9.5 -10 27.5 -10 l354 0 q18 0 30.5 11 q12.5 11 15.5 29 q2 18 -7.5 28.5 q-9.5 10.5 -27.5 10.5 l-295 0 q87 88 147 153 q60 65 98 118 q38 53 55.5 100.5 q17.5 47.5 17.5 99.5 q0 43 -15.5 79.5 q-15.5 36.5 -43.5 63 q-28 26.5 -68.5 42 q-40.5 15.5 -90.5 15.5 l0 0 Z" /><glyph glyph-name="three" unicode="3" d="M248 719 q-51 0 -95.5 -15.5 q-44.5 -15.5 -85.5 -47.5 q-14 -10 -14.5 -24.5 q-0.5 -14.5 10.5 -26.5 q12 -12 25 -13 q13 -1 28 9 q29 23 60 33 q31 10 67 10 q58 0 92.5 -31 q34.5 -31 34.5 -87 q0 -33 -11.5 -58.5 q-11.5 -25.5 -30 -42 q-18.5 -16.5 -43.5 -25 q-25 -8.5 -53 -8.5 l-18 0 q-9 0 -14.5 -5 q-5.5 -5 -8.5 -13 l-4 -28 q-2 -12 5 -19.5 q7 -7.5 19 -7.5 l27 0 q34 0 62 -6.5 q28 -6.5 47.5 -23 q19.5 -16.5 30 -42.5 q10.5 -26 10.5 -66 q0 -67 -40.5 -107.5 q-40.5 -40.5 -113.5 -40.5 q-36 0 -68.5 11 q-32.5 11 -64.5 37 q-13 11 -28 11 q-15 0 -28 -11 q-12 -12 -13 -27.5 q-1 -15.5 12 -26.5 q39 -36 88 -53.5 q49 -17.5 106 -17.5 q57 0 102.5 17 q45.5 17 78 47 q32.5 30 49.5 71.5 q17 41.5 17 89.5 q0 43 -12.5 75.5 q-12.5 32.5 -35 55 q-22.5 22.5 -53.5 34.5 q-31 12 -66 15 q63 15 104.5 57.5 q41.5 42.5 41.5 113.5 q0 38 -14.5 72 q-14.5 34 -42 59.5 q-27.5 25.5 -67.5 40.5 q-40 15 -92 15 l0 0 Z" /><glyph glyph-name="four" unicode="4" d="M512 229 l-58 0 l0 162 q0 18 -11.5 29 q-11.5 11 -28.5 11 q-19 0 -30.5 -11 q-11.5 -11 -12.5 -29 l-7 -162 l-221 0 l186 419 q8 18 2 32.5 q-6 14.5 -24 22.5 q-17 8 -32.5 1.5 q-15.5 -6.5 -23.5 -23.5 l-201 -449 q-2 -5 -3.5 -11.5 q-1.5 -6.5 -1.5 -11.5 l0 -22 q0 -15 9 -24 q9 -9 25 -9 l283 0 l0 -139 q0 -20 13 -33 q13 -13 34 -13 q20 0 32.5 13 q12.5 13 12.5 33 l0 139 l58 0 q17 0 27.5 10 q10.5 10 10.5 27 q0 18 -10.5 28 q-10.5 10 -27.5 10 l0 0 Z" /><glyph glyph-name="five" unicode="5" d="M437 708 l-300 0 q-25 0 -40.5 -15.5 q-15.5 -15.5 -15.5 -41.5 l0 -275 q0 -18 9.5 -27.5 q9.5 -9.5 27.5 -9.5 l22 0 q6 0 13.5 1.5 q7.5 1.5 12.5 4.5 q23 11 45.5 16.5 q22.5 5.5 50.5 5.5 q30 0 55.5 -8.5 q25.5 -8.5 44.5 -27.5 q19 -19 29.5 -49 q10.5 -30 10.5 -74 q0 -84 -42 -129.5 q-42 -45.5 -113 -45.5 q-40 0 -72 10.5 q-32 10.5 -60 34.5 q-15 11 -29.5 10.5 q-14.5 -0.5 -27.5 -11.5 q-12 -12 -12.5 -27.5 q-0.5 -15.5 13.5 -26.5 q38 -31 83.5 -49 q45.5 -18 104.5 -18 q57 0 103.5 18.5 q46.5 18.5 79.5 51 q33 32.5 51 79 q18 46.5 18 101.5 q0 55 -15 98 q-15 43 -42.5 73.5 q-27.5 30.5 -66 46 q-38.5 15.5 -85.5 15.5 q-32 0 -61.5 -7.5 q-29.5 -7.5 -59.5 -21.5 l0 225 l255 0 q17 0 29 9.5 q12 9.5 15 27.5 q2 16 -5.5 26 q-7.5 10 -25.5 10 l0 0 Z" /><glyph glyph-name="six" unicode="6" d="M337 454 q-54 0 -98.5 -23.5 q-44.5 -23.5 -81.5 -76.5 q2 66 14.5 119 q12.5 53 35.5 91.5 q23 38.5 56.5 59.5 q33.5 21 74.5 21 q23 0 43 -4 q20 -4 40 -12 q14 -5 28 -2 q14 3 22 17 q8 14 4.5 27.5 q-3.5 13.5 -17.5 20.5 q-26 14 -55 20.5 q-29 6.5 -63 6.5 q-65 0 -116 -28.5 q-51 -28.5 -86.5 -82 q-35.5 -53.5 -54 -128 q-18.5 -74.5 -18.5 -167.5 q0 -77 12.5 -143 q12.5 -66 41.5 -113.5 q29 -47.5 76 -74 q47 -26.5 113 -26.5 q49 0 91 18.5 q42 18.5 73.5 52.5 q31.5 34 49.5 83 q18 49 18 109 q0 60 -16.5 104 q-16.5 44 -44 73 q-27.5 29 -64.5 43.5 q-37 14.5 -78 14.5 l0 0 ZM308 30 q-77 0 -111.5 61 q-34.5 61 -38.5 183 q29 49 70 77.5 q41 28.5 94 28.5 q26 0 49 -9 q23 -9 39.5 -27.5 q16.5 -18.5 25.5 -50 q9 -31.5 9 -76.5 q0 -84 -34 -135.5 q-34 -51.5 -103 -51.5 l0 0 Z" /><glyph glyph-name="seven" unicode="7" d="M420 708 l-353 0 q-18 0 -28 -10.5 q-10 -10.5 -10 -27.5 q0 -18 10 -28 q10 -10 28 -10 l293 0 l-254 -603 q-8 -20 -0.5 -34.5 q7.5 -14.5 26.5 -22.5 q20 -6 36 2 q16 8 25 27 l258 627 q2 5 3 10.5 q1 5.5 1 10.5 l0 24 q0 15 -10 25 q-10 10 -25 10 l0 0 Z" /><glyph glyph-name="eight" unicode="8" d="M397 366 q65 32 96 71 q31 39 31 97 q0 47 -19 81.5 q-19 34.5 -50 57.5 q-31 23 -71 34.5 q-40 11.5 -81 11.5 q-41 0 -81 -12 q-40 -12 -70.5 -36 q-30.5 -24 -49.5 -58.5 q-19 -34.5 -19 -81.5 q0 -58 28.5 -100.5 q28.5 -42.5 90.5 -72.5 q-71 -29 -110.5 -75 q-39.5 -46 -39.5 -119 q0 -46 18 -84 q18 -38 50.5 -65.5 q32.5 -27.5 78.5 -43 q46 -15.5 102 -15.5 q56 0 103 15.5 q47 15.5 80 43 q33 27.5 51.5 66.5 q18.5 39 18.5 85 q0 71 -40 119 q-40 48 -117 81 l0 0 ZM303 649 q62 0 95.5 -31.5 q33.5 -31.5 33.5 -87.5 q0 -49 -23.5 -81 q-23.5 -32 -75.5 -62 l-23 8 q-32 12 -57.5 23.5 q-25.5 11.5 -42.5 27 q-17 15.5 -26 36 q-9 20.5 -9 48.5 q0 58 35 88.5 q35 30.5 93 30.5 l0 0 ZM302 31 q-71 0 -111.5 34.5 q-40.5 34.5 -40.5 98.5 q0 62 27.5 102.5 q27.5 40.5 87.5 67.5 l30 -9 q45 -16 75.5 -31 q30.5 -15 49.5 -33.5 q19 -18.5 28 -41.5 q9 -23 9 -54 q0 -62 -41.5 -98 q-41.5 -36 -113.5 -36 l0 0 Z" /><glyph glyph-name="nine" unicode="9" d="M286 719 q-48 0 -90.5 -16.5 q-42.5 -16.5 -74.5 -47.5 q-32 -31 -50.5 -76 q-18.5 -45 -18.5 -103 q0 -55 15.5 -98.5 q15.5 -43.5 43 -74.5 q27.5 -31 64.5 -47 q37 -16 80 -16 q57 0 100 26 q43 26 70 65 q-3 -61 -23 -108.5 q-20 -47.5 -56 -84.5 q-36 -37 -86.5 -64.5 q-50.5 -27.5 -114.5 -47.5 q-15 -6 -21.5 -18 q-6.5 -12 -1.5 -27 q5 -16 18 -23 q13 -7 28 -2 q91 29 157 66 q66 37 110 91.5 q44 54.5 65 131 q21 76.5 21 184.5 q0 67 -14.5 120 q-14.5 53 -44 91 q-29.5 38 -73.5 58.5 q-44 20.5 -103 20.5 l0 0 ZM274 313 q-57 0 -92.5 39.5 q-35.5 39.5 -35.5 120.5 q0 83 37 127.5 q37 44.5 105 44.5 q72 0 106 -54.5 q34 -54.5 32 -180.5 q-29 -45 -65.5 -71 q-36.5 -26 -86.5 -26 l0 0 Z" /><glyph glyph-name="colon" unicode=":" d="M127 600 q-30 0 -50.5 -20.5 q-20.5 -20.5 -20.5 -50.5 q0 -29 20.5 -49.5 q20.5 -20.5 50.5 -20.5 q32 0 52 20.5 q20 20.5 20 49.5 q0 30 -20 50.5 q-20 20.5 -52 20.5 l0 0 ZM127 187 q-30 0 -50.5 -20.5 q-20.5 -20.5 -20.5 -49.5 q0 -30 20.5 -51 q20.5 -21 50.5 -21 q32 0 52 21 q20 21 20 51 q0 29 -20 49.5 q-20 20.5 -52 20.5 l0 0 Z" /><glyph glyph-name="semicolon" unicode=";" d="M127 511 q-30 0 -50.5 -20.5 q-20.5 -20.5 -20.5 -50.5 q0 -29 20.5 -49.5 q20.5 -20.5 50.5 -20.5 q32 0 52 20.5 q20 20.5 20 49.5 q0 30 -20 50.5 q-20 20.5 -52 20.5 l0 0 ZM127 98 q-30 0 -50.5 -20.5 q-20.5 -20.5 -20.5 -49.5 q0 -19 8.5 -34.5 q8.5 -15.5 21.5 -25.5 l-36 -146 q-4 -15 3 -24 q7 -9 23 -9 q14 0 27 8 q13 8 19 23 l58 134 q10 22 14.5 39 q4.5 17 4.5 35 q0 29 -20 49.5 q-20 20.5 -52 20.5 l0 0 Z" /><glyph glyph-name="less" unicode="&lt;" d="M422 555 l-331 -156 q-14 -7 -23.5 -20.5 q-9.5 -13.5 -9.5 -30.5 l0 -21 q0 -17 9.5 -30.5 q9.5 -13.5 23.5 -21.5 l332 -155 q16 -8 31 -2.5 q15 5.5 23 22.5 q7 17 1.5 31.5 q-5.5 14.5 -22.5 22.5 l-322 144 l321 140 q17 8 23 23.5 q6 15.5 -1 33.5 q-8 17 -23 22.5 q-15 5.5 -32 -2.5 l0 0 Z" /><glyph glyph-name="equal" unicode="=" d="M111 400 l331 0 q18 0 28.5 11 q10.5 11 10.5 29 q0 18 -10.5 28.5 q-10.5 10.5 -28.5 10.5 l-331 0 q-19 0 -29.5 -10.5 q-10.5 -10.5 -10.5 -28.5 q0 -18 10.5 -29 q10.5 -11 29.5 -11 l0 0 ZM111 191 l331 0 q18 0 28.5 11 q10.5 11 10.5 29 q0 18 -10.5 28.5 q-10.5 10.5 -28.5 10.5 l-331 0 q-19 0 -29.5 -10.5 q-10.5 -10.5 -10.5 -28.5 q0 -18 10.5 -29 q10.5 -11 29.5 -11 l0 0 Z" /><glyph glyph-name="greater" unicode="&gt;" d="M76 535 q-8 -18 -2 -33.5 q6 -15.5 23 -23.5 l321 -140 l-322 -144 q-17 -8 -22.5 -22.5 q-5.5 -14.5 2.5 -31.5 q8 -17 23 -22.5 q15 -5.5 31 2.5 l331 155 q14 8 23.5 21.5 q9.5 13.5 9.5 30.5 l0 21 q0 17 -9 30.5 q-9 13.5 -23 20.5 l-330 156 q-17 8 -32.5 2.5 q-15.5 -5.5 -23.5 -22.5 l0 0 Z" /><glyph glyph-name="question" unicode="?" d="M262 743 q-58 0 -107.5 -20 q-49.5 -20 -91.5 -59 q-12 -13 -10.5 -27 q1.5 -14 16.5 -26 q14 -11 29.5 -9.5 q15.5 1.5 28.5 12.5 q30 27 62 39.5 q32 12.5 68 12.5 q53 0 84 -26 q31 -26 31 -73 q0 -30 -14.5 -50.5 q-14.5 -20.5 -36.5 -37.5 q-22 -17 -47 -33 q-25 -16 -47 -38 q-22 -22 -36.5 -53 q-14.5 -31 -14.5 -77 l0 -29 q0 -13 7.5 -21 q7.5 -8 21.5 -8 l37 0 q11 0 18 7 q7 7 7 20 l0 25 q0 38 15 62.5 q15 24.5 37.5 43.5 q22.5 19 48.5 35.5 q26 16.5 48.5 37.5 q22.5 21 37.5 49.5 q15 28.5 15 72.5 q0 33 -13.5 64 q-13.5 31 -39.5 54.5 q-26 23.5 -64.5 37.5 q-38.5 14 -89.5 14 l0 0 ZM224 98 q-29 0 -49.5 -20.5 q-20.5 -20.5 -20.5 -49.5 q0 -30 20.5 -51 q20.5 -21 49.5 -21 q32 0 52 21 q20 21 20 51 q0 29 -20 49.5 q-20 20.5 -52 20.5 l0 0 Z" /><glyph glyph-name="at" unicode="@" d="M582 743 q-112 0 -204.5 -38.5 q-92.5 -38.5 -158 -107.5 q-65.5 -69 -102 -162 q-36.5 -93 -36.5 -201 q0 -114 37 -206.5 q37 -92.5 103 -157.5 q66 -65 157.5 -99.5 q91.5 -34.5 202.5 -34.5 q62 0 109 8 q47 8 92 22 q17 5 23 18 q6 13 1 30 q-6 16 -19.5 22.5 q-13.5 6.5 -29.5 1.5 q-39 -11 -82 -17.5 q-43 -6.5 -93 -6.5 q-97 0 -172.5 30.5 q-75.5 30.5 -128 86.5 q-52.5 56 -79.5 133 q-27 77 -27 170 q0 93 28 172 q28 79 81 136.5 q53 57.5 128 90.5 q75 33 170 33 q91 0 160.5 -26.5 q69.5 -26.5 116 -73.5 q46.5 -47 70.5 -113.5 q24 -66.5 24 -146.5 q0 -135 -32.5 -194.5 q-32.5 -59.5 -89.5 -59.5 q-36 0 -57.5 28.5 q-21.5 28.5 -21.5 100.5 l0 253 q0 16 -8.5 29 q-8.5 13 -22.5 19 q-36 16 -70 22.5 q-34 6.5 -69 6.5 q-52 0 -96 -18 q-44 -18 -75.5 -54 q-31.5 -36 -49.5 -89.5 q-18 -53.5 -18 -125.5 q0 -55 13.5 -99.5 q13.5 -44.5 38 -76 q24.5 -31.5 59.5 -48.5 q35 -17 80 -17 q32 0 57 9.5 q25 9.5 44.5 25 q19.5 15.5 33.5 36 q14 20.5 24 41.5 q4 -19 14 -39.5 q10 -20.5 27 -37.5 q17 -17 41.5 -27 q24.5 -10 57.5 -10 q53 0 93 24.5 q40 24.5 67 68.5 q27 44 41 104.5 q14 60.5 14 130.5 q0 86 -30 165 q-30 79 -89 139 q-59 60 -146 95 q-87 35 -201 35 l0 0 ZM544 51 q-54 0 -82.5 43.5 q-28.5 43.5 -28.5 129.5 q0 109 38.5 164 q38.5 55 112.5 55 q26 0 46 -4.5 q20 -4.5 38 -12.5 l0 -275 q-5 -14 -14.5 -31.5 q-9.5 -17.5 -24.5 -32.5 q-15 -15 -36 -25.5 q-21 -10.5 -49 -10.5 l0 0 Z" /><glyph glyph-name="A" unicode="A" d="M563 -31 l9 0 q23 0 32.5 13.5 q9.5 13.5 2.5 34.5 l-218 674 q-5 18 -20 28.5 q-15 10.5 -33 10.5 l-40 0 q-18 0 -33 -10.5 q-15 -10.5 -20 -28.5 l-218 -676 q-8 -20 1.5 -33 q9.5 -13 31.5 -13 l7 0 q19 0 34 11.5 q15 11.5 20 28.5 l47 155 l296 0 l47 -155 q5 -17 20 -28.5 q15 -11.5 34 -11.5 l0 0 ZM190 243 l124 407 l124 -407 l-248 0 Z" /><glyph glyph-name="B" unicode="B" d="M442 372 q28 6 53.5 19 q25.5 13 45 34 q19.5 21 31.5 49.5 q12 28.5 12 64.5 q0 99 -77.5 145 q-77.5 46 -215.5 46 l-121 0 q-26 0 -41 -15.5 q-15 -15.5 -15 -40.5 l0 -648 q0 -26 15 -41.5 q15 -15.5 41 -15.5 l153 0 q65 0 119.5 11.5 q54.5 11.5 93.5 37 q39 25.5 60.5 67 q21.5 41.5 21.5 100.5 q0 48 -14.5 81.5 q-14.5 33.5 -39 55 q-24.5 21.5 -56.5 33.5 q-32 12 -66 17 l0 0 ZM301 654 q43 0 77.5 -5.5 q34.5 -5.5 58.5 -19.5 q24 -14 36 -37.5 q12 -23.5 12 -59.5 q0 -62 -43.5 -94 q-43.5 -32 -108.5 -32 l-124 0 l0 248 l92 0 ZM323 47 l-114 0 l0 284 l134 0 q36 0 67 -8 q31 -8 54.5 -24.5 q23.5 -16.5 37.5 -45 q14 -28.5 14 -68.5 q0 -42 -14.5 -68.5 q-14.5 -26.5 -39.5 -42 q-25 -15.5 -60.5 -21.5 q-35.5 -6 -78.5 -6 l0 0 Z" /><glyph glyph-name="C" unicode="C" d="M378 743 q-65 0 -121.5 -25 q-56.5 -25 -99.5 -74.5 q-43 -49.5 -67.5 -123 q-24.5 -73.5 -24.5 -170.5 q0 -96 23.5 -169 q23.5 -73 65.5 -123.5 q42 -50.5 99 -76 q57 -25.5 126 -25.5 q61 0 107 17.5 q46 17.5 79 40.5 q15 12 16 27 q1 15 -11 30 q-11 14 -26 16 q-15 2 -29 -8 q-27 -18 -58 -29.5 q-31 -11.5 -74 -11.5 q-46 0 -85.5 17.5 q-39.5 17.5 -68.5 55 q-29 37.5 -46 96.5 q-17 59 -17 143 q0 87 17.5 147 q17.5 60 47 97 q29.5 37 69 53.5 q39.5 16.5 84.5 16.5 q33 0 61 -8 q28 -8 56 -25 q15 -10 31 -8 q16 2 27 16 q11 14 9.5 29 q-1.5 15 -16.5 25 q-36 25 -76 37.5 q-40 12.5 -98 12.5 l0 0 Z" /><glyph glyph-name="D" unicode="D" d="M271 730 l-101 0 q-26 0 -41 -15.5 q-15 -15.5 -15 -40.5 l0 -648 q0 -26 15 -41.5 q15 -15.5 41 -15.5 l121 0 q61 0 124 16.5 q63 16.5 114.5 59.5 q51.5 43 84 118 q32.5 75 32.5 191 q0 119 -31.5 192.5 q-31.5 73.5 -84.5 114 q-53 40.5 -120.5 55 q-67.5 14.5 -138.5 14.5 l0 0 ZM291 652 q46 0 91.5 -9.5 q45.5 -9.5 81 -41 q35.5 -31.5 57.5 -90 q22 -58.5 22 -157.5 q0 -96 -21 -156 q-21 -60 -55.5 -93.5 q-34.5 -33.5 -78.5 -46 q-44 -12.5 -89 -12.5 l-90 0 l0 606 l82 0 Z" /><glyph glyph-name="E" unicode="E" d="M481 730 l-311 0 q-26 0 -41 -15.5 q-15 -15.5 -15 -40.5 l0 -648 q0 -26 15 -41.5 q15 -15.5 41 -15.5 l318 0 q18 0 28.5 11 q10.5 11 10.5 28 q0 18 -10.5 28.5 q-10.5 10.5 -28.5 10.5 l-279 0 l0 271 l221 0 q17 0 28 11 q11 11 11 28 q0 18 -11 28.5 q-11 10.5 -28 10.5 l-221 0 l0 256 l261 0 q17 0 29.5 11 q12.5 11 15.5 28 q2 18 -7 28.5 q-9 10.5 -27 10.5 l0 0 Z" /><glyph glyph-name="F" unicode="F" d="M162 -31 q20 0 33.5 13.5 q13.5 13.5 13.5 34.5 l0 292 l214 0 q17 0 27.5 10.5 q10.5 10.5 10.5 27.5 q0 18 -10.5 28 q-10.5 10 -27.5 10 l-214 0 l0 267 l253 0 q17 0 29.5 11 q12.5 11 15.5 28 q2 18 -7.5 28.5 q-9.5 10.5 -26.5 10.5 l-303 0 q-26 0 -41 -15.5 q-15 -15.5 -15 -40.5 l0 -657 q0 -21 13 -34.5 q13 -13.5 35 -13.5 l0 0 Z" /><glyph glyph-name="G" unicode="G" d="M390 743 q-64 0 -123 -25 q-59 -25 -104 -74.5 q-45 -49.5 -71.5 -123 q-26.5 -73.5 -26.5 -169.5 q0 -98 22 -172.5 q22 -74.5 63 -124 q41 -49.5 100 -74 q59 -24.5 132 -24.5 q61 0 113.5 14 q52.5 14 100.5 37 q13 6 21 20 q8 14 8 28 l0 277 q0 25 -15.5 40.5 q-15.5 15.5 -41.5 15.5 l-148 0 q-18 0 -27 -10.5 q-9 -10.5 -7 -28.5 q2 -17 14.5 -28 q12.5 -11 29.5 -11 l99 0 l0 -239 q-32 -18 -70 -26.5 q-38 -8.5 -77 -8.5 q-102 0 -159 74 q-57 74 -57 241 q0 85 19.5 144.5 q19.5 59.5 50.5 97 q31 37.5 71.5 54.5 q40.5 17 82.5 17 q41 0 73.5 -9 q32.5 -9 61.5 -28 q16 -11 32 -10 q16 1 30 15 q12 13 11 28.5 q-1 15.5 -16 25.5 q-40 29 -85 43 q-45 14 -107 14 l0 0 Z" /><glyph glyph-name="H" unicode="H" d="M588 -31 q21 0 34.5 13.5 q13.5 13.5 13.5 34.5 l0 665 q0 21 -13.5 34.5 q-13.5 13.5 -34.5 13.5 q-22 0 -35 -13.5 q-13 -13.5 -13 -34.5 l0 -272 l-331 0 l0 273 q0 20 -13.5 33.5 q-13.5 13.5 -33.5 13.5 q-22 0 -35 -13.5 q-13 -13.5 -13 -33.5 l0 -666 q0 -21 13 -34.5 q13 -13.5 35 -13.5 q20 0 33.5 13.5 q13.5 13.5 13.5 34.5 l0 313 l331 0 l0 -313 q0 -21 13 -34.5 q13 -13.5 35 -13.5 l0 0 Z" /><glyph glyph-name="I" unicode="I" d="M162 730 q-22 0 -35 -13.5 q-13 -13.5 -13 -33.5 l0 -666 q0 -21 13 -34.5 q13 -13.5 35 -13.5 q20 0 33.5 13.5 q13.5 13.5 13.5 33.5 l0 667 q0 20 -13.5 33.5 q-13.5 13.5 -33.5 13.5 l0 0 Z" /><glyph glyph-name="J" unicode="J" d="M177 730 q-21 0 -34.5 -13.5 q-13.5 -13.5 -13.5 -34.5 l0 -603 q0 -34 -3.5 -59.5 q-3.5 -25.5 -13.5 -46 q-10 -20.5 -26.5 -36.5 q-16.5 -16 -43.5 -30 q-14 -8 -20.5 -21.5 q-6.5 -13.5 -1.5 -28.5 q6 -16 19 -22.5 q13 -6.5 29 -0.5 q37 15 67 35 q30 20 50 48.5 q20 28.5 30 67 q10 38.5 10 90.5 l0 607 q0 21 -13 34.5 q-13 13.5 -35 13.5 l0 0 Z" /><glyph glyph-name="K" unicode="K" d="M162 730 q-22 0 -35 -13.5 q-13 -13.5 -13 -33.5 l0 -666 q0 -21 13 -34.5 q13 -13.5 35 -13.5 q20 0 33.5 13.5 q13.5 13.5 13.5 33.5 l0 667 q0 20 -13.5 33.5 q-13.5 13.5 -33.5 13.5 l0 0 ZM566 730 l-28 0 q-13 0 -24.5 -5.5 q-11.5 -5.5 -18.5 -14.5 l-251 -299 q-14 -17 -14 -36 q0 -19 12 -35 l263 -348 q8 -10 20.5 -16.5 q12.5 -6.5 24.5 -6.5 l32 0 q26 0 32.5 13 q6.5 13 -10.5 34 l-278 366 l259 306 q16 20 11 31 q-5 11 -30 11 l0 0 Z" /><glyph glyph-name="L" unicode="L" d="M162 730 q-22 0 -35 -13.5 q-13 -13.5 -13 -33.5 l0 -657 q0 -26 15 -41.5 q15 -15.5 41 -15.5 l300 0 q18 0 31.5 11.5 q13.5 11.5 16.5 30.5 q2 20 -8 31 q-10 11 -29 11 l-272 0 l0 630 q0 20 -13.5 33.5 q-13.5 13.5 -33.5 13.5 l0 0 Z" /><glyph glyph-name="M" unicode="M" d="M671 730 l-36 0 q-20 0 -34.5 -11 q-14.5 -11 -19.5 -30 l-149 -522 l-154 523 q-6 18 -20.5 29 q-14.5 11 -34.5 11 l-36 0 q-23 0 -38.5 -14 q-15.5 -14 -17.5 -37 l-56 -665 q-2 -20 9.5 -32.5 q11.5 -12.5 32.5 -12.5 q20 0 33 12.5 q13 12.5 15 32.5 l23 298 q8 85 12.5 171 q4.5 86 5.5 151 l167 -538 q5 -18 20 -29 q15 -11 34 -11 l5 0 q20 0 34.5 11.5 q14.5 11.5 19.5 28.5 l160 537 q0 -25 2 -60 q2 -35 4.5 -76.5 q2.5 -41.5 6.5 -88 q4 -46.5 8 -91.5 l24 -302 q2 -20 16 -33 q14 -13 35 -13 q21 0 32.5 13 q11.5 13 9.5 33 l-58 664 q-2 23 -17 37 q-15 14 -38 14 l0 0 Z" /><glyph glyph-name="N" unicode="N" d="M595 730 q-21 0 -33 -11.5 q-12 -11.5 -12 -32.5 l0 -382 q0 -35 1.5 -72.5 q1.5 -37.5 3.5 -70 q2 -32.5 4 -56 q2 -23.5 3 -31.5 l-308 624 q-7 15 -21 23.5 q-14 8.5 -29 8.5 l-34 0 q-26 0 -41 -15.5 q-15 -15.5 -15 -40.5 l0 -660 q0 -20 12 -32.5 q12 -12.5 33 -12.5 q20 0 32.5 12.5 q12.5 12.5 12.5 32.5 l0 323 q0 105 -4.5 173.5 q-4.5 68.5 -9.5 114.5 l306 -624 q7 -14 20.5 -23 q13.5 -9 29.5 -9 l37 0 q25 0 40.5 15.5 q15.5 15.5 15.5 41.5 l0 660 q0 21 -12 32.5 q-12 11.5 -32 11.5 l0 0 Z" /><glyph glyph-name="O" unicode="O" d="M383 743 q-71 0 -129 -26.5 q-58 -26.5 -100.5 -77 q-42.5 -50.5 -65.5 -124.5 q-23 -74 -23 -168 q0 -95 23 -168.5 q23 -73.5 65 -122.5 q42 -49 100.5 -74.5 q58.5 -25.5 129.5 -25.5 q71 0 129.5 26 q58.5 26 100.5 76 q42 50 65 123 q23 73 23 167 q0 96 -23 170 q-23 74 -65.5 124 q-42.5 50 -100.5 75.5 q-58 25.5 -129 25.5 l0 0 ZM383 664 q50 0 90 -18 q40 -18 68 -56.5 q28 -38.5 43 -98 q15 -59.5 15 -143.5 q0 -83 -15.5 -142.5 q-15.5 -59.5 -43.5 -97 q-28 -37.5 -68 -55 q-40 -17.5 -89 -17.5 q-48 0 -88 17.5 q-40 17.5 -68.5 55 q-28.5 37.5 -44.5 96.5 q-16 59 -16 142 q0 84 15.5 144 q15.5 60 44 98.5 q28.5 38.5 68.5 56.5 q40 18 89 18 l0 0 Z" /><glyph glyph-name="P" unicode="P" d="M308 730 l-138 0 q-26 0 -41 -15.5 q-15 -15.5 -15 -40.5 l0 -657 q0 -21 13 -34.5 q13 -13.5 35 -13.5 q20 0 33.5 13.5 q13.5 13.5 13.5 34.5 l0 235 l99 0 q63 0 116 14 q53 14 92.5 43.5 q39.5 29.5 61.5 76 q22 46.5 22 111.5 q0 119 -78 176 q-78 57 -214 57 l0 0 ZM305 329 l-96 0 l0 326 l98 0 q88 0 140 -35.5 q52 -35.5 52 -123.5 q0 -50 -14 -82 q-14 -32 -39.5 -51 q-25.5 -19 -61.5 -26.5 q-36 -7.5 -79 -7.5 l0 0 Z" /><glyph glyph-name="Q" unicode="Q" d="M523 8 q41 21 74 49.5 q33 28.5 56 69.5 q23 41 35.5 95 q12.5 54 12.5 126 q0 96 -23 170 q-23 74 -65.5 124 q-42.5 50 -100.5 75.5 q-58 25.5 -129 25.5 q-71 0 -129 -26.5 q-58 -26.5 -100.5 -77 q-42.5 -50.5 -65.5 -124.5 q-23 -74 -23 -168 q0 -95 23 -168 q23 -73 65 -122 q42 -49 99.5 -74 q57.5 -25 128.5 -25 q43 0 78 -3.5 q35 -3.5 64 -11.5 q29 -8 54.5 -21 q25.5 -13 51.5 -32 q18 -14 37.5 -12 q19.5 2 33.5 20 q15 18 12.5 37.5 q-2.5 19.5 -23.5 30.5 q-35 20 -76 31 q-41 11 -90 11 l0 0 ZM166 347 q0 84 15.5 144 q15.5 60 44 98.5 q28.5 38.5 68.5 56.5 q40 18 89 18 q50 0 90 -18 q40 -18 68 -56.5 q28 -38.5 43 -98 q15 -59.5 15 -143.5 q0 -83 -15.5 -142.5 q-15.5 -59.5 -43.5 -97 q-28 -37.5 -68 -55 q-40 -17.5 -89 -17.5 q-48 0 -88 17.5 q-40 17.5 -68.5 55 q-28.5 37.5 -44.5 96.5 q-16 59 -16 142 l0 0 Z" /><glyph glyph-name="R" unicode="R" d="M554 -31 l25 0 q25 0 33 13.5 q8 13.5 -6 35.5 l-177 295 q82 24 124 73 q42 49 42 131 q0 106 -71.5 159.5 q-71.5 53.5 -214.5 53.5 l-139 0 q-26 0 -41 -15.5 q-15 -15.5 -15 -40.5 l0 -657 q0 -21 13 -34.5 q13 -13.5 35 -13.5 q20 0 33.5 13.5 q13.5 13.5 13.5 34.5 l0 280 l126 0 l170 -299 q8 -13 21.5 -21 q13.5 -8 27.5 -8 l0 0 ZM209 371 l0 284 l99 0 q99 0 142.5 -32.5 q43.5 -32.5 43.5 -105.5 q0 -80 -45.5 -113 q-45.5 -33 -127.5 -33 l-112 0 Z" /><glyph glyph-name="S" unicode="S" d="M298 743 q-52 0 -95 -14 q-43 -14 -75 -40 q-32 -26 -49.5 -62 q-17.5 -36 -17.5 -79 q0 -44 14 -77.5 q14 -33.5 42 -59 q28 -25.5 70 -45 q42 -19.5 99 -36.5 q49 -16 81 -30 q32 -14 51 -31.5 q19 -17.5 27.5 -39.5 q8.5 -22 8.5 -52 q0 -35 -13.5 -61.5 q-13.5 -26.5 -36.5 -44.5 q-23 -18 -53 -26.5 q-30 -8.5 -65 -8.5 q-53 0 -93.5 13.5 q-40.5 13.5 -76.5 39.5 q-15 10 -30.5 8.5 q-15.5 -1.5 -28.5 -14.5 q-12 -13 -11.5 -28.5 q0.5 -15.5 14.5 -26.5 q45 -34 101 -53 q56 -19 126 -19 q62 0 112 16.5 q50 16.5 84 46 q34 29.5 52 71 q18 41.5 18 90.5 q0 54 -17.5 91 q-17.5 37 -47.5 63 q-30 26 -70.5 43.5 q-40.5 17.5 -87.5 32.5 q-51 15 -84 30 q-33 15 -52 30.5 q-19 15.5 -26 35 q-7 19.5 -7 45.5 q0 55 40 84 q40 29 101 29 q39 0 73.5 -10.5 q34.5 -10.5 68.5 -32.5 q15 -11 30.5 -9.5 q15.5 1.5 28.5 15.5 q11 13 10 28.5 q-1 15.5 -15 26.5 q-40 30 -87 45.5 q-47 15.5 -113 15.5 l0 0 Z" /><glyph glyph-name="T" unicode="T" d="M514 730 l-457 0 q-18 0 -29.5 -11 q-11.5 -11 -11.5 -30 q0 -18 11.5 -29.5 q11.5 -11.5 29.5 -11.5 l179 0 l0 -631 q0 -21 13 -34.5 q13 -13.5 35 -13.5 q20 0 33.5 13.5 q13.5 13.5 13.5 34.5 l0 631 l172 0 q18 0 31 11.5 q13 11.5 16 29.5 q2 19 -8 30 q-10 11 -28 11 l0 0 Z" /><glyph glyph-name="U" unicode="U" d="M579 730 q-23 0 -36.5 -13.5 q-13.5 -13.5 -13.5 -34.5 l0 -463 q0 -90 -39 -135.5 q-39 -45.5 -126 -45.5 q-85 0 -125.5 45.5 q-40.5 45.5 -40.5 135.5 l0 464 q0 20 -13.5 33.5 q-13.5 13.5 -33.5 13.5 q-22 0 -35.5 -13.5 q-13.5 -13.5 -13.5 -33.5 l0 -471 q0 -56 16.5 -103.5 q16.5 -47.5 50 -81 q33.5 -33.5 82 -52.5 q48.5 -19 113.5 -19 q64 0 113 19 q49 19 82.5 52.5 q33.5 33.5 50.5 81 q17 47.5 17 103.5 l0 470 q0 21 -13.5 34.5 q-13.5 13.5 -34.5 13.5 l0 0 Z" /><glyph glyph-name="V" unicode="V" d="M555 730 l-7 0 q-20 0 -34.5 -11 q-14.5 -11 -19.5 -29 l-186 -618 l-183 618 q-5 18 -20 29 q-15 11 -34 11 l-10 0 q-23 0 -33.5 -13.5 q-10.5 -13.5 -1.5 -35.5 l217 -673 q5 -17 20 -28 q15 -11 33 -11 l22 0 q19 0 34 11 q15 11 20 28 l217 676 q6 21 -3 33.5 q-9 12.5 -31 12.5 l0 0 Z" /><glyph glyph-name="W" unicode="W" d="M837 730 q-21 0 -35.5 -11.5 q-14.5 -11.5 -18.5 -32.5 l-123 -632 l-144 632 q-5 21 -20 32.5 q-15 11.5 -35 11.5 l-14 0 q-20 0 -35 -11.5 q-15 -11.5 -20 -32.5 l-141 -632 l-119 630 q-4 21 -19 33.5 q-15 12.5 -36 12.5 l0 0 q-22 0 -32.5 -12.5 q-10.5 -12.5 -6.5 -34.5 l140 -669 q4 -20 19.5 -32.5 q15.5 -12.5 35.5 -12.5 l28 0 q21 0 35.5 12 q14.5 12 19.5 32 l138 605 l135 -605 q5 -20 20 -32 q15 -12 35 -12 l32 0 q20 0 35.5 12.5 q15.5 12.5 19.5 32.5 l140 672 q5 21 -4.5 32.5 q-9.5 11.5 -29.5 11.5 l0 0 Z" /><glyph glyph-name="X" unicode="X" d="M350 381 l180 305 q12 21 5 32.5 q-7 11.5 -30 11.5 l-18 0 q-15 0 -28.5 -7.5 q-13.5 -7.5 -21.5 -22.5 l-142 -261 l-142 261 q-9 15 -22 22.5 q-13 7.5 -29 7.5 l-20 0 q-25 0 -32 -12.5 q-7 -12.5 5 -34.5 l182 -308 l-205 -361 q-12 -20 -4.5 -32.5 q7.5 -12.5 30.5 -12.5 l19 0 q15 0 28.5 8.5 q13.5 8.5 20.5 21.5 l167 314 l166 -314 q7 -13 20.5 -21.5 q13.5 -8.5 28.5 -8.5 l21 0 q25 0 32 13.5 q7 13.5 -4 34.5 l-207 364 l0 0 Z" /><glyph glyph-name="Y" unicode="Y" d="M544 730 l-16 0 q-15 0 -29 -8.5 q-14 -8.5 -21 -23.5 l-174 -351 l-175 351 q-7 15 -21 23.5 q-14 8.5 -29 8.5 l-18 0 q-23 0 -31 -12.5 q-8 -12.5 3 -34.5 l219 -421 l0 -244 q0 -22 13.5 -35.5 q13.5 -13.5 35.5 -13.5 q22 0 35 13.5 q13 13.5 13 35.5 l0 245 l221 423 q12 21 4 32.5 q-8 11.5 -30 11.5 l0 0 Z" /><glyph glyph-name="Z" unicode="Z" d="M486 730 l-370 0 q-19 0 -30 -11 q-11 -11 -11 -29 q0 -18 11 -29.5 q11 -11.5 30 -11.5 l305 0 l-378 -588 q-5 -7 -7 -14.5 q-2 -7.5 -2 -15.5 l0 -23 q0 -17 10.5 -28 q10.5 -11 28.5 -11 l398 0 q18 0 31 11.5 q13 11.5 16 29.5 q2 19 -7.5 30 q-9.5 11 -28.5 11 l-341 0 l375 587 q5 7 7 14.5 q2 7.5 2 16.5 l0 22 q0 18 -10.5 28.5 q-10.5 10.5 -28.5 10.5 l0 0 Z" /><glyph glyph-name="bracketleft" unicode="[" d="M257 869 l-123 0 q-25 0 -40.5 -15 q-15.5 -15 -15.5 -41 l0 -914 q0 -26 15.5 -41.5 q15.5 -15.5 40.5 -15.5 l123 0 q17 0 27.5 10.5 q10.5 10.5 10.5 27.5 q0 18 -10.5 28 q-10.5 10 -27.5 10 l-92 0 l0 875 l92 0 q17 0 27.5 10.5 q10.5 10.5 10.5 27.5 q0 18 -10.5 28 q-10.5 10 -27.5 10 l0 0 Z" /><glyph glyph-name="backslash" unicode="\" d="M160 851 q-19 -4 -27 -17.5 q-8 -13.5 -3 -30.5 l235 -907 q5 -18 18.5 -26.5 q13.5 -8.5 32.5 -4.5 q17 5 26 19 q9 14 3 31 l-236 906 q-5 18 -18.5 26 q-13.5 8 -30.5 4 l0 0 Z" /><glyph glyph-name="bracketright" unicode="]" d="M221 869 l-123 0 q-17 0 -28 -10 q-11 -10 -11 -28 q0 -17 11 -27.5 q11 -10.5 28 -10.5 l92 0 l0 -875 l-93 0 q-17 0 -27.5 -10 q-10.5 -10 -10.5 -28 q0 -17 10.5 -27.5 q10.5 -10.5 27.5 -10.5 l124 0 q26 0 41.5 15.5 q15.5 15.5 15.5 41.5 l0 914 q0 26 -15.5 41 q-15.5 15 -41.5 15 l0 0 Z" /><glyph glyph-name="underscore" unicode="_" d="M62 -182 l451 0 q17 0 28.5 11 q11.5 11 11.5 29 q0 17 -11.5 28.5 q-11.5 11.5 -28.5 11.5 l-451 0 q-17 0 -28 -11.5 q-11 -11.5 -11 -28.5 q0 -18 11 -29 q11 -11 28 -11 l0 0 Z" /><glyph glyph-name="a" unicode="a" d="M487 103 l0 270 q0 91 -48 141 q-48 50 -152 50 q-41 0 -81 -6.5 q-40 -6.5 -83 -20.5 q-15 -6 -21 -18.5 q-6 -12.5 -1 -28.5 q5 -16 17.5 -22 q12.5 -6 28.5 -1 q34 11 65.5 16 q31.5 5 57.5 5 q64 0 94.5 -27.5 q30.5 -27.5 30.5 -91.5 l0 -46 l-95 0 q-121 0 -187 -49 q-66 -49 -66 -142 q0 -79 48.5 -127.5 q48.5 -48.5 135.5 -48.5 q56 0 100.5 21.5 q44.5 21.5 74.5 68.5 q9 -35 28 -54.5 q19 -19.5 46 -28.5 q15 -5 27.5 3 q12.5 8 17.5 23 q5 14 -0.5 26.5 q-5.5 12.5 -16.5 22.5 q-10 9 -15.5 24.5 q-5.5 15.5 -5.5 40.5 l0 0 ZM252 27 q-52 0 -79 28 q-27 28 -27 81 q0 63 42 93.5 q42 30.5 124 30.5 l83 0 l0 -139 q-26 -47 -60.5 -70.5 q-34.5 -23.5 -82.5 -23.5 l0 0 Z" /><glyph glyph-name="b" unicode="b" d="M365 564 q-55 0 -96.5 -23 q-41.5 -23 -70.5 -64 l0 274 q0 20 -13 31.5 q-13 11.5 -33 9.5 q-21 -4 -34 -18 q-13 -14 -13 -35 l0 -729 q0 -18 11.5 -29.5 q11.5 -11.5 29.5 -11.5 l8 0 q15 0 25 9.5 q10 9.5 12 24.5 l5 33 q29 -37 68.5 -58.5 q39.5 -21.5 89.5 -21.5 q53 0 94.5 22 q41.5 22 71 62 q29.5 40 45.5 96.5 q16 56.5 16 124.5 q0 147 -58.5 225 q-58.5 78 -157.5 78 l0 0 ZM332 30 q-42 0 -76 22.5 q-34 22.5 -58 58.5 l0 286 q24 36 58 64.5 q34 28.5 84 28.5 q33 0 58.5 -12 q25.5 -12 44 -39.5 q18.5 -27.5 28 -71 q9.5 -43.5 9.5 -106.5 q0 -121 -41 -176 q-41 -55 -107 -55 l0 0 Z" /><glyph glyph-name="c" unicode="c" d="M317 564 q-58 0 -104.5 -22 q-46.5 -22 -79.5 -62.5 q-33 -40.5 -50 -97 q-17 -56.5 -17 -126.5 q0 -71 17 -126.5 q17 -55.5 50 -94 q33 -38.5 79.5 -59 q46.5 -20.5 104.5 -20.5 q40 0 76.5 10.5 q36.5 10.5 69.5 31.5 q14 9 15.5 24 q1.5 15 -7.5 29 q-10 14 -25 16.5 q-15 2.5 -29 -6.5 q-23 -13 -45.5 -19 q-22.5 -6 -50.5 -6 q-72 0 -114 52.5 q-42 52.5 -42 168.5 q0 118 42 173.5 q42 55.5 114 55.5 q27 0 50 -5.5 q23 -5.5 44 -16.5 q15 -8 29.5 -6 q14.5 2 25.5 15 q10 13 8.5 28 q-1.5 15 -15.5 24 q-33 21 -68.5 30 q-35.5 9 -77.5 9 l0 0 Z" /><glyph glyph-name="d" unicode="d" d="M452 751 l0 -259 q-29 29 -67.5 50.5 q-38.5 21.5 -91.5 21.5 q-53 0 -95.5 -22.5 q-42.5 -22.5 -72 -63.5 q-29.5 -41 -44.5 -97 q-15 -56 -15 -123 q0 -69 14 -124.5 q14 -55.5 42 -95 q28 -39.5 68.5 -61 q40.5 -21.5 94.5 -21.5 q55 0 98 26 q43 26 71 69 l5 -42 q2 -18 14.5 -29 q12.5 -11 30.5 -11 q17 0 28.5 11.5 q11.5 11.5 11.5 28.5 l0 730 q0 21 -13 35 q-13 14 -33 18 q-21 2 -33.5 -9.5 q-12.5 -11.5 -12.5 -31.5 l0 0 ZM303 30 q-65 0 -101.5 56 q-36.5 56 -36.5 173 q0 117 40 174 q40 57 108 57 q46 0 79 -21.5 q33 -21.5 60 -56.5 l0 -290 q-30 -44 -64 -68 q-34 -24 -85 -24 l0 0 Z" /><glyph glyph-name="e" unicode="e" d="M541 279 q0 132 -60 208.5 q-60 76.5 -177 76.5 q-55 0 -99.5 -22.5 q-44.5 -22.5 -75.5 -63.5 q-31 -41 -47 -97.5 q-16 -56.5 -16 -125.5 q0 -70 17 -125 q17 -55 49.5 -94 q32.5 -39 80 -59.5 q47.5 -20.5 106.5 -20.5 q52 0 94 14 q42 14 80 38 q13 8 14.5 22 q1.5 14 -7.5 26 q-10 13 -23 15.5 q-13 2.5 -26 -5.5 q-30 -18 -59.5 -25.5 q-29.5 -7.5 -64.5 -7.5 q-33 0 -61.5 10.5 q-28.5 10.5 -50 34 q-21.5 23.5 -35 61 q-13.5 37.5 -16.5 89.5 l349 0 q11 0 18.5 7.5 q7.5 7.5 8.5 18.5 l1 25 l0 0 ZM449 297 l-285 0 q5 102 43 147.5 q38 45.5 99 45.5 q73 0 108 -48 q35 -48 35 -137 l0 -8 Z" /><glyph glyph-name="f" unicode="f" d="M300 721 q16 0 33 -2 q17 -2 35 -7 q16 -5 29.5 0.5 q13.5 5.5 20.5 20.5 q6 16 1 29 q-5 13 -22 18 q-23 8 -48 12.5 q-25 4.5 -55 4.5 q-86 0 -131.5 -45 q-45.5 -45 -45.5 -118 l0 -83 l-67 0 q-16 0 -26 -10 q-10 -10 -10 -26 q0 -16 10 -26 q10 -10 26 -10 l67 0 l0 -463 q0 -21 12.5 -34 q12.5 -13 34.5 -13 q20 0 33 13 q13 13 13 34 l0 463 l98 0 q17 0 28 10 q11 10 13 26 q2 16 -6 26 q-8 10 -25 10 l-108 0 l0 84 q0 44 20.5 65 q20.5 21 69.5 21 l0 0 Z" /><glyph glyph-name="g" unicode="g" d="M500 615 q-19 -6 -40 -11.5 q-21 -5.5 -47 -9 q-26 -3.5 -59 -5.5 q-33 -2 -76 -1 q-49 0 -89.5 -13.5 q-40.5 -13.5 -70 -38 q-29.5 -24.5 -46 -58.5 q-16.5 -34 -16.5 -75 q0 -52 23.5 -87 q23.5 -35 74.5 -60 q-31 -18 -47 -42.5 q-16 -24.5 -16 -50.5 q0 -39 36 -68.5 q36 -29.5 112 -29.5 l92 0 q56 0 88.5 -20 q32.5 -20 32.5 -59 q0 -41 -39 -64 q-39 -23 -135 -23 q-77 0 -112.5 13 q-35.5 13 -46.5 43 q-5 15 -16.5 25.5 q-11.5 10.5 -30.5 10.5 q-20 0 -31 -10.5 q-11 -10.5 -8 -26.5 q11 -63 67 -92.5 q56 -29.5 178 -29.5 q134 0 200.5 41.5 q66.5 41.5 66.5 118.5 q0 31 -14 57 q-14 26 -39.5 46 q-25.5 20 -61.5 30.5 q-36 10.5 -81 10.5 l-92 0 q-47 0 -63.5 13.5 q-16.5 13.5 -16.5 31.5 q0 17 9 30 q9 13 23 22 q17 -5 35.5 -7.5 q18.5 -2.5 38.5 -2.5 q51 0 92 13.5 q41 13.5 69 37 q28 23.5 43 56 q15 32.5 15 71.5 q0 50 -25 83.5 q-25 33.5 -77 54.5 q36 1 67 1.5 q31 0.5 57 4.5 q21 3 29 16.5 q8 13.5 2 31.5 q-7 18 -22 24.5 q-15 6.5 -33 -2.5 l0 0 ZM278 526 q64 0 96.5 -31 q32.5 -31 32.5 -92 q0 -58 -32.5 -90 q-32.5 -32 -94.5 -32 q-62 0 -95 33.5 q-33 33.5 -33 88.5 q0 54 31.5 88.5 q31.5 34.5 94.5 34.5 l0 0 Z" /><glyph glyph-name="h" unicode="h" d="M375 564 q-57 0 -101 -26.5 q-44 -26.5 -76 -70.5 l0 283 q0 20 -13 31.5 q-13 11.5 -33 9.5 q-21 -4 -34 -18 q-13 -14 -13 -35 l0 -723 q0 -20 13 -33 q13 -13 34 -13 q20 0 33 13 q13 13 13 33 l0 370 q30 48 67.5 77.5 q37.5 29.5 87.5 29.5 q44 0 70 -26 q26 -26 26 -93 l0 -357 q0 -21 12.5 -34 q12.5 -13 34.5 -13 q20 0 33 13 q13 13 13 34 l0 370 q0 83 -43.5 130.5 q-43.5 47.5 -123.5 47.5 l0 0 Z" /><glyph glyph-name="i" unicode="i" d="M151 825 q-30 0 -48 -18.5 q-18 -18.5 -18 -45.5 q0 -27 18 -45.5 q18 -18.5 48 -18.5 q29 0 47.5 18.5 q18.5 18.5 18.5 45.5 q0 27 -18.5 45.5 q-18.5 18.5 -47.5 18.5 l0 0 ZM152 551 q-21 0 -34 -13 q-13 -13 -13 -33 l0 -490 q0 -20 13 -33 q13 -13 34 -13 q20 0 33 13 q13 13 13 33 l0 490 q0 20 -13 33 q-13 13 -33 13 l0 0 Z" /><glyph glyph-name="j" unicode="j" d="M153 825 q-30 0 -48 -18.5 q-18 -18.5 -18 -45.5 q0 -27 18 -45.5 q18 -18.5 48 -18.5 q29 0 47.5 18.5 q18.5 18.5 18.5 45.5 q0 27 -18.5 45.5 q-18.5 18.5 -47.5 18.5 l0 0 ZM153 551 q-21 0 -34 -13 q-13 -13 -13 -33 l0 -509 q0 -40 -4.5 -67.5 q-4.5 -27.5 -14.5 -47.5 q-10 -20 -25 -34 q-15 -14 -35 -26 q-15 -8 -20 -21.5 q-5 -13.5 1 -28.5 q6 -16 19 -21 q13 -5 27 2 q36 19 63 39.5 q27 20.5 45 49 q18 28.5 27.5 67 q9.5 38.5 9.5 93.5 l0 504 q0 20 -13 33 q-13 13 -33 13 l0 0 Z" /><glyph glyph-name="k" unicode="k" d="M152 792 q-21 -4 -34 -18 q-13 -14 -13 -35 l0 -724 q0 -20 13 -33 q13 -13 34 -13 q20 0 33 13 q13 13 13 33 l0 736 q0 20 -13 31.5 q-13 11.5 -33 9.5 l0 0 ZM478 551 l-25 0 q-13 0 -24.5 -5.5 q-11.5 -5.5 -18.5 -15.5 l-177 -209 q-13 -16 -13.5 -35 q-0.5 -19 11.5 -35 l195 -259 q8 -10 20.5 -16.5 q12.5 -6.5 24.5 -6.5 l29 0 q24 0 30.5 12 q6.5 12 -9.5 32 l-212 280 l188 218 q15 18 10 29 q-5 11 -29 11 l0 0 Z" /><glyph glyph-name="l" unicode="l" d="M216 -44 q11 0 22.5 1.5 q11.5 1.5 22.5 4.5 q14 4 19.5 17.5 q5.5 13.5 0.5 27.5 l-6 15 q-3 8 -10 11.5 q-7 3.5 -15 1.5 q-5 -1 -9.5 -1 q-4.5 0 -10.5 0 q-20 0 -29.5 12 q-9.5 12 -9.5 36 l0 668 q0 21 -12.5 32.5 q-12.5 11.5 -33.5 9.5 q-21 -4 -34 -18 q-13 -14 -13 -36 l0 -658 q0 -62 32 -93 q32 -31 86 -31 l0 0 Z" /><glyph glyph-name="m" unicode="m" d="M685 564 q-58 0 -100.5 -29 q-42.5 -29 -74.5 -78 q-16 51 -53.5 79 q-37.5 28 -92.5 28 q-58 0 -99.5 -27.5 q-41.5 -27.5 -71.5 -73.5 l-5 49 q-2 17 -13.5 28 q-11.5 11 -29.5 11 q-18 0 -29 -11 q-11 -11 -11 -28 l0 -497 q0 -20 13 -33 q13 -13 34 -13 q20 0 33 13 q13 13 13 33 l0 369 q29 49 61.5 78.5 q32.5 29.5 81.5 29.5 q36 0 61 -26 q25 -26 25 -93 l0 -357 q0 -21 13 -34 q13 -13 34 -13 q21 0 33.5 13 q12.5 13 12.5 34 l0 368 q31 49 62 78.5 q31 29.5 81 29.5 q35 0 60.5 -26 q25.5 -26 25.5 -93 l0 -357 q0 -21 12.5 -34 q12.5 -13 34.5 -13 q20 0 33 13 q13 13 13 34 l0 370 q0 83 -43 130.5 q-43 47.5 -114 47.5 l0 0 Z" /><glyph glyph-name="n" unicode="n" d="M375 564 q-59 0 -105 -27.5 q-46 -27.5 -77 -73.5 l-5 49 q-2 17 -13.5 28 q-11.5 11 -29.5 11 q-18 0 -29 -11 q-11 -11 -11 -28 l0 -497 q0 -20 13 -33 q13 -13 34 -13 q20 0 33 13 q13 13 13 33 l0 369 q30 49 67 78.5 q37 29.5 89 29.5 q45 0 70 -26 q25 -26 25 -93 l0 -357 q0 -21 12.5 -34 q12.5 -13 34.5 -13 q20 0 33 13 q13 13 13 34 l0 370 q0 83 -43 130.5 q-43 47.5 -124 47.5 l0 0 Z" /><glyph glyph-name="o" unicode="o" d="M322 564 q-61 0 -108.5 -22 q-47.5 -22 -80.5 -62 q-33 -40 -50 -96 q-17 -56 -17 -125 q0 -69 16.5 -125 q16.5 -56 49.5 -95.5 q33 -39.5 80 -61 q47 -21.5 109 -21.5 q61 0 108.5 22 q47.5 22 80.5 62 q33 40 50.5 96.5 q17.5 56.5 17.5 124.5 q0 70 -17 126 q-17 56 -50 95.5 q-33 39.5 -80.5 60.5 q-47.5 21 -108.5 21 l0 0 ZM322 489 q76 0 116 -56 q40 -56 40 -172 q0 -118 -41 -174 q-41 -56 -116 -56 q-76 0 -116 56 q-40 56 -40 172 q0 118 41 174 q41 56 116 56 l0 0 Z" /><glyph glyph-name="p" unicode="p" d="M366 564 q-53 0 -97.5 -24 q-44.5 -24 -75.5 -70 l-5 42 q-2 17 -13.5 28 q-11.5 11 -29.5 11 q-18 0 -29 -11 q-11 -11 -11 -28 l0 -730 q0 -21 13 -32 q13 -11 34 -9 q20 3 33 17.5 q13 14.5 13 34.5 l0 233 q28 -35 67 -52.5 q39 -17.5 89 -17.5 q56 0 98.5 22.5 q42.5 22.5 70.5 63 q28 40.5 43 97 q15 56.5 15 122.5 q0 70 -12.5 125.5 q-12.5 55.5 -38.5 95 q-26 39.5 -66.5 61 q-40.5 21.5 -97.5 21.5 l0 0 ZM332 33 q-43 0 -76.5 19.5 q-33.5 19.5 -57.5 55.5 l0 288 q25 37 61 65.5 q36 28.5 85 28.5 q68 0 102 -56 q34 -56 34 -173 q0 -118 -38 -173 q-38 -55 -110 -55 l0 0 Z" /><glyph glyph-name="q" unicode="q" d="M462 518 l-4 -34 q-30 33 -69 56.5 q-39 23.5 -96 23.5 q-53 0 -95.5 -22.5 q-42.5 -22.5 -72 -63.5 q-29.5 -41 -44.5 -97 q-15 -56 -15 -123 q0 -69 14 -124.5 q14 -55.5 42 -95 q28 -39.5 68.5 -61 q40.5 -21.5 94.5 -21.5 q54 0 96 24.5 q42 24.5 71 66.5 l0 -254 q0 -20 12.5 -34.5 q12.5 -14.5 33.5 -17.5 q20 -2 33 9 q13 11 13 32 l0 730 q0 17 -11 28 q-11 11 -28 11 l-6 0 q-16 0 -25.5 -9.5 q-9.5 -9.5 -11.5 -23.5 l0 0 ZM304 30 q-66 0 -102.5 56 q-36.5 56 -36.5 173 q0 117 40 174 q40 57 108 57 q46 0 79 -21.5 q33 -21.5 60 -56.5 l0 -290 q-30 -44 -64 -68 q-34 -24 -84 -24 l0 0 Z" /><glyph glyph-name="r" unicode="r" d="M351 564 q-55 0 -94.5 -33.5 q-39.5 -33.5 -62.5 -101.5 l-7 83 q-2 17 -13 28 q-11 11 -29 11 q-18 0 -29 -11 q-11 -11 -11 -28 l0 -497 q0 -20 13 -33 q13 -13 34 -13 q20 0 33 13 q13 13 13 33 l0 291 q19 87 53 127 q34 40 90 40 q7 0 13 0 q6 0 13 -1 q11 -2 19 3 q8 5 10 17 l7 37 q4 14 -2.5 23 q-6.5 9 -19.5 11 q-8 1 -15 1 q-7 0 -15 0 l0 0 Z" /><glyph glyph-name="s" unicode="s" d="M261 564 q-44 0 -82 -11.5 q-38 -11.5 -65.5 -32.5 q-27.5 -21 -43 -50.5 q-15.5 -29.5 -15.5 -62.5 q0 -62 40.5 -102.5 q40.5 -40.5 135.5 -64.5 q43 -13 71 -23.5 q28 -10.5 43.5 -23.5 q15.5 -13 22.5 -29 q7 -16 7 -39 q0 -44 -35.5 -69 q-35.5 -25 -93.5 -25 q-39 0 -72 9.5 q-33 9.5 -62 27.5 q-15 9 -29.5 7.5 q-14.5 -1.5 -26.5 -14.5 q-11 -13 -10.5 -27.5 q0.5 -14.5 14.5 -24.5 q36 -23 81.5 -38 q45.5 -15 106.5 -15 q44 0 84.5 10.5 q40.5 10.5 71.5 32 q31 21.5 49.5 55 q18.5 33.5 18.5 77.5 q0 76 -49 116 q-49 40 -142 64 q-36 10 -60.5 19.5 q-24.5 9.5 -39.5 20 q-15 10.5 -21.5 25 q-6.5 14.5 -6.5 33.5 q0 36 29.5 58.5 q29.5 22.5 81.5 22.5 q33 0 62 -8 q29 -8 59 -24 q14 -8 28 -5.5 q14 2.5 23 16.5 q9 13 7 27 q-2 14 -16 22 q-36 23 -76 34.5 q-40 11.5 -90 11.5 l0 0 Z" /><glyph glyph-name="t" unicode="t" d="M328 42 q-13 -4 -25 -6 q-12 -2 -24 -2 q-39 0 -56 21.5 q-17 21.5 -17 67.5 l0 356 l94 0 q16 0 27.5 10 q11.5 10 13.5 26 q2 16 -6 26 q-8 10 -25 10 l-104 0 l0 96 q0 22 -13 33.5 q-13 11.5 -33 9.5 q-22 -2 -34.5 -16.5 q-12.5 -14.5 -12.5 -35.5 l0 -87 l-65 0 q-16 0 -26 -10 q-10 -10 -10 -26 q0 -16 10 -26 q10 -10 26 -10 l65 0 l0 -360 q0 -80 40.5 -121.5 q40.5 -41.5 112.5 -41.5 q27 0 51.5 5 q24.5 5 47.5 16 q14 8 17.5 21.5 q3.5 13.5 -4.5 28.5 q-8 14 -22 17 q-14 3 -28 -2 l0 0 Z" /><glyph glyph-name="u" unicode="u" d="M484 551 q-20 0 -33 -13 q-13 -13 -13 -33 l0 -371 q-27 -46 -64 -75 q-37 -29 -87 -29 q-49 0 -72.5 26 q-23.5 26 -23.5 88 l0 361 q0 20 -12.5 33 q-12.5 13 -33.5 13 q-21 0 -34 -13 q-13 -13 -13 -33 l0 -371 q0 -86 43 -132 q43 -46 120 -46 q65 0 108 27 q43 27 75 80 l5 -55 q2 -17 13 -28 q11 -11 30 -11 q17 0 27.5 11 q10.5 11 10.5 29 l0 496 q0 20 -12.5 33 q-12.5 13 -33.5 13 l0 0 Z" /><glyph glyph-name="v" unicode="v" d="M477 551 l-8 0 q-18 0 -33 -11 q-15 -11 -20 -29 l-144 -459 l-146 460 q-5 17 -20 28 q-15 11 -33 11 l-10 0 q-23 0 -32 -13.5 q-9 -13.5 -2 -34.5 l173 -496 q6 -17 21 -27.5 q15 -10.5 32 -10.5 l33 0 q17 0 32 10.5 q15 10.5 21 27.5 l169 498 q8 20 -1 33 q-9 13 -32 13 l0 0 Z" /><glyph glyph-name="w" unicode="w" d="M720 551 q-21 0 -35 -12 q-14 -12 -18 -31 l-102 -473 l-104 472 q-5 20 -20 32 q-15 12 -35 12 l-15 0 q-20 0 -35 -12 q-15 -12 -20 -32 l-110 -472 l-100 471 q-4 20 -19.5 32.5 q-15.5 12.5 -35.5 12.5 l0 0 q-22 0 -31.5 -12.5 q-9.5 -12.5 -4.5 -32.5 l117 -494 q5 -19 19 -31 q14 -12 35 -12 l35 0 q20 0 35 12 q15 12 20 32 l100 454 l98 -454 q4 -20 18.5 -32 q14.5 -12 35.5 -12 l38 0 q20 0 35 12 q15 12 20 32 l113 495 q5 19 -4.5 31 q-9.5 12 -29.5 12 l0 0 Z" /><glyph glyph-name="x" unicode="x" d="M319 282 l150 225 q14 20 7.5 32 q-6.5 12 -30.5 12 l-20 0 q-14 0 -27.5 -7.5 q-13.5 -7.5 -21.5 -20.5 l-111 -190 l-110 190 q-9 13 -22 20.5 q-13 7.5 -28 7.5 l-21 0 q-25 0 -31.5 -12.5 q-6.5 -12.5 6.5 -32.5 l150 -230 l-175 -263 q-13 -20 -6 -32 q7 -12 30 -12 l21 0 q14 0 27 8 q13 8 21 20 l134 224 l132 -224 q8 -12 21 -20 q13 -8 27 -8 l25 0 q26 0 33 13 q7 13 -7 34 l-174 266 l0 0 Z" /><glyph glyph-name="y" unicode="y" d="M477 561 l-6 0 q-19 0 -34 -10 q-15 -10 -20 -26 l-145 -424 l-148 424 q-5 17 -20 26.5 q-15 9.5 -33 9.5 l-9 0 q-23 0 -32.5 -11 q-9.5 -11 -0.5 -31 l175 -464 q2 -7 7.5 -10.5 q5.5 -3.5 13.5 -3.5 l16 0 q-12 -27 -23.5 -49 q-11.5 -22 -28.5 -38.5 q-17 -16.5 -40 -28.5 q-23 -12 -57 -20 q-16 -4 -24.5 -14.5 q-8.5 -10.5 -5.5 -25.5 q3 -15 14 -22.5 q11 -7.5 27 -4.5 q50 9 85.5 27.5 q35.5 18.5 62.5 44 q27 25.5 45.5 58 q18.5 32.5 33.5 71.5 l180 481 q7 19 -2 30 q-9 11 -31 11 l0 0 Z" /><glyph glyph-name="z" unicode="z" d="M408 551 l-314 0 q-18 0 -29 -11 q-11 -11 -11 -28 q0 -18 11 -29 q11 -11 29 -11 l242 0 l-297 -419 q-5 -6 -7.5 -15 q-2.5 -9 -2.5 -18 l0 -16 q0 -15 9.5 -25 q9.5 -10 24.5 -10 l330 0 q18 0 30.5 11 q12.5 11 15.5 29 q2 18 -7.5 28.5 q-9.5 10.5 -27.5 10.5 l-270 0 l298 418 q5 6 7.5 15 q2.5 9 2.5 18 l0 17 q0 15 -9.5 25 q-9.5 10 -24.5 10 l0 0 Z" /><glyph glyph-name="braceleft" unicode="{" d="M266 891 q-85 -6 -119.5 -43.5 q-34.5 -37.5 -34.5 -114.5 l0 -254 q0 -35 -9.5 -53.5 q-9.5 -18.5 -32.5 -26.5 q-17 -5 -27 -15.5 q-10 -10.5 -10 -28.5 q0 -17 10 -28 q10 -11 27 -16 q23 -7 32.5 -26 q9.5 -19 9.5 -52 l0 -253 q0 -77 34.5 -114.5 q34.5 -37.5 119.5 -43.5 q17 -1 26.5 8.5 q9.5 9.5 9.5 26.5 q0 16 -9.5 25.5 q-9.5 9.5 -26.5 12.5 q-36 5 -51.5 22.5 q-15.5 17.5 -15.5 52.5 l0 268 q0 29 -6 49 q-6 20 -16 33.5 q-10 13.5 -25.5 21 q-15.5 7.5 -35.5 13.5 q20 6 35.5 14.5 q15.5 8.5 25.5 21 q10 12.5 16 32.5 q6 20 6 50 l0 269 q0 35 15.5 53 q15.5 18 51.5 23 q17 2 26.5 12 q9.5 10 9.5 26 q0 16 -9.5 26 q-9.5 10 -26.5 9 l0 0 Z" /><glyph glyph-name="bar" unicode="|" d="M223 860 q-19 0 -30.5 -11 q-11.5 -11 -11.5 -31 l0 -919 q0 -20 11.5 -31 q11.5 -11 30.5 -11 q20 0 31 11 q11 11 11 31 l0 919 q0 20 -11 31 q-11 11 -31 11 l0 0 Z" /><glyph glyph-name="braceright" unicode="}" d="M55 856 q0 -16 10 -26 q10 -10 26 -12 q35 -5 51 -23 q16 -18 16 -53 l0 -269 q0 -30 5.5 -50 q5.5 -20 16 -32.5 q10.5 -12.5 26 -21 q15.5 -8.5 35.5 -14.5 q-20 -6 -35.5 -13.5 q-15.5 -7.5 -26 -21 q-10.5 -13.5 -16 -33.5 q-5.5 -20 -5.5 -49 l0 -268 q0 -35 -16 -52.5 q-16 -17.5 -51 -22.5 q-16 -3 -26 -12.5 q-10 -9.5 -10 -25.5 q0 -17 10 -26.5 q10 -9.5 26 -8.5 q85 6 120 43.5 q35 37.5 35 114.5 l0 253 q0 33 9 52 q9 19 32 26 q16 5 26.5 16 q10.5 11 10.5 28 q0 18 -10.5 28.5 q-10.5 10.5 -26.5 15.5 q-23 8 -32 26.5 q-9 18.5 -9 53.5 l0 254 q0 77 -35 114.5 q-35 37.5 -120 43.5 q-16 1 -26 -9 q-10 -10 -10 -26 l0 0 Z" /><glyph glyph-name="asciitilde" unicode="~" d="M350 249 q46 0 76.5 21.5 q30.5 21.5 49.5 47.5 q8 12 4.5 23.5 q-3.5 11.5 -15.5 18.5 q-12 8 -24.5 4.5 q-12.5 -3.5 -22.5 -13.5 q-12 -11 -26.5 -18.5 q-14.5 -7.5 -32.5 -7.5 q-18 0 -36 10 q-18 10 -38 22.5 q-20 12.5 -43.5 22.5 q-23.5 10 -53.5 10 q-48 0 -78.5 -23 q-30.5 -23 -50.5 -51 q-8 -12 -4.5 -23.5 q3.5 -11.5 17.5 -18.5 q12 -7 24.5 -4 q12.5 3 22.5 15 q11 13 26 22 q15 9 34 9 q18 0 35 -10.5 q17 -10.5 37 -23 q20 -12.5 44 -23 q24 -10.5 55 -10.5 l0 0 Z" /><glyph glyph-name="periodcentered" unicode="·&#x2022;&#x2027;&#x30fb;" d="M175 463 q-49 0 -82 -33 q-33 -33 -33 -82 q0 -49 33 -82 q33 -33 82 -33 q49 0 81.5 32.5 q32.5 32.5 32.5 81.5 q0 49 -32.5 82.5 q-32.5 33.5 -81.5 33.5 l0 0 Z" /><glyph glyph-name="uni2003" unicode="&#x2003;&#x3000;" d="" /><glyph glyph-name="figuredash" unicode="&#x2012;&#x2013;" d="M78 275 l420 0 q17 0 28.5 11.5 q11.5 11.5 11.5 28.5 q0 18 -11.5 29 q-11.5 11 -28.5 11 l-420 0 q-18 0 -29 -11 q-11 -11 -11 -29 q0 -17 11 -28.5 q11 -11.5 29 -11.5 l0 0 Z" /><glyph glyph-name="emdash" unicode="&#x2014;" d="M80 224 l756 0 q14 0 23 9.5 q9 9.5 9 23.5 q0 14 -9 23.5 q-9 9.5 -23 9.5 l-756 0 q-14 0 -23.5 -9.5 q-9.5 -9.5 -9.5 -23.5 q0 -14 9.5 -23.5 q9.5 -9.5 23.5 -9.5 l0 0 Z" /><glyph glyph-name="quotedblleft" unicode="&#x201c;" d="M778 817 q-5 8 -13.5 11 q-8.5 3 -16.5 -2 q-43 -25 -75.5 -72 q-32.5 -47 -32.5 -109 q0 -43 23.5 -70 q23.5 -27 56.5 -27 q35 0 52.5 21.5 q17.5 21.5 17.5 44.5 q0 28 -17.5 47 q-17.5 19 -46.5 19 q-8 0 -16 -2 q-8 -2 -13 -6 q0 29 19.5 61 q19.5 32 52.5 53 q8 6 11 14.5 q3 8.5 -2 16.5 l0 0 ZM975 817 q-5 8 -14 11 q-9 3 -17 -2 q-44 -25 -76 -72 q-32 -47 -32 -109 q0 -43 24 -70 q24 -27 56 -27 q35 0 52.5 21.5 q17.5 21.5 17.5 44.5 q0 28 -17.5 47 q-17.5 19 -46.5 19 q-9 0 -16 -2 q-7 -2 -12 -6 q0 29 19.5 61 q19.5 32 52.5 53 q8 6 11 14.5 q3 8.5 -2 16.5 l0 0 Z" /><glyph glyph-name="quotedblright" unicode="&#x201d;" d="M247 563 q5 -8 13 -11 q8 -3 16 2 q45 27 77 73.5 q32 46.5 32 107.5 q0 43 -24 70.5 q-24 27.5 -57 27.5 q-35 0 -52.5 -21 q-17.5 -21 -17.5 -46 q0 -28 17.5 -47 q17.5 -19 46.5 -19 q8 0 16 3 q8 3 13 6 q0 -30 -19.5 -62 q-19.5 -32 -52.5 -53 q-8 -5 -10.5 -14 q-2.5 -9 2.5 -17 l0 0 ZM50 563 q5 -8 13.5 -11 q8.5 -3 16.5 2 q44 27 76 73.5 q32 46.5 32 107.5 q0 43 -24 70.5 q-24 27.5 -56 27.5 q-35 0 -52.5 -21 q-17.5 -21 -17.5 -46 q0 -28 17.5 -47 q17.5 -19 46.5 -19 q9 0 16 3 q7 3 12 6 q0 -30 -19.5 -62 q-19.5 -32 -52.5 -53 q-8 -5 -10.5 -14 q-2.5 -9 2.5 -17 l0 0 Z" /><glyph glyph-name="ellipsis" unicode="&#x2026;&#x22ef;" d="M171 426 q-29 0 -48.5 -19.5 q-19.5 -19.5 -19.5 -48.5 q0 -28 19.5 -47.5 q19.5 -19.5 48.5 -19.5 q29 0 48.5 19.5 q19.5 19.5 19.5 47.5 q0 29 -19.5 48.5 q-19.5 19.5 -48.5 19.5 l0 0 ZM512 426 q-29 0 -48.5 -19.5 q-19.5 -19.5 -19.5 -48.5 q0 -28 19.5 -47.5 q19.5 -19.5 48.5 -19.5 q29 0 48.5 19.5 q19.5 19.5 19.5 47.5 q0 29 -19.5 48.5 q-19.5 19.5 -48.5 19.5 l0 0 ZM853 426 q-29 0 -48.5 -19.5 q-19.5 -19.5 -19.5 -48.5 q0 -28 19.5 -47.5 q19.5 -19.5 48.5 -19.5 q29 0 48.5 19.5 q19.5 19.5 19.5 47.5 q0 29 -19.5 48.5 q-19.5 19.5 -48.5 19.5 l0 0 Z" /><glyph glyph-name="uni2E9F" unicode="&#x2e9f;&#x6bcd;" d="M679 -100 q27 2 48.5 14 q21.5 12 37.5 36 q12 16 21 47.5 q9 31.5 17 75.5 l84 0 q16 0 26.5 10 q10.5 10 10.5 28 q0 16 -10.5 26 q-10.5 10 -26.5 10 l-73 0 q5 47 10.5 114 q5.5 67 11.5 143 l79 0 q18 0 28 10.5 q10 10.5 10 27.5 q0 18 -10 28 q-10 10 -28 10 l-75 0 q2 43 6 93.5 q4 50.5 7 105.5 l1 11 q1 13 1 27 q0 14 1 28 l0 23 q0 10 -6 16.5 q-6 6.5 -16 6.5 l-541 0 q-23 0 -38 -13.5 q-15 -13.5 -17 -36.5 q-4 -24 -7 -50.5 q-3 -26.5 -6 -54.5 l-1 -10 l-1 -11 l-2 -10 l-2 -16 l-1 -10 l-1 -11 l-12 -88 l-96 0 q-18 0 -28 -10 q-10 -10 -10 -28 q0 -17 10 -27.5 q10 -10.5 28 -10.5 l82 0 q-3 -16 -5.5 -33 q-2.5 -17 -5.5 -34 l-2 -11 l0 -2 q-1 -2 -1 -3.5 q0 -1.5 0 -3.5 l-1 -8 l-2 -11 l-1 -5 l-2 -11 l-24 -142 q-5 -30 10 -48.5 q15 -18.5 47 -18.5 l517 0 q-6 -26 -14 -47 q-8 -21 -15 -32 q-2 -2 -3 -4 q-1 -2 -3 -4 q-8 -12 -17 -14.5 q-9 -2.5 -21 -2.5 q-13 0 -38 0.5 q-25 0.5 -53 2.5 q-16 1 -26 -8 q-10 -9 -9 -25 q0 -17 10 -27 q10 -10 26 -11 q38 -3 69 -3 q31 0 52 2 l0 0 ZM285 480 q2 19 5 37.5 q3 18.5 5 37.5 l2 15 l3 21 q4 33 7.5 63.5 q3.5 30.5 7.5 60.5 l460 0 q-3 -65 -5.5 -124 q-2.5 -59 -6.5 -111 l-478 0 ZM624 583 q-30 21 -68.5 44.5 q-38.5 23.5 -74.5 43.5 q-14 7 -28.5 4.5 q-14.5 -2.5 -25.5 -13.5 q-11 -12 -9 -22.5 q2 -10.5 15 -18.5 q36 -21 74.5 -46 q38.5 -25 66.5 -49 q15 -11 29 -10.5 q14 0.5 26 13.5 q11 14 10 28 q-1 14 -15 26 l0 0 ZM231 147 q11 52 20.5 121.5 q9.5 69.5 19.5 135.5 l486 0 q0 -7 -1 -11 l0 -12 q-5 -70 -10 -131.5 q-5 -61.5 -11 -102.5 l-504 0 ZM601 242 q-20 15 -46 33.5 q-26 18.5 -52 36.5 l-9 6 q-14 10 -26.5 18 q-12.5 8 -24.5 16 q-13 8 -28 7 q-15 -1 -26 -12 q-11 -11 -10.5 -23 q0.5 -12 13.5 -21 q14 -9 27.5 -19 q13.5 -10 27.5 -20 l10 -6 q24 -18 47.5 -36 q23.5 -18 44.5 -34 q13 -11 28.5 -9.5 q15.5 1.5 27.5 14.5 q12 11 11 24.5 q-1 13.5 -15 24.5 l0 0 Z" /><glyph glyph-name="uni2EC5" unicode="&#x2ec5;&#x89c1;" d="M278 701 l464 0 l0 -454 q0 -20 11.5 -31 q11.5 -11 30.5 -11 q20 0 31 11 q11 11 11 31 l0 481 q0 26 -15 41 q-15 15 -41 15 l-519 0 q-26 0 -41 -15 q-15 -15 -15 -41 l0 -481 q0 -20 11 -31 q11 -11 31 -11 q18 0 29.5 11 q11.5 11 11.5 31 l0 454 l0 0 ZM504 620 q-20 0 -31.5 -12 q-11.5 -12 -12.5 -31 q-4 -112 -17 -208 q-13 -96 -49.5 -171.5 q-36.5 -75.5 -103.5 -131 q-67 -55.5 -179 -86.5 q-18 -6 -25 -18.5 q-7 -12.5 -2 -30.5 q5 -17 19.5 -24.5 q14.5 -7.5 31.5 -2.5 q128 38 206 102 q78 64 122 150.5 q44 86.5 60.5 192.5 q16.5 106 21.5 228 q1 19 -11 31 q-12 12 -30 12 l0 0 ZM920 147 q-18 3 -28 -6 q-10 -9 -12 -26 q-2 -32 -7.5 -54 q-5.5 -22 -16 -36 q-10.5 -14 -29 -19.5 q-18.5 -5.5 -48.5 -5.5 l-83 0 q-32 0 -50.5 1.5 q-18.5 1.5 -27.5 6 q-9 4.5 -10.5 12 q-1.5 7.5 -1.5 17.5 l0 222 q0 17 -11 28.5 q-11 11.5 -29 11.5 q-18 0 -29.5 -11.5 q-11.5 -11.5 -11.5 -28.5 l0 -223 q0 -30 7.5 -51 q7.5 -21 26 -34.5 q18.5 -13.5 51 -20.5 q32.5 -7 83.5 -7 l90 0 q45 0 76 10 q31 10 50.5 32 q19.5 22 30 56 q10.5 34 14.5 83 q2 18 -7.5 29.5 q-9.5 11.5 -26.5 13.5 l0 0 Z" /><glyph glyph-name="uni2EC6" unicode="&#x2ec6;&#x89d2;" d="M267 141 l232 0 l0 -183 q0 -17 10 -27.5 q10 -10.5 28 -10.5 q17 0 27 10.5 q10 10.5 10 27.5 l0 183 l229 0 l0 -139 q0 -10 -5.5 -15 q-5.5 -5 -18.5 -6 q-5 0 -20 -0.5 q-15 -0.5 -34 -0.5 l-11 0 l-34 0 q-14 1 -23 -8.5 q-9 -9.5 -8 -23.5 l1 -7 q2 -18 14 -29 q12 -11 29 -11 q52 1 89 4 q37 3 57 10 q22 9 33.5 31.5 q11.5 22.5 11.5 54.5 l0 553 q0 26 -15.5 41 q-15.5 15 -41.5 15 l-181 0 q23 22 43 49.5 q20 27.5 36 54.5 q8 12 5 25 q-3 13 -14 21 l-22 15 q-2 2 -4.5 1.5 q-2.5 -0.5 -4.5 -2.5 l-5 -4 l-268 0 q4 6 7 12 q3 6 6 14 q5 12 0.5 20.5 q-4.5 8.5 -17.5 11.5 l-13 2 q-18 5 -34.5 -3.5 q-16.5 -8.5 -26.5 -24.5 q-36 -62 -95 -127 q-59 -65 -129 -119 q-15 -11 -17 -26.5 q-2 -15.5 9 -29.5 q12 -15 27.5 -17 q15.5 -2 30.5 10 q14 11 26 21 q12 10 22 21 l0 -180 q0 -39 -4 -87.5 q-4 -48.5 -15.5 -99.5 q-11.5 -51 -31 -100.5 q-19.5 -49.5 -49.5 -90.5 q-12 -15 -11 -30 q1 -15 15 -28 l1 -1 q14 -13 29.5 -13.5 q15.5 -0.5 27.5 13.5 q37 49 61 110 q24 61 36 113 l0 0 ZM286 610 q21 22 43 46.5 q22 24.5 40 49.5 l261 0 q-16 -25 -33 -49 q-17 -24 -38 -47 l-273 0 ZM574 416 l0 121 l229 0 l0 -121 l-229 0 ZM287 416 l0 121 l212 0 l0 -121 l-212 0 ZM279 215 q4 33 6 66.5 q2 33.5 2 62.5 l212 0 l0 -129 l-220 0 ZM574 215 l0 129 l229 0 l0 -129 l-229 0 Z" /><glyph glyph-name="uni2EC9" unicode="&#x2ec9;&#x8d1d;" d="M274 711 l478 0 l0 -480 q0 -19 11 -30.5 q11 -11.5 31 -11.5 q18 0 29.5 11.5 q11.5 11.5 11.5 30.5 l0 500 q0 26 -15.5 41 q-15.5 15 -41.5 15 l-527 0 q-26 0 -41 -15 q-15 -15 -15 -41 l0 -504 q0 -17 11 -28.5 q11 -11.5 28 -11.5 q18 0 29 11.5 q11 11.5 11 28.5 l0 484 l0 0 ZM556 430 l0 176 q0 20 -11 31 q-11 11 -31 11 q-19 0 -30.5 -11 q-11.5 -11 -11.5 -31 l0 -175 q0 -50 -10.5 -110 q-10.5 -60 -47.5 -121 q-37 -61 -106.5 -118 q-69.5 -57 -187.5 -100 q-18 -7 -24.5 -20.5 q-6.5 -13.5 1.5 -31.5 q8 -16 22.5 -22.5 q14.5 -6.5 32.5 0.5 q130 50 209 116.5 q79 66.5 122.5 137 q43.5 70.5 58 140.5 q14.5 70 14.5 128 l0 0 ZM891 -11 q-28 17 -61.5 37 q-33.5 20 -70 40 q-36.5 20 -74 39 q-37.5 19 -71.5 34 q-14 7 -29 3 q-15 -4 -25 -16 q-10 -13 -7 -25 q3 -12 17 -18 q30 -14 60 -30.5 q30 -16.5 61 -34.5 l10 -6 q39 -22 76 -45 q37 -23 66 -43 q15 -11 31 -8 q16 3 27 17 q11 15 8 30 q-3 15 -18 26 l0 0 Z" /><glyph glyph-name="uni2ECB" unicode="&#x2ecb;&#x8f66;" d="M598 98 l313 0 q18 0 29 11.5 q11 11.5 11 29.5 q0 18 -11 29 q-11 11 -29 11 l-313 0 l0 153 l230 0 q18 0 28 10.5 q10 10.5 10 28.5 q0 17 -10 27.5 q-10 10.5 -28 10.5 l-230 0 l0 115 q0 18 -11.5 29 q-11.5 11 -28.5 11 q-17 0 -28.5 -11 q-11.5 -11 -11.5 -29 l0 -115 l-246 0 q26 36 50.5 81.5 q24.5 45.5 48.5 94.5 l5 9 l12 24 l507 0 q17 0 27.5 11 q10.5 11 10.5 28 q0 18 -10.5 28 q-10.5 10 -27.5 10 l-468 0 q9 18 19 38 q10 20 19 40 q8 20 1 35 q-7 15 -28 22 q-20 7 -36.5 -2 q-16.5 -9 -22.5 -29 q-8 -27 -16 -53 q-8 -26 -18 -51 l-215 0 q-17 0 -28 -10 q-11 -10 -11 -28 q0 -17 11 -28 q11 -11 28 -11 l177 0 q-23 -46 -45.5 -84 q-22.5 -38 -34.5 -54 q-10 -17 -20 -32 q-10 -15 -20 -26 q-10 -11 -13.5 -26.5 q-3.5 -15.5 4.5 -33.5 q8 -17 24 -26 q16 -9 36 -7 q12 2 27 2.5 q15 0.5 32 0.5 l221 0 l0 -153 l-401 0 q-19 0 -30 -11 q-11 -11 -11 -29 q0 -18 11 -29.5 q11 -11.5 30 -11.5 l401 0 l0 -163 q0 -17 11.5 -28 q11.5 -11 28.5 -11 q17 0 28.5 11 q11.5 11 11.5 28 l0 163 l0 0 Z" /><glyph glyph-name="uni2ED3" unicode="&#x2ed3;&#x957f;" d="M583 49 l0 0 q-2 18 -12.5 26 q-10.5 8 -26.5 3 l-197 -53 l0 347 l148 0 q26 -70 65.5 -134.5 q39.5 -64.5 89.5 -120.5 q50 -56 111 -101 q61 -45 132 -75 q17 -9 32.5 -1.5 q15.5 7.5 23.5 24.5 q8 18 1.5 31.5 q-6.5 13.5 -23.5 20.5 q-59 24 -112 62 q-53 38 -98 84.5 q-45 46.5 -81.5 100 q-36.5 53.5 -61.5 109.5 l340 0 q18 0 28.5 10.5 q10.5 10.5 10.5 28.5 q0 17 -10.5 28 q-10.5 11 -28.5 11 l-567 0 l0 342 q0 18 -11 29.5 q-11 11.5 -30 11.5 q-18 0 -29.5 -11.5 q-11.5 -11.5 -11.5 -29.5 l0 -342 l-156 0 q-18 0 -28.5 -11 q-10.5 -11 -10.5 -28 q0 -18 10.5 -28.5 q10.5 -10.5 28.5 -10.5 l156 0 l0 -331 q0 -13 -4 -23.5 q-4 -10.5 -10 -18.5 q-10 -13 -14 -28 q-4 -15 5 -30 q8 -16 23 -20.5 q15 -4.5 31 2.5 q28 10 86 29 q58 19 170 49 q16 5 24.5 18 q8.5 13 6.5 30 l0 0 ZM812 799 l-2 1 q-17 7 -34.5 3 q-17.5 -4 -32.5 -18 q-28 -28 -62.5 -57 q-34.5 -29 -72.5 -55 q-38 -26 -77 -49 q-39 -23 -77 -41 q-18 -9 -23 -23.5 q-5 -14.5 5 -31.5 q10 -17 26.5 -22 q16.5 -5 34.5 4 q43 24 87.5 51.5 q44.5 27.5 87 58 q42.5 30.5 81 63.5 q38.5 33 69.5 67 q15 14 11 27.5 q-4 13.5 -21 21.5 l0 0 Z" /><glyph glyph-name="uni2ED4" unicode="&#x2ed4;&#x95e8;" d="M331 691 q-12 15 -25.5 31.5 q-13.5 16.5 -27.5 34.5 l-8 9 q-10 12 -20 23.5 q-10 11.5 -20 22.5 q-11 12 -27 14 q-16 2 -30 -6 q-14 -8 -16 -21.5 q-2 -13.5 9 -26.5 q25 -30 52 -64 q27 -34 47 -63 q10 -15 25 -18.5 q15 -3.5 31 7.5 q15 11 18 27 q3 16 -8 30 l0 0 ZM870 -88 q25 9 38 32.5 q13 23.5 13 59.5 l0 742 q0 26 -15.5 41.5 q-15.5 15.5 -41.5 15.5 l-457 0 q-18 0 -29 -11.5 q-11 -11.5 -11 -28.5 q0 -18 11 -29 q11 -11 29 -11 l433 0 l0 -719 q0 -13 -6 -20 q-6 -7 -20 -8 q-11 -1 -46 -1 q-35 0 -73 1 q-17 0 -27.5 -10 q-10.5 -10 -8.5 -27 q1 -18 12.5 -28.5 q11.5 -10.5 28.5 -11.5 q62 0 105.5 2.5 q43.5 2.5 64.5 10.5 l0 0 ZM148 642 q-18 0 -29 -11 q-11 -11 -11 -30 l0 -663 q0 -19 11 -30 q11 -11 29 -11 q19 0 30 11 q11 11 11 30 l0 663 q0 19 -11 30 q-11 11 -30 11 l0 0 Z" /><glyph glyph-name="uni2ED8" unicode="&#x2ed8;&#x9752;" d="M918 519 l-370 0 l0 67 l272 0 q15 0 23.5 8.5 q8.5 8.5 8.5 22.5 q0 15 -8.5 23.5 q-8.5 8.5 -23.5 8.5 l-272 0 l0 58 l314 0 q15 0 24 9 q9 9 9 23 q0 15 -9 24 q-9 9 -24 9 l-314 0 l0 34 q0 14 -9.5 23.5 q-9.5 9.5 -23.5 9.5 l-9 0 q-16 0 -25 -9.5 q-9 -9.5 -9 -23.5 l0 -34 l-299 0 q-14 0 -23.5 -9 q-9.5 -9 -9.5 -24 q0 -14 9.5 -23 q9.5 -9 23.5 -9 l299 0 l0 -58 l-265 0 q-14 0 -23 -8.5 q-9 -8.5 -9 -23.5 q0 -14 9 -22.5 q9 -8.5 23 -8.5 l265 0 l0 -67 l-366 0 q-14 0 -23 -9 q-9 -9 -9 -24 q0 -14 9 -23 q9 -9 23 -9 l812 0 q14 0 23 9 q9 9 9 23 q0 15 -9 24 q-9 9 -23 9 l0 0 ZM294 72 l442 0 l0 -86 q0 -11 -4.5 -16 q-4.5 -5 -16.5 -5 l-12 0 l-77 0 q-16 0 -24 -9 q-8 -9 -6 -25 l2 -25 q1 -3 3 -5 q2 -2 5 -2 l7 0 q61 0 100 2 q39 2 60 10 q22 7 32.5 26 q10.5 19 10.5 49 l0 355 q0 26 -15.5 41 q-15.5 15 -40.5 15 l-488 0 q-25 0 -40.5 -15 q-15.5 -15 -15.5 -41 l0 -409 q0 -17 11 -27.5 q11 -10.5 28 -10.5 q17 0 28 10.5 q11 10.5 11 27.5 l0 140 l0 0 ZM294 263 l0 70 l442 0 l0 -70 l-442 0 ZM294 131 l0 73 l442 0 l0 -73 l-442 0 Z" /><glyph glyph-name="uni2EDA" unicode="&#x2eda;&#x9875;" d="M269 522 l493 0 l0 -360 q0 -20 11.5 -31.5 q11.5 -11.5 31.5 -11.5 q18 0 30 11.5 q12 11.5 12 31.5 l0 379 q0 25 -15.5 40.5 q-15.5 15.5 -40.5 15.5 l-297 0 q13 25 27 53 q14 28 26 59 l360 0 q18 0 28 10 q10 10 10 27 q0 18 -10 28 q-10 10 -28 10 l-781 0 q-17 0 -27.5 -10 q-10.5 -10 -10.5 -28 q0 -17 10.5 -27 q10.5 -10 27.5 -10 l333 0 q-8 -26 -20 -56.5 q-12 -30.5 -23 -55.5 l-171 0 q-26 0 -41.5 -15.5 q-15.5 -15.5 -15.5 -40.5 l0 -383 q0 -19 11.5 -30 q11.5 -11 29.5 -11 q18 0 29 11 q11 11 11 30 l0 364 l0 0 ZM556 278 l0 146 q0 18 -11 29.5 q-11 11.5 -30 11.5 q-19 0 -30.5 -11.5 q-11.5 -11.5 -11.5 -29.5 l0 -145 q0 -37 -13.5 -79.5 q-13.5 -42.5 -51.5 -84 q-38 -41.5 -109 -78.5 q-71 -37 -185 -64 q-17 -4 -23.5 -15.5 q-6.5 -11.5 -1.5 -28.5 q5 -16 18 -23.5 q13 -7.5 30 -3.5 q131 31 212.5 76.5 q81.5 45.5 127.5 96 q46 50.5 62.5 103 q16.5 52.5 16.5 100.5 l0 0 ZM907 -18 q-27 18 -61 39 q-34 21 -70.5 42 q-36.5 21 -73 41 q-36.5 20 -70.5 36 q-15 7 -30 3.5 q-15 -3.5 -25 -15.5 q-11 -13 -8 -25 q3 -12 18 -19 q34 -16 70.5 -37.5 q36.5 -21.5 72.5 -43.5 q36 -22 68.5 -45 q32.5 -23 59.5 -41 q14 -11 30.5 -8.5 q16.5 2.5 27.5 16.5 q12 15 9.5 30 q-2.5 15 -18.5 27 l0 0 Z" /><glyph glyph-name="uni2EDB" unicode="&#x2edb;&#x98ce;" d="M257 712 l508 0 q0 -185 4 -334 q4 -149 17.5 -253.5 q13.5 -104.5 40 -160.5 q26.5 -56 72.5 -56 q36 0 55 43.5 q19 43.5 26 136.5 q1 13 -6 23 q-7 10 -20 14 q-12 4 -19.5 -1.5 q-7.5 -5.5 -8.5 -19.5 q-1 -19 -3 -39 q-2 -20 -5 -36.5 q-3 -16.5 -6.5 -26.5 q-3.5 -10 -7.5 -10 q-19 0 -31.5 42.5 q-12.5 42.5 -19 119 q-6.5 76.5 -9 182 q-2.5 105.5 -2.5 231.5 l0 23 q0 36 0.5 71.5 q0.5 35.5 0.5 73.5 q0 26 -15.5 41.5 q-15.5 15.5 -41.5 15.5 l-555 0 q-25 0 -40.5 -15.5 q-15.5 -15.5 -15.5 -41.5 l0 -245 q0 -51 -4 -116 q-4 -65 -15.5 -133 q-11.5 -68 -31 -134.5 q-19.5 -66.5 -50.5 -121.5 q-11 -18 -7.5 -35 q3.5 -17 19.5 -29 q15 -11 31.5 -8.5 q16.5 2.5 26.5 19.5 q33 59 55 133 q22 74 35 150.5 q13 76.5 18 148 q5 71.5 5 126.5 l0 222 l0 0 ZM525 276 q36 -52 68 -106.5 q32 -54.5 55 -98.5 q10 -18 26 -22.5 q16 -4.5 34 5.5 q16 11 20.5 26.5 q4.5 15.5 -5.5 33.5 q-30 51 -69.5 114 q-39.5 63 -84.5 119 q20 35 37 73.5 q17 38.5 32 79.5 l3 9 l4 10 q4 9 7 19 q3 10 6 20 l4 6 q1 2 1 3 q0 1 1 3 q2 9 4.5 15.5 q2.5 6.5 5.5 14.5 q5 14 -1.5 26 q-6.5 12 -22.5 16 l-2 1 q-16 4 -29 -3 q-13 -7 -18 -24 q-17 -51 -36.5 -104.5 q-19.5 -53.5 -44.5 -99.5 q-10 13 -20 26.5 q-10 13.5 -20 26.5 l-6 8 q-21 29 -42.5 56.5 q-21.5 27.5 -42.5 53.5 q-10 13 -26 16 q-16 3 -30 -5 q-16 -8 -18.5 -20.5 q-2.5 -12.5 8.5 -25.5 q17 -21 33.5 -43.5 q16.5 -22.5 33.5 -45.5 l6 -8 l6 -10 l16 -20 l9 -13 l6 -9 q11 -14 21.5 -29 q10.5 -15 20.5 -29 q-40 -63 -87 -125.5 q-47 -62.5 -95 -105.5 q-14 -14 -17 -29.5 q-3 -15.5 10 -31.5 q12 -16 28.5 -18 q16.5 -2 30.5 11 q39 36 76 84 q37 48 71 98 l5 9 q8 12 14.5 22 q6.5 10 13.5 21 l0 0 Z" /><glyph glyph-name="uni2EE8" unicode="&#x2ee8;&#x9ea6;" d="M514 25 q77 -39 177 -72.5 q100 -33.5 214 -50.5 q18 -2 31 7 q13 9 18 26 q4 19 -5 30.5 q-9 11.5 -26 14.5 q-85 11 -172 35.5 q-87 24.5 -156 54.5 q60 35 113 89 q53 54 90 113 q7 12 4 23.5 q-3 11.5 -16 19.5 l-20 13 q-3 2 -6.5 2.5 q-3.5 0.5 -5.5 -1.5 l-8 -3 l-340 0 q19 17 33.5 38 q14.5 21 28.5 40 l457 0 q15 0 24.5 10 q9.5 10 9.5 25 q0 16 -9.5 25.5 q-9.5 9.5 -24.5 9.5 l-377 0 l0 79 l276 0 q15 0 24 9 q9 9 9 25 q0 14 -9 23.5 q-9 9.5 -24 9.5 l-276 0 l0 70 l332 0 q15 0 24.5 10 q9.5 10 9.5 25 q0 15 -9.5 25 q-9.5 10 -24.5 10 l-332 0 l0 41 q0 16 -10.5 26.5 q-10.5 10.5 -26.5 10.5 q-17 0 -27.5 -10.5 q-10.5 -10.5 -10.5 -26.5 l0 -41 l-321 0 q-16 0 -25.5 -10 q-9.5 -10 -9.5 -25 q0 -15 9.5 -25 q9.5 -10 25.5 -10 l321 0 l0 -70 l-262 0 q-15 0 -24.5 -9.5 q-9.5 -9.5 -9.5 -23.5 q0 -16 9.5 -25 q9.5 -9 24.5 -9 l262 0 l0 -79 l-373 0 q-15 0 -24.5 -9.5 q-9.5 -9.5 -9.5 -25.5 q0 -15 9.5 -25 q9.5 -10 24.5 -10 l271 0 q-20 -23 -48 -49.5 q-28 -26.5 -61.5 -53.5 q-33.5 -27 -71 -51.5 q-37.5 -24.5 -78.5 -44.5 q-16 -8 -20.5 -21.5 q-4.5 -13.5 4.5 -27.5 q8 -16 23 -20.5 q15 -4.5 31 3.5 q40 21 76.5 44.5 q36.5 23.5 66.5 44.5 q30 -43 66 -85.5 q36 -42.5 81 -71.5 q-72 -31 -159 -56.5 q-87 -25.5 -167 -39.5 q-18 -2 -26 -13.5 q-8 -11.5 -4 -29.5 q4 -17 16.5 -25.5 q12.5 -8.5 29.5 -5.5 q100 19 200.5 52 q100.5 33 183.5 72 l0 0 ZM355 261 l340 0 q-32 -42 -78 -83 q-46 -41 -100 -68 q-51 27 -91.5 68 q-40.5 41 -70.5 83 l0 0 Z" /><glyph glyph-name="uni2EF0" unicode="&#x2ef0;&#x9f99;" d="M428 527 l111 0 l0 -381 l-43 -30 l-9 -6 l-9 -7 q-27 -19 -55 -37 q-28 -18 -55 -32 q-16 -8 -21 -22 q-5 -14 3 -30 q8 -17 22.5 -22 q14.5 -5 30.5 3 q38 21 72 44 q34 23 64 44 q0 -32 6 -55 q6 -23 24 -38 q18 -15 50.5 -22.5 q32.5 -7.5 86.5 -7.5 l96 0 q43 0 72 8.5 q29 8.5 48.5 25 q19.5 16.5 30.5 43 q11 26.5 16 62.5 q2 17 -7.5 29.5 q-9.5 12.5 -26.5 15.5 q-17 3 -28.5 -6.5 q-11.5 -9.5 -13.5 -26.5 q-5 -39 -24 -57 q-19 -18 -70 -18 l-89 0 q-35 0 -54 2 q-19 2 -28.5 7.5 q-9.5 5.5 -11 15.5 q-1.5 10 -1.5 25 l0 59 q37 29 72 65 q35 36 66 75.5 q31 39.5 60 81.5 q29 42 53 82 q10 14 5.5 27 q-4.5 13 -19.5 21 q-15 7 -29.5 2.5 q-14.5 -4.5 -23.5 -18.5 q-38 -63 -84.5 -126 q-46.5 -63 -99.5 -112 l0 316 l300 0 q18 0 28 11 q10 11 10 28 q0 18 -10 28 q-10 10 -28 10 l-479 0 q2 21 3.5 42.5 q1.5 21.5 3.5 43.5 l1 10 q2 20 4 39 q2 19 3 39 l1 7 l0 7 q0 3 0.5 6 q0.5 3 0.5 6 l1 9 l0 4 l0 8 q0 5 -2.5 8 q-2.5 3 -8.5 3 l-29 2 q-18 0 -30 -11 q-12 -11 -13 -28 q-2 -51 -1 -101 q1 -50 -4 -94 l-260 0 q-17 0 -27.5 -10 q-10.5 -10 -10.5 -28 q0 -17 10.5 -28 q10.5 -11 27.5 -11 l248 0 q-10 -82 -31 -158 q-21 -76 -53 -143 q-32 -67 -76 -122.5 q-44 -55.5 -101 -95.5 q-17 -11 -20.5 -27.5 q-3.5 -16.5 7.5 -33.5 q11 -17 27.5 -20.5 q16.5 -3.5 32.5 7.5 q65 49 113.5 112.5 q48.5 63.5 83.5 139.5 q35 76 57 162 q22 86 34 179 l0 0 ZM807 697 q-15 12 -33 25.5 q-18 13.5 -37 28.5 l-9 7 q-13 10 -26.5 19.5 q-13.5 9.5 -25.5 19.5 q-12 9 -27 8.5 q-15 -0.5 -26 -10.5 q-12 -11 -12 -22.5 q0 -11.5 13 -21.5 q9 -8 18.5 -15.5 q9.5 -7.5 20.5 -15.5 l13 -11 l8 -8 q18 -14 35.5 -28.5 q17.5 -14.5 33.5 -26.5 q13 -11 28.5 -10.5 q15.5 0.5 27.5 12.5 q12 11 11.5 24.5 q-0.5 13.5 -13.5 24.5 l0 0 Z" /><glyph glyph-name="uni2F00" unicode="&#x2f00;&#x4e00;" d="M926 434 l-824 0 q-20 0 -32.5 -12 q-12.5 -12 -12.5 -33 q0 -20 12.5 -32.5 q12.5 -12.5 32.5 -12.5 l824 0 q20 0 32.5 12.5 q12.5 12.5 12.5 32.5 q0 21 -12.5 33 q-12.5 12 -32.5 12 l0 0 Z" /><glyph glyph-name="uni2F06" unicode="&#x2f06;&#x4e8c;" d="M824 698 l-623 0 q-21 0 -32.5 -11.5 q-11.5 -11.5 -11.5 -32.5 q0 -20 11.5 -32 q11.5 -12 32.5 -12 l623 0 q21 0 32.5 12 q11.5 12 11.5 32 q0 21 -11.5 32.5 q-11.5 11.5 -32.5 11.5 l0 0 ZM910 94 l-795 0 q-21 0 -33 -12 q-12 -12 -12 -33 q0 -20 12 -32.5 q12 -12.5 33 -12.5 l795 0 q21 0 33 12.5 q12 12.5 12 32.5 q0 21 -12 33 q-12 12 -33 12 l0 0 Z" /><glyph glyph-name="uni2F08" unicode="&#x2f08;&#x4eba;" d="M512 480 q16 -62 46 -140 q30 -78 75 -155 q45 -77 107.5 -147 q62.5 -70 145.5 -117 q17 -10 33.5 -4.5 q16.5 5.5 26.5 23.5 q9 17 3.5 33 q-5.5 16 -22.5 25 q-74 41 -129.5 100.5 q-55.5 59.5 -96.5 127 q-41 67.5 -68.5 138 q-27.5 70.5 -45 133.5 q-17.5 63 -26.5 114 q-9 51 -12 77 q2 27 3.5 53 q1.5 26 2.5 49 q1 20 -11.5 32.5 q-12.5 12.5 -32.5 12.5 q-21 0 -33 -12.5 q-12 -12.5 -13 -32.5 q-1 -46 -6.5 -109.5 q-5.5 -63.5 -19.5 -136 q-14 -72.5 -38 -150.5 q-24 -78 -64 -151.5 q-40 -73.5 -97.5 -139 q-57.5 -65.5 -136.5 -112.5 q-17 -11 -21 -26 q-4 -15 7 -33 q10 -17 26.5 -21 q16.5 -4 34.5 6 q80 50 141 119 q61 69 105 145.5 q44 76.5 72.5 154 q28.5 77.5 43.5 144.5 l0 0 Z" /><glyph glyph-name="uni2F0A" unicode="&#x2f0a;&#x5165;" d="M527 489 q21 -35 40 -75 q19 -40 39 -82 l3 -7 q1 -1 1 -2 q0 -1 1 -2 l4 -8 l7 -13 q8 -15 15 -30.5 q7 -15.5 15 -29.5 l5 -10 l5 -9 q44 -83 99 -158 q55 -75 131 -129 q18 -13 34 -7 q16 6 24 27 l1 1 q8 20 3.5 38.5 q-4.5 18.5 -21.5 32.5 q-77 55 -128.5 126.5 q-51.5 71.5 -94.5 151.5 l-5 9 q-5 8 -8 14 q-3 6 -7 13 l-3 7 q-1 1 -1 2 q0 1 -1 2 l-4 7 l-6 14 l-5 9 l-4 9 l-10 18 q-25 52 -51.5 103 q-26.5 51 -58 100 q-31.5 49 -68.5 95 q-37 46 -84 85 q-14 12 -30.5 9.5 q-16.5 -2.5 -27.5 -18.5 q-11 -16 -8.5 -32 q2.5 -16 16.5 -28 q36 -29 66 -62.5 q30 -33.5 55 -69.5 q-22 -93 -55 -181 q-33 -88 -78.5 -165 q-45.5 -77 -102 -139.5 q-56.5 -62.5 -124.5 -105.5 q-17 -11 -21 -27.5 q-4 -16.5 8 -33.5 q11 -18 29 -22 q18 -4 36 7 q67 46 124 108 q57 62 103 135 q46 73 82 154.5 q36 81.5 61 168.5 l0 0 Z" /><glyph glyph-name="uni2F0B" unicode="&#x2f0b;&#x516b;" d="M959 -2 q-25 49 -50 105.5 q-25 56.5 -49 116.5 l-5 11 q-8 20 -14.5 39.5 q-6.5 19.5 -15.5 38.5 l-4 13 q-23 62 -44 122.5 q-21 60.5 -38.5 113.5 q-17.5 53 -31 96.5 q-13.5 43.5 -21.5 72.5 q-5 17 -19.5 27.5 q-14.5 10.5 -31.5 9.5 q-19 -2 -26.5 -13.5 q-7.5 -11.5 -2.5 -28.5 q11 -36 28 -92 q17 -56 41 -124 l5 -17 q11 -32 22.5 -65.5 q11.5 -33.5 23.5 -69.5 l5 -12 q3 -8 6 -17.5 q3 -9.5 6 -17.5 l5 -12 q7 -17 13.5 -35 q6.5 -18 13.5 -37 l4 -11 q2 -5 3.5 -9 q1.5 -4 3.5 -9 l5 -12 q26 -66 53.5 -128.5 q27.5 -62.5 56.5 -118.5 q9 -17 22.5 -18 q13.5 -1 26.5 13 l2 3 q13 14 14.5 32 q1.5 18 -7.5 33 l0 0 ZM364 739 l0 1 q-22 2 -35.5 -10 q-13.5 -12 -15.5 -34 q-5 -82 -17.5 -169.5 q-12.5 -87.5 -36.5 -174.5 l-3 -10 q-28 -103 -71.5 -194.5 q-43.5 -91.5 -107.5 -155.5 q-14 -15 -14.5 -29.5 q-0.5 -14.5 13.5 -29.5 l1 0 q12 -14 28 -15.5 q16 -1.5 30 11.5 q48 47 86 109 q38 62 66.5 132 q28.5 70 49.5 145.5 q21 75.5 36 152.5 l2 10 q3 18 6 34.5 q3 16.5 5 34.5 l2 10 q3 20 5.5 38.5 q2.5 18.5 4.5 38.5 l1 10 q2 11 3 23 q1 12 2 23 q3 21 -8.5 34 q-11.5 13 -31.5 15 l0 0 Z" /><glyph glyph-name="uni2F0F" unicode="&#x2f0f;&#x51e0;" d="M353 475 l0 226 l297 0 l0 -646 q0 -69 28.5 -101.5 q28.5 -32.5 102.5 -32.5 l57 0 q35 0 60 13.5 q25 13.5 40 40.5 q15 27 24 67.5 q9 40.5 13 95.5 q1 18 -9.5 30.5 q-10.5 12.5 -27.5 15.5 q-18 3 -29 -6.5 q-11 -9.5 -12 -26.5 q-3 -77 -14.5 -113.5 q-11.5 -36.5 -45.5 -36.5 l-49 0 q-37 0 -46 12 q-9 12 -9 42 l0 671 q0 26 -15.5 41 q-15.5 15 -40.5 15 l-350 0 q-26 0 -41.5 -15 q-15.5 -15 -15.5 -41 l0 -250 q0 -53 -6.5 -118 q-6.5 -65 -26 -131 q-19.5 -66 -53.5 -128.5 q-34 -62.5 -89 -111.5 q-14 -14 -16.5 -30 q-2.5 -16 9.5 -33 q12 -15 29 -17 q17 -2 31 11 q63 55 102.5 128 q39.5 73 62.5 148.5 q23 75.5 31.5 149 q8.5 73.5 8.5 131.5 l0 0 Z" /><glyph glyph-name="uni2F11" unicode="&#x2f11;&#x5200;" d="M484 652 l345 0 q-9 -297 -25 -454.5 q-16 -157.5 -41 -187.5 l-4 -4 q-7 -8 -16 -11.5 q-9 -3.5 -21 -2.5 l-6 0 l-3 0 q-17 0 -45 0 q-28 0 -60 2 q-18 1 -29.5 -10.5 q-11.5 -11.5 -10.5 -30.5 q0 -19 12.5 -31 q12.5 -12 30.5 -13 q43 -2 78.5 -2.5 q35.5 -0.5 56.5 1.5 q29 3 52.5 15 q23.5 12 42.5 34 q15 19 27 71 q12 52 20.5 140.5 q8.5 88.5 14.5 217.5 q6 129 12 302 q0 4 0.5 10.5 q0.5 6.5 0.5 12.5 q0 10 -6 16 q-6 6 -16 6 l-753 0 q-18 0 -29.5 -11 q-11.5 -11 -11.5 -29 q0 -18 11.5 -29.5 q11.5 -11.5 29.5 -11.5 l261 0 q-4 -81 -16 -175.5 q-12 -94.5 -44 -186 q-32 -91.5 -88.5 -172 q-56.5 -80.5 -149.5 -132.5 q-17 -11 -22 -26.5 q-5 -15.5 5 -33.5 q9 -17 26 -22.5 q17 -5.5 34 5.5 q89 52 148 125.5 q59 73.5 96.5 157.5 q37.5 84 57 174 q19.5 90 27.5 174 l1 9 l1 9 q2 25 3.5 48.5 q1.5 23.5 2.5 45.5 l0 0 Z" /><glyph glyph-name="uni2F12" unicode="&#x2f12;&#x529b;&#xf98a;" d="M496 545 l333 0 q-14 -252 -33 -386 q-19 -134 -44 -158 q-9 -8 -19.5 -12 q-10.5 -4 -25.5 -4 q-14 0 -41.5 0.5 q-27.5 0.5 -58.5 2.5 q-18 2 -29.5 -9 q-11.5 -11 -10.5 -29 q0 -19 11.5 -30.5 q11.5 -11.5 29.5 -12.5 q41 -2 74.5 -3 q33.5 -1 53.5 1 q27 3 49.5 13 q22.5 10 38.5 31 q16 17 29 63.5 q13 46.5 24.5 124 q11.5 77.5 20.5 188 q9 110.5 16 257.5 q0 3 0.5 9 q0.5 6 0.5 11 q1 10 -4.5 16 q-5.5 6 -15.5 6 l-392 0 l0 171 q0 19 -11.5 30.5 q-11.5 11.5 -30.5 11.5 q-20 0 -31 -11.5 q-11 -11.5 -11 -30.5 l0 -171 l-281 0 q-18 0 -29 -11 q-11 -11 -11 -28 q0 -19 11 -29.5 q11 -10.5 29 -10.5 l277 0 q-5 -63 -22 -137 q-17 -74 -52 -149.5 q-35 -75.5 -91 -146.5 q-56 -71 -139 -128 q-17 -12 -20.5 -27.5 q-3.5 -15.5 7.5 -32.5 q12 -16 28.5 -19.5 q16.5 -3.5 33.5 7.5 q95 65 157.5 145.5 q62.5 80.5 100.5 165 q38 84.5 56 167.5 q18 83 22 155 l0 0 Z" /><glyph glyph-name="uni2F17" unicode="&#x2f17;&#x5341;" d="M555 385 l368 0 q18 0 29.5 11.5 q11.5 11.5 11.5 30.5 q0 18 -11.5 29.5 q-11.5 11.5 -29.5 11.5 l-368 0 l0 327 q0 19 -11.5 30.5 q-11.5 11.5 -30.5 11.5 q-19 0 -30.5 -11.5 q-11.5 -11.5 -11.5 -30.5 l0 -327 l-359 0 q-20 0 -31 -11.5 q-11 -11.5 -11 -29.5 q0 -19 11 -30.5 q11 -11.5 31 -11.5 l359 0 l0 -445 q0 -20 11.5 -31 q11.5 -11 30.5 -11 q19 0 30.5 11 q11.5 11 11.5 31 l0 445 l0 0 Z" /><glyph glyph-name="uni2F1C" unicode="&#x2f1c;&#x53c8;" d="M514 144 q74 -66 170 -127.5 q96 -61.5 212 -99.5 q18 -6 33.5 2 q15.5 8 22.5 26 q6 17 -1 31.5 q-7 14.5 -25 19.5 q-99 32 -191.5 87 q-92.5 55 -164.5 117 q47 45 89.5 102.5 q42.5 57.5 79.5 124.5 q37 67 67.5 140.5 q30.5 73.5 51.5 151.5 q3 13 -2.5 24.5 q-5.5 11.5 -16.5 17.5 l-23 10 q-2 1 -5 1 q-3 0 -5 -1 l-5 -3 l-649 0 q-18 0 -28.5 -11 q-10.5 -11 -10.5 -28 q0 -17 10.5 -28 q10.5 -11 28.5 -11 l42 0 l2 -5 l3 -10 q22 -68 49 -134 q27 -66 59 -127 q32 -61 69 -115 q37 -54 79 -99 q-76 -62 -168.5 -115.5 q-92.5 -53.5 -185.5 -86.5 q-18 -6 -25 -21 q-7 -15 1 -32 q7 -19 22.5 -26.5 q15.5 -7.5 33.5 -0.5 q105 39 203 99.5 q98 60.5 178 126.5 l0 0 ZM274 690 l491 0 q-39 -128 -104.5 -241 q-65.5 -113 -148.5 -193 q-40 42 -75 92 q-35 50 -64.5 106.5 q-29.5 56.5 -54 116.5 q-24.5 60 -44.5 119 l0 0 Z" /><glyph glyph-name="uni2F1D" unicode="&#x2f1d;&#x53e3;" d="M828 738 l-628 0 q-26 0 -41.5 -15 q-15.5 -15 -15.5 -41 l0 -634 q0 -25 15.5 -40.5 q15.5 -15.5 41.5 -15.5 l628 0 q26 0 41.5 15.5 q15.5 15.5 15.5 40.5 l0 634 q0 26 -15.5 41 q-15.5 15 -41.5 15 l0 0 ZM225 74 l0 581 l574 0 l0 -581 l-574 0 Z" /><glyph glyph-name="uni2F20" unicode="&#x2f20;&#x58eb;" d="M865 38 l-315 0 l0 406 l370 0 q17 0 28 11.5 q11 11.5 11 28.5 q0 18 -11 29 q-11 11 -28 11 l-370 0 l0 271 q0 18 -11.5 29.5 q-11.5 11.5 -29.5 11.5 q-19 0 -30 -11.5 q-11 -11.5 -11 -29.5 l0 -271 l-363 0 q-17 0 -28 -11 q-11 -11 -11 -29 q0 -17 11 -28.5 q11 -11.5 28 -11.5 l363 0 l0 -406 l-303 0 q-19 0 -30 -11.5 q-11 -11.5 -11 -29.5 q0 -17 11 -28.5 q11 -11.5 30 -11.5 l700 0 q18 0 29 11.5 q11 11.5 11 28.5 q0 18 -11 29.5 q-11 11.5 -29 11.5 l0 0 Z" /><glyph glyph-name="uni2F24" unicode="&#x2f24;&#x5927;" d="M511 418 q27 -75 62.5 -148.5 q35.5 -73.5 81.5 -139 q46 -65.5 101 -120.5 q55 -55 118 -93 q19 -11 37 -5 q18 6 28 25 q9 19 3 36 q-6 17 -24 27 q-59 33 -111 83.5 q-52 50.5 -96 113 q-44 62.5 -78.5 133 q-34.5 70.5 -58.5 142.5 l337 0 q19 0 30 11.5 q11 11.5 11 30.5 q0 18 -11 29.5 q-11 11.5 -30 11.5 l-369 0 q8 61 11 123 q3 62 4 117 q1 19 -10.5 31 q-11.5 12 -31.5 12 q-20 0 -32 -12 q-12 -12 -13 -31 q-1 -54 -2 -116.5 q-1 -62.5 -9 -123.5 l-341 0 q-20 0 -31 -11.5 q-11 -11.5 -11 -29.5 q0 -19 11 -30.5 q11 -11.5 31 -11.5 l328 0 q-13 -63 -40 -132 q-27 -69 -69 -133.5 q-42 -64.5 -99.5 -121 q-57.5 -56.5 -133.5 -96.5 q-17 -9 -22 -24 q-5 -15 5 -33 q9 -17 25.5 -22 q16.5 -5 33.5 4 q80 43 141 103 q61 60 105 127.5 q44 67.5 73.5 138 q29.5 70.5 45.5 135.5 l0 0 Z" /><glyph glyph-name="uni2F26" unicode="&#x2f26;&#x5b50;" d="M505 -87 q26 8 38.5 31.5 q12.5 23.5 12.5 59.5 l0 311 l369 0 q17 0 28.5 11.5 q11.5 11.5 11.5 29.5 q0 18 -11.5 29 q-11.5 11 -28.5 11 l-369 0 l0 103 q37 18 76.5 42 q39.5 24 78.5 50.5 q39 26.5 75 55.5 q36 29 67 56 q12 12 11.5 25.5 q-0.5 13.5 -13.5 25.5 l-24 18 q-3 2 -7 3 q-4 1 -8 0 l-9 -3 l-598 0 q-18 0 -28.5 -10.5 q-10.5 -10.5 -10.5 -28.5 q0 -17 10.5 -28 q10.5 -11 28.5 -11 l514 0 q-43 -34 -100.5 -71 q-57.5 -37 -111.5 -66 q-14 -7 -23.5 -21 q-9.5 -14 -9.5 -30 l0 -110 l-369 0 q-18 0 -29 -11 q-11 -11 -11 -29 q0 -18 11 -29.5 q11 -11.5 29 -11.5 l369 0 l0 -310 q0 -12 -5 -17.5 q-5 -5.5 -19 -6.5 q-13 -1 -45.5 -2 q-32.5 -1 -70.5 1 q-20 0 -30 -11 q-10 -11 -8 -30 q2 -19 14 -30 q12 -11 31 -11 q60 1 100 4 q40 3 64 11 l0 0 Z" /><glyph glyph-name="uni2F28" unicode="&#x2f28;&#x5bf8;" d="M659 -88 q30 8 45 35 q15 27 15 71 l0 532 l201 0 q17 0 28 11 q11 11 11 30 q0 17 -11 28.5 q-11 11.5 -28 11.5 l-201 -1 l0 167 q0 18 -11.5 29.5 q-11.5 11.5 -29.5 11.5 q-20 0 -31 -11.5 q-11 -11.5 -11 -29.5 l0 -167 l-531 0 q-17 0 -28 -11.5 q-11 -11.5 -11 -28.5 q0 -18 11 -29 q11 -11 28 -11 l531 0 l0 -533 q0 -16 -3 -23.5 q-3 -7.5 -21 -8.5 q-14 -1 -54.5 -1 q-40.5 0 -86.5 1 l-12 0 q-5 0 -10.5 0.5 q-5.5 0.5 -10.5 0.5 q-9 0 -14 -6 q-5 -6 -4 -15 l2 -25 q2 -21 15.5 -33 q13.5 -12 33.5 -12 q69 1 116 5 q47 4 72 12 l0 0 ZM423 233 q-27 46 -66.5 98.5 q-39.5 52.5 -77.5 96.5 q-13 13 -30 15 q-17 2 -32 -7 q-16 -9 -17.5 -22.5 q-1.5 -13.5 9.5 -27.5 q39 -46 77.5 -100 q38.5 -54 63.5 -98 q9 -17 24 -21 q15 -4 33 6 q16 10 20.5 26.5 q4.5 16.5 -4.5 33.5 l0 0 Z" /><glyph glyph-name="uni2F29" unicode="&#x2f29;&#x5c0f;" d="M508 -88 q24 9 38 33.5 q14 24.5 14 64.5 l0 771 q0 20 -11.5 31.5 q-11.5 11.5 -31.5 11.5 q-20 0 -32 -11.5 q-12 -11.5 -12 -31.5 l0 -771 q0 -14 -5.5 -21 q-5.5 -7 -21.5 -7 q-10 -1 -39.5 -1.5 q-29.5 -0.5 -64.5 0.5 q-19 0 -29.5 -11 q-10.5 -11 -8.5 -30 q2 -20 14 -31 q12 -11 31 -11 q59 0 97.5 3 q38.5 3 61.5 11 l0 0 ZM976 190 q-14 50 -39 109 q-25 59 -54 121 l-5 10 q-18 36 -37 71.5 q-19 35.5 -37 66.5 q-9 17 -25.5 22 q-16.5 5 -34.5 -2 q-17 -7 -21.5 -21 q-4.5 -14 4.5 -30 q15 -28 30.5 -58 q15.5 -30 29.5 -61 l6 -10 q30 -68 56.5 -133.5 q26.5 -65.5 40.5 -118.5 q6 -21 20.5 -28.5 q14.5 -7.5 33.5 0.5 q20 8 29 25 q9 17 3 37 l0 0 ZM263 588 q-20 4 -34.5 -6 q-14.5 -10 -19.5 -30 q-9 -41 -22.5 -87.5 q-13.5 -46.5 -30.5 -91.5 q-17 -45 -37.5 -87.5 q-20.5 -42.5 -42.5 -76.5 q-11 -16 -9 -32 q2 -16 17 -27 q15 -12 31.5 -10 q16.5 2 26.5 18 q26 39 49 85.5 q23 46.5 43 96 q20 49.5 36 99.5 q16 50 27 96 q5 20 -4 34 q-9 14 -30 19 l0 0 Z" /><glyph glyph-name="uni2F2F" unicode="&#x2f2f;&#x5de5;" d="M921 61 l-371 0 l0 583 l317 0 q20 0 31 11.5 q11 11.5 11 30.5 q0 20 -11 31 q-11 11 -31 11 l-706 0 q-20 0 -31 -11 q-11 -11 -11 -31 q0 -19 11 -30.5 q11 -11.5 31 -11.5 l308 0 l0 -583 l-363 0 q-18 0 -29 -11 q-11 -11 -11 -30 q0 -18 11 -29 q11 -11 29 -11 l815 0 q18 0 29.5 11 q11.5 11 11.5 29 q0 19 -11.5 30 q-11.5 11 -29.5 11 l0 0 Z" /><glyph glyph-name="uni2F30" unicode="&#x2f30;&#x5df1;" d="M927 180 q-20 2 -32 -7 q-12 -9 -14 -29 q-5 -39 -16.5 -66.5 q-11.5 -27.5 -36 -44.5 q-24.5 -17 -65.5 -24.5 q-41 -7.5 -106 -7.5 l-184 0 q-74 0 -117.5 3.5 q-43.5 3.5 -67 12 q-23.5 8.5 -30.5 21.5 q-7 13 -7 32 l0 291 l529 0 q26 0 41.5 15.5 q15.5 15.5 15.5 41.5 l0 307 q0 26 -15.5 41 q-15.5 15 -41.5 15 l-583 0 q-19 0 -30 -11 q-11 -11 -11 -29 q0 -18 11 -29.5 q11 -11.5 30 -11.5 l557 0 l0 -260 l-527 15 q-26 1 -42 -14.5 q-16 -15.5 -16 -42.5 l0 -328 q0 -40 14 -69 q14 -29 48.5 -46.5 q34.5 -17.5 94 -26 q59.5 -8.5 149.5 -8.5 l182 0 q84 0 139.5 12.5 q55.5 12.5 90 38 q34.5 25.5 51.5 65.5 q17 40 25 95 q3 20 -7.5 33 q-10.5 13 -28.5 16 l0 0 Z" /><glyph glyph-name="uni2F32" unicode="&#x2f32;&#x5e72;" d="M550 352 l365 0 q20 0 31 11.5 q11 11.5 11 30.5 q0 20 -11 31 q-11 11 -31 11 l-365 0 l0 249 l319 0 q19 0 30 11.5 q11 11.5 11 30.5 q0 18 -11 29.5 q-11 11.5 -30 11.5 l-707 0 q-20 0 -31 -11.5 q-11 -11.5 -11 -29.5 q0 -19 11 -30.5 q11 -11.5 31 -11.5 l304 0 l0 -249 l-356 0 q-20 0 -31 -11 q-11 -11 -11 -31 q0 -19 11 -30.5 q11 -11.5 31 -11.5 l356 0 l0 -411 q0 -20 11 -31 q11 -11 31 -11 q19 0 30.5 11 q11.5 11 11.5 31 l0 411 l0 0 Z" /><glyph glyph-name="uni2F34" unicode="&#x2f34;&#x5e7f;" d="M243 399 l0 211 l668 0 q18 0 28.5 11 q10.5 11 10.5 28 q0 18 -10.5 28.5 q-10.5 10.5 -28.5 10.5 l-334 0 l17 6 q7 3 10.5 9.5 q3.5 6.5 1.5 14.5 q-5 18 -13 39.5 q-8 21.5 -16 43.5 q-9 17 -24.5 25 q-15.5 8 -33.5 3 q-18 -4 -25 -16.5 q-7 -12.5 0 -30.5 q10 -25 18.5 -50 q8.5 -25 13.5 -44 l-312 0 q-26 0 -41 -15.5 q-15 -15.5 -15 -40.5 l0 -233 q0 -43 -3 -96 q-3 -53 -12.5 -109.5 q-9.5 -56.5 -26 -111 q-16.5 -54.5 -41.5 -100.5 q-10 -18 -7 -35 q3 -17 17 -30 q1 -1 1 -1 l0 0 q15 -14 30.5 -12.5 q15.5 1.5 25.5 18.5 q30 50 49 113 q19 63 30.5 128 q11.5 65 16.5 127 q5 62 5 109 l0 0 Z" /><glyph glyph-name="uni2F3C" unicode="&#x2f3c;&#x5fc3;" d="M650 612 q-21 21 -49.5 44.5 q-28.5 23.5 -58.5 46.5 l-8 8 q-25 19 -50 37.5 q-25 18.5 -48 34.5 q-14 11 -30 9 q-16 -2 -28 -14 q-12 -12 -11 -25.5 q1 -13.5 15 -24.5 q17 -12 34.5 -25.5 q17.5 -13.5 36.5 -27.5 l8 -7 q37 -30 71 -59.5 q34 -29.5 61 -55.5 q13 -13 28.5 -13 q15.5 0 29.5 13 q14 13 14 29.5 q0 16.5 -15 29.5 l0 0 ZM754 198 q-19 3 -29.5 -7 q-10.5 -10 -12.5 -27 q-3 -46 -9 -78.5 q-6 -32.5 -18.5 -53 q-12.5 -20.5 -35 -29.5 q-22.5 -9 -58.5 -9 l-92 0 q-38 0 -58.5 3 q-20.5 3 -31 10 q-10.5 7 -12.5 18 q-2 11 -2 27 l0 472 q0 19 -11 30 q-11 11 -30 11 q-19 0 -30.5 -11 q-11.5 -11 -11.5 -30 l0 -470 q0 -36 7.5 -61.5 q7.5 -25.5 28 -42.5 q20.5 -17 56 -25 q35.5 -8 92.5 -8 l97 0 q54 0 89.5 14 q35.5 14 57.5 42.5 q22 28.5 33 72.5 q11 44 17 106 q2 17 -8.5 30 q-10.5 13 -27.5 16 l0 0 ZM968 167 q-11 39 -26 85 q-15 46 -33 94 l-4 11 l-6 16 l-4 10 l-4 10 l-4 10 q-8 21 -16 40 q-8 19 -16 37 q-8 17 -23 22.5 q-15 5.5 -31 -0.5 q-18 -7 -23.5 -21 q-5.5 -14 1.5 -31 q11 -24 21 -49.5 q10 -25.5 20 -52.5 l4 -10 l2 -8 q1 -2 1 -3 q0 -1 1 -3 l3 -8 q5 -9 8 -18.5 q3 -9.5 6 -19.5 q1 -3 1 -4 q0 -1 1 -3 l3 -7 q11 -35 21 -67 q10 -32 17 -61 q5 -19 18.5 -26.5 q13.5 -7.5 30.5 0.5 q17 7 26.5 22 q9.5 15 4.5 35 l0 0 ZM191 483 q-17 3 -30 -6 q-13 -9 -15 -26 q-5 -36 -12.5 -77 q-7.5 -41 -17.5 -82 q-10 -41 -20.5 -80.5 q-10.5 -39.5 -21.5 -73.5 q-6 -17 0.5 -33 q6.5 -16 23.5 -23 q18 -8 33 -1.5 q15 6.5 22 24.5 q13 42 25 93.5 q12 51.5 23 103.5 l2 7 q1 2 1 3 q0 1 1 3 q5 32 10 63 q5 31 10 57 q3 18 -6.5 31 q-9.5 13 -27.5 17 l0 0 Z" /><glyph glyph-name="uni2F3E" unicode="&#x2f3e;&#x6237;" d="M263 323 l535 0 q25 0 40.5 15 q15.5 15 15.5 41 l0 251 q0 25 -15.5 40.5 q-15.5 15.5 -40.5 15.5 l-257 0 l23 9 q10 4 14.5 12.5 q4.5 8.5 0.5 19.5 q-8 17 -16.5 38 q-8.5 21 -17.5 42 q-8 16 -23.5 23.5 q-15.5 7.5 -33.5 2.5 l-11 -5 q-12 -3 -16.5 -12 q-4.5 -9 0.5 -21 q3 -5 5.5 -11.5 q2.5 -6.5 5.5 -12.5 q1 -1 1 -2 q0 -1 1 -2 l4 -7 q8 -21 16 -39.5 q8 -18.5 13 -34.5 l-265 0 q-26 0 -41.5 -15.5 q-15.5 -15.5 -15.5 -40.5 l0 -162 q0 -49 -4.5 -112.5 q-4.5 -63.5 -17 -130 q-12.5 -66.5 -35 -131.5 q-22.5 -65 -56.5 -119 q-12 -16 -8.5 -31 q3.5 -15 18.5 -26 l1 -1 q15 -11 31 -9.5 q16 1.5 27 17.5 q29 43 50.5 96 q21.5 53 36.5 106 q15 53 23.5 104.5 q8.5 51.5 11.5 91.5 l0 0 ZM265 398 q2 26 2.5 41 q0.5 15 0.5 26 l0 145 l504 0 l0 -212 l-507 0 Z" /><glyph glyph-name="uni2F3F" unicode="&#x2f3f;&#x624b;" d="M500 -85 q26 8 39.5 32 q13.5 24 13.5 62 l0 233 l370 0 q17 0 28.5 11 q11.5 11 11.5 29 q0 17 -11.5 28.5 q-11.5 11.5 -28.5 11.5 l-370 0 l0 159 l313 0 q18 0 28.5 11 q10.5 11 10.5 28 q0 18 -10.5 28.5 q-10.5 10.5 -28.5 10.5 l-313 0 l0 154 q8 1 17 2 q9 1 18 2 q4 0 6 1 l7 1 q59 8 115 18.5 q56 10.5 104 22.5 q20 5 23.5 18 q3.5 13 -10.5 27 l-7 6 q-11 11 -27 15.5 q-16 4.5 -31 0.5 q-37 -9 -82 -17.5 q-45 -8.5 -95 -16 q-50 -7.5 -104.5 -13.5 q-54.5 -6 -108.5 -11 l-11 -1 q-7 0 -12.5 -0.5 q-5.5 -0.5 -11.5 -1.5 l-11 -1 q-8 0 -16.5 -0.5 q-8.5 -0.5 -16.5 -1.5 l-11 -1 q-7 -1 -14 -1 q-7 0 -14 -1 l-11 -1 l-74 -4 q-17 -1 -26 -11.5 q-9 -10.5 -7 -26.5 q2 -18 12.5 -27 q10.5 -9 27.5 -8 q22 1 44.5 2 q22.5 1 45.5 3 l11 1 q4 0 8 0.5 q4 0.5 9 0.5 l6 0 l7 1 l11 1 l5 0 l10 1 q36 3 69 6 q33 3 66 7 l0 -146 l-303 0 q-17 0 -28 -10.5 q-11 -10.5 -11 -28.5 q0 -17 11 -28 q11 -11 28 -11 l303 0 l0 -159 l-372 0 q-17 0 -28.5 -11.5 q-11.5 -11.5 -11.5 -28.5 q0 -18 11.5 -29 q11.5 -11 28.5 -11 l372 0 l0 -231 q0 -14 -6.5 -21 q-6.5 -7 -22.5 -8 l-4 0 q-10 -1 -27.5 -1 q-17.5 0 -39.5 0 l-12 0 l-45 0 q-18 0 -28 -11 q-10 -11 -8 -29 q2 -18 13.5 -29 q11.5 -11 30.5 -11 q66 0 108.5 3 q42.5 3 66.5 11 l0 0 Z" /><glyph glyph-name="uni2F40" unicode="&#x2f40;&#x652f;" d="M513 50 q74 -46 172 -84 q98 -38 212 -59 q18 -4 33 5.5 q15 9.5 20 28.5 q5 19 -4 32 q-9 13 -27 16 q-89 14 -175.5 45 q-86.5 31 -155.5 66 q77 52 140 131 q63 79 106 168 q6 15 1.5 28 q-4.5 13 -16.5 22 l-23 14 q-2 2 -5.5 2 q-3.5 0 -6.5 -1 l-6 -3 l-229 0 l0 147 l341 0 q17 0 28.5 11.5 q11.5 11.5 11.5 28.5 q0 18 -11.5 29 q-11.5 11 -28.5 11 l-341 0 l0 110 q0 17 -11.5 28.5 q-11.5 11.5 -28.5 11.5 q-17 0 -28.5 -11.5 q-11.5 -11.5 -11.5 -28.5 l0 -110 l-337 0 q-17 0 -28.5 -11 q-11.5 -11 -11.5 -29 q0 -17 11.5 -28.5 q11.5 -11.5 28.5 -11.5 l337 0 l0 -147 l-292 0 q-17 0 -28 -10.5 q-11 -10.5 -11 -27.5 q0 -17 11 -28 q11 -11 28 -11 l66 0 l-7 -5 q-5 -3 -6 -6.5 q-1 -3.5 1 -7.5 q39 -77 93 -147 q54 -70 118 -118 q-28 -14 -59.5 -27.5 q-31.5 -13.5 -64.5 -25.5 l-9 -4 q-12 -5 -25 -8.5 q-13 -3.5 -25 -8.5 l-10 -3 q-37 -12 -74 -22 q-37 -10 -73 -17 q-19 -4 -27 -17 q-8 -13 -3 -32 q5 -18 18.5 -27 q13.5 -9 33.5 -5 q109 23 208.5 62.5 q99.5 39.5 180.5 84.5 l0 0 ZM309 384 l422 0 q-38 -69 -92.5 -132.5 q-54.5 -63.5 -122.5 -106.5 q-67 43 -120 107.5 q-53 64.5 -87 131.5 l0 0 Z" /><glyph glyph-name="uni2F42" unicode="&#x2f42;&#x6587;" d="M104 587 l121 0 q9 -23 18 -45 q9 -22 19 -45 q2 -4 2 -4 l4 -8 q38 -83 85 -158.5 q47 -75.5 105 -133.5 q-71 -60 -163.5 -114 q-92.5 -54 -193.5 -88 q-19 -7 -26 -21.5 q-7 -14.5 0 -32.5 q7 -19 22.5 -26.5 q15.5 -7.5 33.5 -0.5 q114 42 210 102.5 q96 60.5 170 124.5 q73 -65 171 -125.5 q98 -60.5 211 -98.5 q19 -7 34.5 1 q15.5 8 22.5 27 q6 18 -1.5 32.5 q-7.5 14.5 -25.5 20.5 q-47 14 -94.5 36 q-47.5 22 -92 48 q-44.5 26 -85.5 55.5 q-41 29.5 -77 59.5 q70 73 127.5 176 q57.5 103 98.5 218 l126 0 q17 0 28 10.5 q11 10.5 11 29.5 q0 17 -11 28 q-11 11 -28 11 l-401 0 l35 11 q15 5 20.5 17 q5.5 12 -1.5 26 q-11 19 -21.5 41 q-10.5 22 -21.5 43 q-10 17 -26.5 24.5 q-16.5 7.5 -36.5 1.5 l-9 -3 q-14 -4 -19.5 -14.5 q-5.5 -10.5 1.5 -25.5 l16 -30 l5 -9 q23 -49 38 -82 l-401 0 q-18 0 -28.5 -11 q-10.5 -11 -10.5 -28 q0 -19 10.5 -29.5 q10.5 -10.5 28.5 -10.5 l0 0 ZM306 587 l406 0 q-34 -94 -84.5 -183.5 q-50.5 -89.5 -115.5 -153.5 q-34 34 -63 74 q-29 40 -54.5 84 q-25.5 44 -47.5 89.5 q-22 45.5 -41 89.5 l0 0 Z" /><glyph glyph-name="uni2F45" unicode="&#x2f45;&#x65b9;" d="M410 358 l348 0 q-13 -160 -29 -251.5 q-16 -91.5 -38 -110.5 q-8 -6 -17 -8.5 q-9 -2.5 -27 -2.5 q-13 0 -40.5 0.5 q-27.5 0.5 -58.5 2.5 l-12 0 l-20 1 q-9 1 -14.5 -4 q-5.5 -5 -4.5 -15 l1 -19 q0 -18 11 -29 q11 -11 29 -12 q45 -2 80.5 -3 q35.5 -1 56.5 1 q27 2 48.5 11 q21.5 9 39.5 28 q28 27 47 138 q19 111 33 312 q1 3 1.5 9 q0.5 6 0.5 11 q1 8 -4.5 13.5 q-5.5 5.5 -14.5 5.5 l-395 0 q3 22 3.5 46 q0.5 24 -0.5 47 l0 11 q0 12 0 25 q0 13 1 25 l472 0 q18 0 28 10 q10 10 10 28 q0 17 -10 27.5 q-10 10.5 -28 10.5 l-382 0 l37 14 q18 6 24 19.5 q6 13.5 -2 29.5 q-9 19 -18.5 39 q-9.5 20 -19.5 40 q-9 16 -25 22 q-16 6 -34 -2 q-17 -8 -21.5 -21.5 q-4.5 -13.5 3.5 -30.5 q15 -30 29 -60.5 q14 -30.5 20 -49.5 l-397 0 q-18 0 -28 -10.5 q-10 -10.5 -10 -27.5 q0 -18 10 -28 q10 -10 28 -10 l239 0 q-3 -77 -14.5 -163.5 q-11.5 -86.5 -39.5 -169 q-28 -82.5 -76.5 -154 q-48.5 -71.5 -125.5 -119.5 q-16 -11 -20 -25.5 q-4 -14.5 6 -32.5 q9 -16 25.5 -20.5 q16.5 -4.5 32.5 6.5 q61 39 105 91.5 q44 52.5 75 111.5 q31 59 51 121.5 q20 62.5 31 121.5 l0 0 Z" /><glyph glyph-name="uni2F46" unicode="&#x2f46;&#x65e0;" d="M502 400 l18 0 l0 -353 q0 -32 7 -55.5 q7 -23.5 25.5 -38.5 q18.5 -15 52.5 -23 q34 -8 88 -8 l94 0 q48 0 80 11 q32 11 52.5 33.5 q20.5 22.5 32 57.5 q11.5 35 16.5 86 q2 17 -8.5 30 q-10.5 13 -27.5 16 q-19 3 -29.5 -7 q-10.5 -10 -12.5 -27 q-3 -33 -8 -56 q-5 -23 -17 -37.5 q-12 -14.5 -31 -20.5 q-19 -6 -49 -6 l-88 0 q-34 0 -53 2.5 q-19 2.5 -28.5 7.5 q-9.5 5 -11 14 q-1.5 9 -1.5 21 l0 353 l319 0 q17 0 28 11 q11 11 11 29 q0 18 -11 28.5 q-11 10.5 -28 10.5 l-405 0 q3 18 5 37 q2 19 3 38 l1 10 q2 33 3 66.5 q1 33.5 3 62.5 l331 0 q18 0 28.5 11 q10.5 11 10.5 29 q0 18 -10.5 28.5 q-10.5 10.5 -28.5 10.5 l-693 0 q-18 0 -29 -10.5 q-11 -10.5 -11 -28.5 q0 -18 11 -29 q11 -11 29 -11 l286 0 q-2 -50 -6.5 -106 q-4.5 -56 -12.5 -108 l-332 0 q-18 0 -28.5 -10.5 q-10.5 -10.5 -10.5 -28.5 q0 -18 10.5 -29 q10.5 -11 28.5 -11 l320 0 q-14 -56 -40 -115.5 q-26 -59.5 -65.5 -115.5 q-39.5 -56 -94 -104.5 q-54.5 -48.5 -125.5 -80.5 q-17 -9 -22 -23 q-5 -14 3 -32 q8 -16 23 -22 q15 -6 32 2 q85 40 147.5 97 q62.5 57 106.5 123 q44 66 71 136 q27 70 41 135 l0 0 Z" /><glyph glyph-name="uni2F47" unicode="&#x2f47;&#x65e5;" d="M783 772 l-533 0 q-26 0 -41 -15.5 q-15 -15.5 -15 -40.5 l0 -698 q0 -25 15 -40.5 q15 -15.5 41 -15.5 l533 0 q26 0 41.5 15.5 q15.5 15.5 15.5 40.5 l0 698 q0 25 -15.5 40.5 q-15.5 15.5 -41.5 15.5 l0 0 ZM275 425 l0 265 l481 0 l0 -265 l-481 0 ZM275 42 l0 306 l481 0 l0 -306 l-481 0 Z" /><glyph glyph-name="uni2F49" unicode="&#x2f49;&#x6708;" d="M280 225 l464 0 l0 -209 q0 -16 -6 -23 q-6 -7 -22 -8 l-48 0 l-11 0 l-69 0 q-20 1 -30 -10.5 q-10 -11.5 -8 -30.5 q2 -20 13.5 -31 q11.5 -11 31.5 -11 q68 1 112 4 q44 3 67 11 q27 8 40.5 34 q13.5 26 13.5 64 l0 716 q0 26 -15 41 q-15 15 -41 15 l-492 0 q-26 0 -41.5 -15 q-15.5 -15 -15.5 -41 l0 -252 q0 -53 -5.5 -117.5 q-5.5 -64.5 -22 -131 q-16.5 -66.5 -45.5 -130.5 q-29 -64 -76 -115 q-13 -15 -13 -29.5 q0 -14.5 15 -29.5 l0 -1 q14 -13 29.5 -14 q15.5 -1 27.5 13 q29 31 52.5 69 q23.5 38 42 77.5 q18.5 39.5 31.5 79 q13 39.5 21 75.5 l0 0 ZM302 548 l0 158 l442 0 l0 -158 l-442 0 ZM295 303 q5 40 6 82 q1 42 1 78 l0 9 l442 0 l0 -169 l-449 0 Z" /><glyph glyph-name="uni2F4C" unicode="&#x2f4c;&#x6b62;" d="M919 31 l-330 0 l0 395 l283 0 q18 0 29 11.5 q11 11.5 11 29.5 q0 17 -11 28.5 q-11 11.5 -29 11.5 l-283 0 l0 288 q0 18 -11.5 29.5 q-11.5 11.5 -29.5 11.5 q-19 0 -30 -11.5 q-11 -11.5 -11 -29.5 l0 -764 l-220 0 l0 551 q0 18 -11.5 29.5 q-11.5 11.5 -29.5 11.5 q-19 0 -30 -11.5 q-11 -11.5 -11 -29.5 l0 -551 l-103 0 q-17 0 -28.5 -11.5 q-11.5 -11.5 -11.5 -28.5 q0 -18 11.5 -29 q11.5 -11 28.5 -11 l817 0 q17 0 28 11 q11 11 11 29 q0 17 -11 28.5 q-11 11.5 -28 11.5 l0 0 Z" /><glyph glyph-name="uni2F50" unicode="&#x2f50;&#x6bd4;" d="M913 230 q-18 3 -29.5 -6.5 q-11.5 -9.5 -12.5 -26.5 q-2 -51 -7 -87 q-5 -36 -15 -59.5 q-10 -23.5 -28 -35 q-18 -11.5 -46 -11.5 l-69 0 q-29 0 -45.5 3.5 q-16.5 3.5 -23.5 11.5 q-7 8 -8.5 21.5 q-1.5 13.5 -1.5 33.5 l0 303 q67 38 140 85.5 q73 47.5 133 95.5 q18 13 18.5 31.5 q0.5 18.5 -14.5 35.5 q-15 15 -33.5 15.5 q-18.5 0.5 -34.5 -14.5 q-44 -40 -100.5 -85 q-56.5 -45 -108.5 -81 l0 333 q0 19 -11.5 30.5 q-11.5 11.5 -30.5 11.5 q-20 0 -31 -11.5 q-11 -11.5 -11 -30.5 l0 -716 q0 -40 6 -68.5 q6 -28.5 23.5 -47 q17.5 -18.5 48 -28 q30.5 -9.5 79.5 -9.5 l77 0 q47 0 78.5 16 q31.5 16 51 48 q19.5 32 29.5 81.5 q10 49.5 14 114.5 q1 18 -9 30.5 q-10 12.5 -28 15.5 l0 0 ZM469 77 l0 1 q-2 18 -12.5 26 q-10.5 8 -27.5 1 l-201 -67 l0 416 l205 0 q18 0 29 11 q11 11 11 29 q0 17 -11 28.5 q-11 11.5 -29 11.5 l-205 0 l0 253 q0 19 -11 30 q-11 11 -30 11 q-19 0 -30.5 -11 q-11.5 -11 -11.5 -30 l0 -729 q0 -17 -5 -31 q-5 -14 -13 -25 q-10 -14 -11.5 -30 q-1.5 -16 9.5 -30 q11 -15 26 -18 q15 -3 31 5 q27 14 85 36.5 q58 22.5 168 58.5 q18 6 27 20.5 q9 14.5 7 32.5 l0 0 Z" /><glyph glyph-name="uni2F53" unicode="&#x2f53;&#x6c14;" d="M282 657 l621 0 q16 0 25 9.5 q9 9.5 9 25.5 q0 16 -9 25 q-9 9 -25 9 l-588 0 q7 12 13 25.5 q6 13.5 11 27.5 q8 18 0.5 31.5 q-7.5 13.5 -25.5 18.5 q-17 6 -32 -2.5 q-15 -8.5 -22 -25.5 q-32 -83 -81 -162 q-49 -79 -101 -135 q-13 -15 -13 -30 q0 -15 14 -29 q14 -14 30.5 -13.5 q16.5 0.5 28.5 14.5 q39 47 77 101 q38 54 67 110 l0 0 ZM826 593 l-520 0 q-15 0 -25 -10 q-10 -10 -10 -25 q0 -15 10 -25 q10 -10 25 -10 l520 0 q16 0 25.5 10 q9.5 10 9.5 25 q0 15 -9.5 25 q-9.5 10 -25.5 10 l0 0 ZM945 100 q-14 2 -22 -4 q-8 -6 -9 -19 q-2 -39 -8 -69.5 q-6 -30.5 -17 -30.5 q-25 0 -43.5 35 q-18.5 35 -31 91.5 q-12.5 56.5 -20.5 128.5 q-8 72 -12 146 l-1 13 q-1 8 -1 15 q0 7 0 15 q-1 13 -9 21.5 q-8 8.5 -21 8.5 l-545 0 q-17 0 -26.5 -10 q-9.5 -10 -9.5 -26 q0 -17 9.5 -26.5 q9.5 -9.5 26.5 -9.5 l496 0 q6 -92 17 -178.5 q11 -86.5 32.5 -153.5 q21.5 -67 55 -108 q33.5 -41 80.5 -41 q39 0 59.5 41.5 q20.5 41.5 26.5 123.5 q2 14 -6 24 q-8 10 -21 13 l0 0 Z" /><glyph glyph-name="uni2F55" unicode="&#x2f55;&#x706b;" d="M503 319 q24 -67 60 -129 q36 -62 83.5 -115 q47.5 -53 108 -95 q60.5 -42 135.5 -68 q18 -7 33.5 1 q15.5 8 21.5 27 q6 18 -1.5 32.5 q-7.5 14.5 -25.5 19.5 q-73 24 -134.5 69 q-61.5 45 -109.5 105 q-48 60 -83 132.5 q-35 72.5 -54 150.5 q6 38 9 80.5 q3 42.5 5 86.5 l1 8 l0 6 l0 8 q1 10 1 20.5 q0 10.5 1 20.5 l0 11 q1 19 1 36.5 q0 17.5 1 36.5 l0 10 l0 28 q0 11 -7.5 18.5 q-7.5 7.5 -19.5 7.5 l-51 0 q-5 0 -7.5 -2.5 q-2.5 -2.5 -2.5 -6.5 l0 -10 l0 -10 l0 -11 l0 -5 l-1 -10 l0 -5 l0 -15 l0 -21 l0 -10 l-1 -7 l0 -6 l0 -8 l0 -10 l0 -10 q-1 -9 -1 -18 q0 -9 -1 -18 l0 -10 q-5 -99 -21 -196.5 q-16 -97.5 -54.5 -183.5 q-38.5 -86 -105 -156 q-66.5 -70 -170.5 -116 q-18 -9 -23.5 -22.5 q-5.5 -13.5 2.5 -31.5 q8 -16 23 -22.5 q15 -6.5 32 1.5 q76 34 135 81 q59 47 102 101.5 q43 54.5 72 113.5 q29 59 47 116 l0 0 ZM269 631 q-17 6 -31 -1.5 q-14 -7.5 -19 -26.5 q-16 -54 -40.5 -112 q-24.5 -58 -54.5 -103 q-11 -16 -8 -30.5 q3 -14.5 20 -22.5 q18 -8 35 -5 q17 3 29 19 q31 47 56.5 109 q25.5 62 41.5 119 q5 18 -3 33 q-8 15 -26 21 l0 0 ZM879 624 q-20 8 -35.5 0.5 q-15.5 -7.5 -23.5 -26.5 q-8 -20 -17.5 -43.5 q-9.5 -23.5 -21.5 -46.5 l-4 -10 q-14 -32 -29 -62 q-15 -30 -27 -57 q-7 -13 -2.5 -25.5 q4.5 -12.5 17.5 -18.5 q14 -7 27 -3.5 q13 3.5 21 15.5 q16 26 33 56 q17 30 33 62 l5 10 q12 23 23.5 46 q11.5 23 22.5 44 q8 19 2.5 34.5 q-5.5 15.5 -24.5 24.5 l0 0 Z" /><glyph glyph-name="uni2F57" unicode="&#x2f57;&#x7236;" d="M924 561 q-24 26 -52 55.5 q-28 29.5 -58 61.5 l-8 8 q-5 5 -9.5 10 q-4.5 5 -10.5 11 l-8 8 l-7 8 q-20 20 -40 40.5 q-20 20.5 -39 39.5 q-13 13 -30 14.5 q-17 1.5 -31 -8.5 q-16 -10 -17.5 -24 q-1.5 -14 11.5 -27 q15 -17 30.5 -33.5 q15.5 -16.5 31.5 -34.5 l8 -8 q12 -11 21.5 -23 q9.5 -12 20.5 -23 l7 -8 q30 -32 56.5 -61.5 q26.5 -29.5 48.5 -55.5 q14 -15 32 -18 q18 -3 35 9 q18 11 20 28 q2 17 -12 31 l0 0 ZM384 812 q-18 6 -35 0 q-17 -6 -28 -21 q-42 -61 -98.5 -119.5 q-56.5 -58.5 -111.5 -103.5 q-17 -13 -19 -30.5 q-2 -17.5 11 -34.5 q14 -18 32 -19.5 q18 -1.5 34 13.5 q30 26 60.5 57.5 q30.5 31.5 60.5 65.5 l7 8 q29 32 55.5 66 q26.5 34 48.5 68 q12 15 6 29.5 q-6 14.5 -23 20.5 l0 0 ZM516 133 q71 -65 164 -125 q93 -60 208 -96 q19 -6 35.5 2.5 q16.5 8.5 23.5 28.5 q7 20 -1 35 q-8 15 -27 21 q-97 29 -187 81.5 q-90 52.5 -158 113.5 q54 58 97 138 q43 80 75 166 q8 19 0 34 q-8 15 -26 21 q-20 6 -35 -2 q-15 -8 -22 -27 q-28 -77 -65.5 -147.5 q-37.5 -70.5 -84.5 -122.5 q-48 53 -84 122 q-36 69 -63 141 q-8 18 -22 25 q-14 7 -32 2 q-18 -6 -24.5 -20.5 q-6.5 -14.5 0.5 -31.5 q4 -12 8 -21.5 q4 -9.5 9 -20.5 l4 -11 q30 -69 67 -133.5 q37 -64.5 81 -114.5 q-69 -61 -161 -114.5 q-92 -53.5 -195 -86.5 q-19 -7 -26.5 -22 q-7.5 -15 0.5 -35 q7 -18 23 -26 q16 -8 35 -1 q115 41 213 101.5 q98 60.5 170 125.5 l0 0 Z" /><glyph glyph-name="uni2F5A" unicode="&#x2f5a;&#x7247;" d="M265 262 l405 0 l0 -321 q0 -20 11.5 -31.5 q11.5 -11.5 31.5 -11.5 q19 0 31 11.5 q12 11.5 12 31.5 l0 348 q0 25 -15.5 40.5 q-15.5 15.5 -41.5 15.5 l-423 0 l4 65 l0 10 q0 14 0.5 28.5 q0.5 14.5 0.5 27.5 l0 26 l591 0 q18 0 29 11 q11 11 11 30 q0 17 -11 28.5 q-11 11.5 -29 11.5 l-237 0 l0 212 q0 18 -12 30 q-12 12 -30 12 q-20 0 -31.5 -12 q-11.5 -12 -11.5 -30 l0 -212 l-269 0 l0 187 q0 20 -11.5 31 q-11.5 11 -30.5 11 q-20 0 -31 -11 q-11 -11 -11 -31 l0 -290 q0 -57 -5 -121 q-5 -64 -17.5 -128 q-12.5 -64 -35.5 -125 q-23 -61 -59 -112 q-12 -17 -10.5 -33.5 q1.5 -16.5 15.5 -31.5 l0 -1 q14 -14 30 -14.5 q16 -0.5 28 15.5 q26 36 46.5 78 q20.5 42 36 85.5 q15.5 43.5 25 86.5 q9.5 43 14.5 83 l0 0 Z" /><glyph glyph-name="uni2F5B" unicode="&#x2f5b;&#x7259;" d="M673 -87 q22 8 33.5 31.5 q11.5 23.5 11.5 57.5 l0 366 l192 0 q18 0 28 10 q10 10 10 28 q0 17 -10 27 q-10 10 -28 10 l-192 0 l0 264 l142 0 q18 0 29 11 q11 11 11 28 q0 18 -11 29 q-11 11 -29 11 l-685 0 q-17 0 -28.5 -11 q-11.5 -11 -11.5 -29 q0 -17 11.5 -28 q11.5 -11 28.5 -11 l463 0 l0 -264 l-384 0 q11 39 23.5 87 q12.5 48 23.5 93 q4 17 -4.5 29.5 q-8.5 12.5 -26.5 14.5 q-17 2 -30.5 -7.5 q-13.5 -9.5 -18.5 -26.5 q-5 -22 -10.5 -45.5 q-5.5 -23.5 -11.5 -46.5 l-2 -11 q-7 -23 -13 -45 q-6 -22 -12 -44 q-10 -32 4.5 -52.5 q14.5 -20.5 50.5 -20.5 l333 0 q-41 -44 -95 -91 q-54 -47 -114.5 -90 q-60.5 -43 -123 -79.5 q-62.5 -36.5 -119.5 -61.5 q-18 -8 -24 -22.5 q-6 -14.5 2 -31.5 q8 -18 24.5 -24.5 q16.5 -6.5 33.5 1.5 q68 31 137.5 75.5 q69.5 44.5 134 96.5 q64.5 52 122 107.5 q57.5 55.5 100.5 109.5 l0 -360 q0 -10 -2 -15.5 q-2 -5.5 -13 -7.5 q-11 2 -38 2 q-27 0 -58 0 q-18 1 -29 -10 q-11 -11 -9 -29 q3 -18 14.5 -29 q11.5 -11 30.5 -11 q52 0 85.5 3.5 q33.5 3.5 53.5 11.5 l0 0 Z" /><glyph glyph-name="uni2F60" unicode="&#x2f60;&#x74dc;" d="M272 677 q43 4 89.5 8.5 q46.5 4.5 89.5 9.5 l0 -154 q0 -54 -2.5 -117 q-2.5 -63 -12 -128 q-9.5 -65 -30.5 -127.5 q-21 -62.5 -58 -116.5 q-11 -15 -11 -33.5 q0 -18.5 11 -33.5 l1 -1 q11 -16 28 -20.5 q17 -4.5 35 1.5 q27 9 83 24 q56 15 158 38 q7 -20 12.5 -40 q5.5 -20 10.5 -38 q5 -18 17 -24 q12 -6 28 0 l2 1 q14 6 21 19 q7 13 1 28 q-2 9 -5 17 q-3 8 -6 17 l-3 9 q-17 53 -38.5 112.5 q-21.5 59.5 -44.5 110.5 q-6 14 -19.5 20 q-13.5 6 -27.5 1 q-14 -5 -19 -17 q-5 -12 0 -26 q11 -31 22.5 -64.5 q11.5 -33.5 23.5 -62.5 l-191 -44 q32 57 50.5 124 q18.5 67 28 134 q9.5 67 12.5 131 q3 64 3 116 l0 152 l11 3 l7 1 q4 0 6 1 l2 0 l10 1 l5 1 q2 0 5.5 0.5 q3.5 0.5 5.5 0.5 q3 0 5 1 l10 1 l10 1 q27 4 53 8 q26 4 52 8 l0 -4 l0 -4 l1 -9 l0 -13 l1 -12 l1 -17 l1 -13 q0 -3 0.5 -5.5 q0.5 -2.5 0.5 -5.5 l1 -12 l1 -12 l1 -12 q0 -4 0.5 -7.5 q0.5 -3.5 0.5 -8.5 l0 -4 l1 -9 l1 -13 l1 -11 l6 -53 l1 -11 q2 -13 2.5 -24.5 q0.5 -11.5 2.5 -23.5 l2 -11 q11 -78 25 -150.5 q14 -72.5 32.5 -137 q18.5 -64.5 41.5 -119.5 q23 -55 52 -97 q11 -16 28.5 -16.5 q17.5 -0.5 31.5 13.5 q15 15 15 32 q0 17 -12 35 q-33 47 -60 114.5 q-27 67.5 -47 148 q-20 80.5 -33 171 q-13 90.5 -22 183.5 l-1 12 l-2 12 q-2 27 -3.5 53.5 q-1.5 26.5 -3.5 52.5 q11 2 22 4.5 q11 2.5 22 4.5 q20 5 23 15.5 q3 10.5 -11 25.5 l-11 11 q-10 9 -24.5 13 q-14.5 4 -28.5 1 q-52 -11 -119.5 -21.5 q-67.5 -10.5 -142.5 -20.5 l-8 -1 l-5 0 l-3 -1 l-10 -1 l-4 0 l-9 -2 l-5 0 l-11 -2 l-12 -1 l-11 -1 q-10 -2 -19.5 -2.5 q-9.5 -0.5 -19.5 -2.5 l-11 -1 l-16 -2 l-29 -3 l-10 -1 q-21 -2 -42 -3.5 q-21 -1.5 -41 -4.5 q-24 -2 -38 -17 q-14 -15 -14 -39 l0 -150 q0 -56 -5 -127 q-5 -71 -18 -146.5 q-13 -75.5 -36 -149.5 q-23 -74 -60 -135 q-9 -16 -6.5 -31.5 q2.5 -15.5 16.5 -26.5 q1 0 1 -1 q14 -11 29 -9.5 q15 1.5 24 16.5 q40 65 66 146.5 q26 81.5 41 164.5 q15 83 21 161 q6 78 6 138 l0 137 l0 0 Z" /><glyph glyph-name="uni2F63" unicode="&#x2f63;&#x751f;" d="M920 10 l-367 0 l0 264 l281 0 q17 0 27.5 11 q10.5 11 10.5 29 q0 18 -10.5 28.5 q-10.5 10.5 -27.5 10.5 l-281 0 l0 215 l318 0 q18 0 28.5 11 q10.5 11 10.5 29 q0 18 -10.5 28.5 q-10.5 10.5 -28.5 10.5 l-318 0 l0 151 q0 17 -11.5 28.5 q-11.5 11.5 -28.5 11.5 q-17 0 -28.5 -11.5 q-11.5 -11.5 -11.5 -28.5 l0 -151 l-190 0 q11 27 22 56.5 q11 29.5 22 59.5 q5 17 -3 31 q-8 14 -26 18 q-18 4 -32.5 -4.5 q-14.5 -8.5 -20.5 -26.5 q-26 -80 -64 -157.5 q-38 -77.5 -81 -133.5 q-12 -16 -11 -32.5 q1 -16.5 16 -28.5 q16 -13 33 -11.5 q17 1.5 28 17.5 q21 31 41.5 65.5 q20.5 34.5 38.5 67.5 l227 0 l0 -215 l-253 0 q-18 0 -29 -10.5 q-11 -10.5 -11 -28.5 q0 -18 11 -29 q11 -11 29 -11 l253 0 l0 -264 l-364 0 q-19 0 -29.5 -10.5 q-10.5 -10.5 -10.5 -29.5 q0 -17 10.5 -28 q10.5 -11 29.5 -11 l811 0 q17 0 27.5 11 q10.5 11 10.5 28 q0 19 -10.5 29.5 q-10.5 10.5 -27.5 10.5 l0 0 Z" /><glyph glyph-name="uni2F64" unicode="&#x2f64;&#x7528;" d="M236 220 l242 0 l0 -276 q0 -18 11 -28 q11 -10 28 -10 q18 0 28 10 q10 10 10 28 l0 276 l261 0 l0 -212 q0 -14 -5.5 -20 q-5.5 -6 -19.5 -7 q-11 0 -43.5 -0.5 q-32.5 -0.5 -68.5 0.5 q-17 0 -27.5 -10.5 q-10.5 -10.5 -8.5 -27.5 q1 -18 12.5 -28.5 q11.5 -10.5 28.5 -11.5 q60 0 101.5 2.5 q41.5 2.5 62.5 10.5 q23 9 35.5 32.5 q12.5 23.5 12.5 57.5 l0 708 q0 25 -15.5 40.5 q-15.5 15.5 -40.5 15.5 l-615 0 q-25 0 -40.5 -15.5 q-15.5 -15.5 -15.5 -40.5 l0 -308 q0 -46 -4 -101.5 q-4 -55.5 -15 -113 q-11 -57.5 -30.5 -113 q-19.5 -55.5 -49.5 -101.5 q-12 -15 -9.5 -30 q2.5 -15 17.5 -27 l1 -1 q14 -11 28.5 -11 q14.5 0 25.5 15 q22 31 38.5 68.5 q16.5 37.5 29.5 77 q13 39.5 21.5 78 q8.5 38.5 13.5 73.5 l0 0 ZM555 539 l0 151 l261 0 l0 -151 l-261 0 ZM248 539 l0 151 l230 0 l0 -151 l-230 0 ZM246 297 q2 26 2 55.5 q0 29.5 0 53.5 l0 57 l230 0 l0 -166 l-232 0 ZM555 297 l0 166 l261 0 l0 -166 l-261 0 Z" /><glyph glyph-name="uni2F69" unicode="&#x2f69;&#x767d;" d="M810 681 l-323 0 q12 20 23.5 44.5 q11.5 24.5 23.5 49.5 q9 21 0.5 36 q-8.5 15 -30.5 20 q-23 6 -40 -5 q-17 -11 -23 -32 q-8 -29 -17.5 -58 q-9.5 -29 -21.5 -55 l-186 0 q-26 0 -41 -15.5 q-15 -15.5 -15 -40.5 l0 -613 q0 -25 15 -40.5 q15 -15.5 41 -15.5 l594 0 q26 0 41 15.5 q15 15.5 15 40.5 l0 613 q0 25 -15 40.5 q-15 15.5 -41 15.5 l0 0 ZM240 375 l0 227 l542 0 l0 -227 l-542 0 ZM240 36 l0 262 l542 0 l0 -262 l-542 0 Z" /><glyph glyph-name="uni2F6C" unicode="&#x2f6c;&#x76ee;" d="M788 777 l-558 0 q-25 0 -40.5 -15.5 q-15.5 -15.5 -15.5 -40.5 l0 -707 q0 -25 15.5 -40.5 q15.5 -15.5 40.5 -15.5 l558 0 q26 0 41.5 15.5 q15.5 15.5 15.5 40.5 l0 707 q0 25 -15.5 40.5 q-15.5 15.5 -41.5 15.5 l0 0 ZM253 545 l0 152 l509 0 l0 -152 l-509 0 ZM253 303 l0 164 l509 0 l0 -164 l-509 0 ZM253 38 l0 188 l509 0 l0 -188 l-509 0 Z" /><glyph glyph-name="uni2F6E" unicode="&#x2f6e;&#x77e2;" d="M515 271 q25 -60 60.5 -115.5 q35.5 -55.5 83 -102.5 q47.5 -47 105.5 -84 q58 -37 128 -61 q18 -7 33.5 1 q15.5 8 21.5 26 q6 19 -1.5 33 q-7.5 14 -25.5 20 q-63 19 -117.5 53 q-54.5 34 -99.5 79 q-45 45 -78.5 99.5 q-33.5 54.5 -55.5 114.5 l345 0 q18 0 29 11 q11 11 11 29 q0 17 -11 28.5 q-11 11.5 -29 11.5 l-374 0 q1 16 3 31 q2 15 2 30 l0 160 l297 0 q17 0 28 10.5 q11 10.5 11 28.5 q0 17 -11 28 q-11 11 -28 11 l-531 0 q8 14 15 32 q7 18 14 36 q7 19 -0.5 32.5 q-7.5 13.5 -27.5 19.5 q-19 4 -34 -5 q-15 -9 -21 -27 q-27 -74 -65 -144 q-38 -70 -80 -121 q-14 -15 -13 -31.5 q1 -16.5 17 -28.5 q14 -13 31.5 -11.5 q17.5 1.5 28.5 16.5 q27 34 52 74 q25 40 45 80 l189 0 l0 -158 q0 -5 0.5 -9.5 q0.5 -4.5 0.5 -9.5 l0 -8 l0 -5 q1 -8 1 -15.5 q0 -7.5 0 -15.5 l-353 0 q-18 0 -29 -11.5 q-11 -11.5 -11 -28.5 q0 -18 11 -29 q11 -11 29 -11 l342 0 q-11 -45 -35.5 -94.5 q-24.5 -49.5 -67 -96.5 q-42.5 -47 -104.5 -89.5 q-62 -42.5 -147 -73.5 q-17 -7 -23 -20 q-6 -13 1 -31 q7 -17 21.5 -23 q14.5 -6 31.5 0 q89 34 154.5 78 q65.5 44 112 92.5 q46.5 48.5 75.5 98.5 q29 50 43 96 l0 0 Z" /><glyph glyph-name="uni2F70" unicode="&#x2f70;&#x793a;" d="M821 765 l-615 0 q-19 0 -30 -11.5 q-11 -11.5 -11 -28.5 q0 -18 11 -29.5 q11 -11.5 30 -11.5 l615 0 q18 0 29 11.5 q11 11.5 11 29.5 q0 17 -11 28.5 q-11 11.5 -29 11.5 l0 0 ZM508 -87 q24 8 36 31.5 q12 23.5 12 57.5 l0 443 l355 0 q18 0 29 11.5 q11 11.5 11 29.5 q0 18 -11 29 q-11 11 -29 11 l-796 0 q-19 0 -30 -11 q-11 -11 -11 -29 q0 -18 11 -29.5 q11 -11.5 30 -11.5 l356 0 l0 -441 q0 -11 -3.5 -15.5 q-3.5 -4.5 -14.5 -5.5 l-9 0 q-6 -1 -15.5 -1 q-9.5 0 -20.5 0 l-11 0 q-10 0 -20 0 q-10 0 -22 1 q-19 0 -30 -11.5 q-11 -11.5 -9 -30.5 l1 0 q2 -20 14 -31 q12 -11 31 -11 q53 1 88.5 3.5 q35.5 2.5 57.5 10.5 l0 0 ZM293 341 q-19 5 -33.5 -2 q-14.5 -7 -22.5 -25 q-29 -63 -69 -126 q-40 -63 -82 -108 q-13 -14 -13.5 -30 q-0.5 -16 13.5 -31 q14 -13 30.5 -13 q16.5 0 29.5 14 q24 27 48 60 q24 33 46 68 q22 35 41.5 72 q19.5 37 34.5 72 q8 17 1 30.5 q-7 13.5 -24 18.5 l0 0 ZM927 70 q-13 27 -29 59 q-16 32 -35.5 65 q-19.5 33 -40 65.5 q-20.5 32.5 -41.5 59.5 q-10 15 -26.5 19.5 q-16.5 4.5 -33.5 -2.5 q-18 -7 -21.5 -20 q-3.5 -13 8.5 -28 q20 -29 40 -61.5 q20 -32.5 38.5 -66.5 q18.5 -34 34.5 -66 q16 -32 28 -59 q8 -18 22.5 -24.5 q14.5 -6.5 31.5 1.5 q18 8 25 24 q7 16 -1 34 l0 0 Z" /><glyph glyph-name="uni2F74" unicode="&#x2f74;&#x7acb;" d="M557 721 q-6 19 -13 40.5 q-7 21.5 -15 42.5 q-6 17 -20 25 q-14 8 -32 2 q-17 -5 -24.5 -18.5 q-7.5 -13.5 -1.5 -31.5 q6 -20 12.5 -41 q6.5 -21 11.5 -42 q5 -18 20 -26 q15 -8 34 -3 q19 5 26.5 19 q7.5 14 1.5 33 l0 0 ZM876 653 l-723 0 q-19 0 -30 -11 q-11 -11 -11 -29 q0 -18 11 -29.5 q11 -11.5 30 -11.5 l723 0 q17 0 28 11.5 q11 11.5 11 29.5 q0 18 -11 29 q-11 11 -28 11 l0 0 ZM916 25 l-279 0 q18 46 37.5 107 q19.5 61 39.5 128 l3 11 l4 17 l5 15 l3 11 l8 32 l3 10 q9 29 16 55.5 q7 26.5 14 51.5 q5 20 -3.5 35 q-8.5 15 -29.5 20 q-20 4 -35.5 -5.5 q-15.5 -9.5 -20.5 -30.5 q-8 -36 -17.5 -75.5 q-9.5 -39.5 -19.5 -82.5 l-3 -11 l-9 -39 l-3 -10 l-3 -11 q-18 -66 -36.5 -125.5 q-18.5 -59.5 -36.5 -102.5 l-444 0 q-19 0 -30 -11.5 q-11 -11.5 -11 -29.5 q0 -19 11 -30 q11 -11 30 -11 l807 0 q19 0 30 11 q11 11 11 30 q0 18 -11 29.5 q-11 11.5 -30 11.5 l0 0 ZM423 103 l-3 14 l-1 8 q-7 35 -15.5 75.5 q-8.5 40.5 -17.5 83.5 l-2 11 l-2 11 q-1 4 -2 7.5 q-1 3.5 -2 9.5 l-2 10 q-2 10 -4 19 q-2 9 -4 19 l-2 11 q-7 27 -12.5 53.5 q-5.5 26.5 -10.5 50.5 q-5 19 -18.5 27.5 q-13.5 8.5 -31.5 3.5 q-19 -5 -27.5 -19 q-8.5 -14 -4.5 -32 q8 -32 16 -66 q8 -34 16 -70 l2 -14 q1 -2 1 -3 q0 -1 1 -3 l2 -7 q1 -6 2 -11.5 q1 -5.5 3 -10.5 l2 -12 q10 -44 19 -85.5 q9 -41.5 16 -75.5 q4 -18 17 -26 q13 -8 30 -3 l25 6 q6 2 9 6.5 q3 4.5 1 11.5 l0 0 Z" /><glyph glyph-name="uni2F79" unicode="&#x2f79;&#x7f51;" d="M184 703 l659 0 l0 -699 q0 -11 -6 -17.5 q-6 -6.5 -19 -8.5 l-37 0 l-11 0 q-12 0 -25.5 0 q-13.5 0 -26.5 2 q-19 0 -29.5 -11 q-10.5 -11 -8.5 -29 q1 -18 13 -29 q12 -11 30 -11 q56 0 94 3.5 q38 3.5 59 10.5 q23 9 35.5 33 q12.5 24 12.5 57 l0 719 q0 26 -15.5 41 q-15.5 15 -41.5 15 l-707 0 q-26 0 -41.5 -15 q-15.5 -15 -15.5 -41 l0 -784 q0 -18 11.5 -29 q11.5 -11 29.5 -11 q18 0 29 11 q11 11 11 29 l0 764 l0 0 ZM391 282 q16 -25 31 -51 q15 -26 30 -50 q8 -14 19.5 -16 q11.5 -2 24.5 9 q12 11 14.5 27.5 q2.5 16.5 -5.5 30.5 q-16 29 -34.5 62.5 q-18.5 33.5 -40.5 63.5 q11 33 19.5 71 q8.5 38 16.5 78 l2 10 l4 21 l2 15 l2 10 l6 36 q3 16 -5 26.5 q-8 10.5 -24 12.5 l-2 1 q-18 2 -29.5 -7.5 q-11.5 -9.5 -13.5 -27.5 q-7 -45 -12.5 -90 q-5.5 -45 -16.5 -84 q-23 31 -48.5 64 q-25.5 33 -48.5 62 q-10 12 -23 13 q-13 1 -25 -9 q-11 -10 -12.5 -23.5 q-1.5 -13.5 8.5 -25.5 q30 -37 61.5 -79.5 q31.5 -42.5 57.5 -81.5 q-23 -64 -57.5 -128.5 q-34.5 -64.5 -74.5 -112.5 q-11 -14 -10.5 -28 q0.5 -14 13.5 -27 q12 -11 27 -10.5 q15 0.5 25 13.5 q36 47 65.5 106.5 q29.5 59.5 53.5 118.5 l0 0 ZM667 276 l6 -10 l5 -9 l3 -5 l5 -9 q14 -25 26.5 -48.5 q12.5 -23.5 22.5 -44.5 q8 -15 19.5 -18 q11.5 -3 24.5 7 q14 9 18 24.5 q4 15.5 -3 30.5 q-19 38 -43 80.5 q-24 42.5 -51 81.5 q15 41 26 90 q11 49 20 99 q2 2 2 3 q0 1 0 3 l1 8 l1 5 l2 10 q2 8 3 15 q1 7 2 14 q2 13 -5 21.5 q-7 8.5 -20 10.5 l-7 1 q-16 2 -27.5 -6.5 q-11.5 -8.5 -14.5 -25.5 q-7 -45 -15.5 -90 q-8.5 -45 -18.5 -84 q-8 12 -16.5 24.5 q-8.5 12.5 -17.5 25.5 l-9 14 l-6 8 l-6 9 q-7 11 -14.5 21.5 q-7.5 10.5 -15.5 19.5 q-8 12 -21.5 13.5 q-13.5 1.5 -25.5 -7.5 q-12 -9 -13.5 -22.5 q-1.5 -13.5 6.5 -25.5 q11 -14 21.5 -29 q10.5 -15 20.5 -29 l6 -9 l11 -17 l6 -9 l6 -8 q11 -16 20.5 -30.5 q9.5 -14.5 19.5 -29.5 q-25 -67 -57.5 -134.5 q-32.5 -67.5 -71.5 -114.5 q-12 -13 -12 -27.5 q0 -14.5 14 -26.5 q12 -11 27 -10.5 q15 0.5 25 13.5 q26 34 48 74 q22 40 42 82 l4 9 q7 15 13.5 31 q6.5 16 13.5 31 l0 0 Z" /><glyph glyph-name="uni2F7C" unicode="&#x2f7c;&#x8001;&#xf934;" d="M887 120 q-19 3 -30 -7 q-11 -10 -13 -27 q-3 -27 -11.5 -45.5 q-8.5 -18.5 -24 -30.5 q-15.5 -12 -42.5 -17 q-27 -5 -69 -5 l-130 0 q-51 0 -81 2.5 q-30 2.5 -45.5 8 q-15.5 5.5 -20 15 q-4.5 9.5 -4.5 22.5 l0 92 q26 7 54 15 q28 8 55 16 l11 3 l3 1 q3 0 4 1 l8 2 l46 15 l10 3 q50 18 97 35.5 q47 17.5 88 34.5 q17 8 19 21 q2 13 -12 27 l-5 3 q-14 11 -31 14 q-17 3 -33 -6 q-38 -17 -85 -36.5 q-47 -19.5 -98 -36.5 l-11 -4 q-30 -12 -60.5 -21 q-30.5 -9 -59.5 -17 l0 103 q39 23 74 49.5 q35 26.5 69 52.5 l7 7 q5 4 10 7.5 q5 3.5 10 7.5 l336 0 q17 0 27 10 q10 10 10 28 q0 17 -10 27.5 q-10 10.5 -27 10.5 l-256 0 q26 22 54 47 q28 25 54 52 l7 8 q11 10 20.5 20.5 q9.5 10.5 18.5 20.5 l7 8 q17 18 33 36.5 q16 18.5 30 36.5 q11 14 8 29 q-3 15 -19 23 q-18 9 -34.5 5 q-16.5 -4 -27.5 -18 q-21 -30 -44 -58.5 q-23 -28.5 -47 -54.5 l0 26 q0 11 -6.5 18 q-6.5 7 -18.5 7 l-218 0 l0 92 q0 17 -10.5 28 q-10.5 11 -28.5 11 q-17 0 -27.5 -11 q-10.5 -11 -10.5 -28 l0 -92 l-212 0 q-18 0 -28.5 -10.5 q-10.5 -10.5 -10.5 -27.5 q0 -18 10.5 -28.5 q10.5 -10.5 28.5 -10.5 l212 0 l0 -129 l-303 0 q-17 0 -27 -10.5 q-10 -10.5 -10 -27.5 q0 -18 10 -28 q10 -10 27 -10 l358 0 q-49 -33 -104.5 -66 q-55.5 -33 -113.5 -63 l-10 -5 l-9 -5 q-33 -18 -65 -32.5 q-32 -14.5 -64 -28.5 q-17 -7 -22.5 -21.5 q-5.5 -14.5 2.5 -31.5 q8 -17 24 -23.5 q16 -6.5 33 2.5 q11 5 23.5 10.5 q12.5 5.5 24.5 10.5 l9 5 l15 7 l9 4 q35 18 67 34.5 q32 16.5 59 33.5 l0 -220 q0 -32 8.5 -55.5 q8.5 -23.5 34 -38.5 q25.5 -15 70 -22 q44.5 -7 114.5 -7 l133 0 q60 0 100 9 q40 9 65 28 q25 19 38 50 q13 31 20 74 q2 17 -8 30 q-10 13 -27 16 l0 0 ZM483 501 l0 129 l218 0 q-32 -34 -69 -66.5 q-37 -32.5 -78 -62.5 l-71 0 Z" /><glyph glyph-name="uni2F7D" unicode="&#x2f7d;&#x800c;" d="M202 494 l147 0 l0 -523 q0 -17 11 -28 q11 -11 29 -11 q18 0 28.5 11 q10.5 11 10.5 28 l0 523 l162 0 l0 -526 q0 -16 9.5 -26 q9.5 -10 27.5 -10 q16 0 26 10 q10 10 10 26 l0 526 l164 0 l0 -494 q0 -11 -3.5 -15.5 q-3.5 -4.5 -14.5 -6.5 q-8 0 -30 -0.5 q-22 -0.5 -48 0.5 q-17 0 -27 -10 q-10 -10 -8 -27 q2 -18 13 -28 q11 -10 28 -10 q46 1 79.5 4 q33.5 3 50.5 10 q21 8 31 29.5 q10 21.5 10 52.5 l0 514 q0 26 -15 41 q-15 15 -41 15 l-350 0 q8 21 15.5 45.5 q7.5 24.5 16.5 51.5 l3 10 l1 3 q1 1 1 2 q0 1 1 3 l1 7 l4 16 l377 0 q17 0 28.5 11 q11.5 11 11.5 28 q0 18 -11.5 29 q-11.5 11 -28.5 11 l-814 0 q-18 0 -29 -11 q-11 -11 -11 -29 q0 -17 11 -28 q11 -11 29 -11 l345 0 q-8 -31 -15.5 -68 q-7.5 -37 -16.5 -70 l-245 0 q-25 0 -40.5 -15 q-15.5 -15 -15.5 -41 l0 -575 q0 -19 11 -30 q11 -11 30 -11 q18 0 29.5 11 q11.5 11 11.5 30 l0 556 l0 0 Z" /><glyph glyph-name="uni2F7F" unicode="&#x2f7f;&#x8033;" d="M786 62 l130 11 q18 2 29 13.5 q11 11.5 12 29.5 q1 17 -10 28 q-11 11 -28 9 l-133 -11 l0 558 l121 0 q18 0 29 11.5 q11 11.5 11 29.5 q0 18 -11 29 q-11 11 -29 11 l-787 0 q-19 0 -30 -11 q-11 -11 -11 -29 q0 -18 11 -29.5 q11 -11.5 30 -11.5 l120 0 l0 -599 q-14 0 -26.5 -0.5 q-12.5 -0.5 -27.5 -1.5 l-10 0 q-18 -1 -36 -1.5 q-18 -0.5 -35 -2.5 q-19 -1 -29 -13 q-10 -12 -8 -31 q2 -19 15 -30.5 q13 -11.5 33 -9.5 q46 3 98.5 7 q52.5 4 111.5 9 l10 1 q5 1 10.5 1 q5.5 0 10.5 1 l11 1 l119 9 l12 1 l11 1 l16 1 q4 0 7.5 0.5 q3.5 0.5 7.5 0.5 l6 0 l13 2 q14 1 28 1.5 q14 0.5 28 2.5 l17 1 l17 1 l33 3 l11 1 l12 0 l0 -118 q0 -18 11 -29 q11 -11 29 -11 q18 0 29 11 q11 11 11 29 l0 124 l0 0 ZM319 564 l0 136 l387 0 l0 -136 l-387 0 ZM319 340 l0 146 l387 0 l0 -146 l-387 0 ZM319 262 l387 0 l0 -128 q-13 -1 -24.5 -1.5 q-11.5 -0.5 -24.5 -1.5 l-15 -1 l-11 0 l-16 -1 q-2 -1 -3 -1 q-1 0 -2 0 l-11 -1 q-18 -1 -36 -2 q-18 -1 -37 -2 l-10 -1 q-17 -2 -35 -2.5 q-18 -0.5 -36 -2.5 l-10 0 q-6 -1 -12 -1 q-6 0 -12 -1 l-11 -1 q-7 0 -14 -0.5 q-7 -0.5 -14 -1.5 l-10 0 l-43 -3 l0 153 Z" /><glyph glyph-name="uni2F83" unicode="&#x2f83;&#x81ea;" d="M805 705 l-299 0 q8 16 16.5 36 q8.5 20 17.5 40 q8 21 -1 34.5 q-9 13.5 -29 17.5 q-21 2 -36 -8.5 q-15 -10.5 -20 -30.5 q-5 -23 -11.5 -46 q-6.5 -23 -13.5 -43 l-193 0 q-26 0 -41.5 -15.5 q-15.5 -15.5 -15.5 -41.5 l0 -651 q0 -26 15.5 -41 q15.5 -15 41.5 -15 l569 0 q25 0 40.5 15 q15.5 15 15.5 41 l0 651 q0 26 -15.5 41.5 q-15.5 15.5 -40.5 15.5 l0 0 ZM258 485 l0 142 l521 0 l0 -142 l-521 0 ZM258 264 l0 144 l521 0 l0 -144 l-521 0 ZM258 18 l0 168 l521 0 l0 -168 l-521 0 Z" /><glyph glyph-name="uni2F84" unicode="&#x2f84;&#x81f3;" d="M893 467 q-20 21 -45 45 q-25 24 -52 48 q-27 24 -54.5 47 q-27.5 23 -54.5 43 q-13 10 -29.5 11 q-16.5 1 -30.5 -9 q-15 -10 -15.5 -22 q-0.5 -12 13.5 -23 q23 -19 48 -40.5 q25 -21.5 48 -42.5 l-446 -18 q36 33 72 72 q36 39 71 84 l6 8 q7 9 14 18 q7 9 15 20 l435 0 q17 0 27.5 10 q10.5 10 10.5 27 q0 18 -10.5 28 q-10.5 10 -27.5 10 l-759 0 q-17 0 -27.5 -10 q-10.5 -10 -10.5 -28 q0 -17 10.5 -27 q10.5 -10 27.5 -10 l230 0 q-19 -26 -41.5 -51.5 q-22.5 -25.5 -43 -47 q-20.5 -21.5 -38 -37.5 q-17.5 -16 -26.5 -24 l-4 -4 q-8 -8 -16 -15 q-8 -7 -16 -12 q-13 -10 -20 -24.5 q-7 -14.5 -1 -31.5 l1 -2 q5 -19 18.5 -27 q13.5 -8 32.5 -6 q22 3 61.5 6 q39.5 3 107 7 q67.5 4 167.5 9.5 q100 5.5 243 12.5 q11 -10 20.5 -20.5 q9.5 -10.5 18.5 -21.5 q14 -15 30.5 -17.5 q16.5 -2.5 32.5 9.5 q15 11 17.5 26.5 q2.5 15.5 -10.5 29.5 l0 0 ZM920 16 l-371 0 l0 192 l286 0 q17 0 27 10 q10 10 10 28 q0 17 -10 27.5 q-10 10.5 -27 10.5 l-286 0 l0 97 q0 17 -10.5 27.5 q-10.5 10.5 -27.5 10.5 q-17 0 -28 -10.5 q-11 -10.5 -11 -27.5 l0 -97 l-275 0 q-18 0 -28 -10.5 q-10 -10.5 -10 -27.5 q0 -18 10 -28 q10 -10 28 -10 l275 0 l0 -192 l-364 0 q-18 0 -28.5 -10.5 q-10.5 -10.5 -10.5 -28.5 q0 -17 10.5 -27.5 q10.5 -10.5 28.5 -10.5 l812 0 q17 0 27.5 10.5 q10.5 10.5 10.5 27.5 q0 18 -10.5 28.5 q-10.5 10.5 -27.5 10.5 l0 0 Z" /><glyph glyph-name="uni2F88" unicode="&#x2f88;&#x821f;" d="M299 325 l425 0 l0 -318 q0 -11 -4.5 -16.5 q-4.5 -5.5 -18.5 -6.5 l-7 0 l-70 0 q-18 1 -28.5 -10.5 q-10.5 -11.5 -8.5 -28.5 q1 -18 12.5 -29 q11.5 -11 29.5 -11 q49 1 82 4 q33 3 51 10 q22 9 32 32 q10 23 10 56 l0 318 l119 0 q17 0 27.5 10.5 q10.5 10.5 10.5 28.5 q0 17 -10.5 27 q-10.5 10 -27.5 10 l-119 0 l0 265 q0 25 -15.5 40.5 q-15.5 15.5 -40.5 15.5 l-241 0 q8 11 17.5 27.5 q9.5 16.5 18.5 33.5 q10 20 2 33.5 q-8 13.5 -29 17.5 l-3 0 q-20 3 -36.5 -7.5 q-16.5 -10.5 -22.5 -29.5 q-5 -20 -11.5 -39 q-6.5 -19 -13.5 -36 l-147 0 q-26 0 -41.5 -15.5 q-15.5 -15.5 -15.5 -40.5 l0 -265 l-120 0 q-17 0 -27.5 -10 q-10.5 -10 -10.5 -27 q0 -18 10.5 -28.5 q10.5 -10.5 27.5 -10.5 l117 0 q-3 -39 -12 -84.5 q-9 -45.5 -25.5 -92 q-16.5 -46.5 -41.5 -90.5 q-25 -44 -60 -81 q-12 -14 -11.5 -27 q0.5 -13 13.5 -26 q0 -1 0.5 -1 q0.5 0 0.5 -1 q13 -12 29 -13.5 q16 -1.5 28 12.5 q39 41 67 91.5 q28 50.5 46 104.5 q18 54 29 108 q11 54 14 100 l0 0 ZM304 401 l0 246 l420 0 l0 -246 l-420 0 ZM599 501 q-24 24 -56.5 51 q-32.5 27 -64.5 49 q-11 9 -26 8.5 q-15 -0.5 -26 -8.5 q-12 -9 -12 -20.5 q0 -11.5 11 -20.5 q31 -23 62 -52.5 q31 -29.5 55 -53.5 q11 -13 25.5 -14.5 q14.5 -1.5 27.5 10.5 q13 11 14 25 q1 14 -10 26 l0 0 ZM601 154 q-27 26 -60.5 56.5 q-33.5 30.5 -67.5 53.5 q-12 9 -27.5 8 q-15.5 -1 -27.5 -11 q-12 -11 -11 -22.5 q1 -11.5 13 -20.5 q34 -24 67.5 -55.5 q33.5 -31.5 58.5 -58.5 q11 -12 25.5 -13 q14.5 -1 27.5 10 q13 12 13.5 26 q0.5 14 -11.5 27 l0 0 Z" /><glyph glyph-name="uni2F8A" unicode="&#x2f8a;&#x8272;" d="M935 146 q-17 2 -29.5 -7 q-12.5 -9 -15.5 -26 q-5 -33 -16.5 -56 q-11.5 -23 -35 -38 q-23.5 -15 -63.5 -22 q-40 -7 -101 -7 l-188 0 q-73 0 -117 4.5 q-44 4.5 -67.5 13.5 q-23.5 9 -31 24 q-7.5 15 -7.5 37 l0 159 l550 0 q26 0 41 15.5 q15 15.5 15 41.5 l0 223 q0 26 -15 41 q-15 15 -41 15 l-216 0 q28 27 54.5 60.5 q26.5 33.5 49.5 66.5 q9 12 7 25.5 q-2 13.5 -15 21.5 l-19 15 q-3 2 -7 3 q-4 1 -8 -1 l-8 -4 l-245 0 q5 7 10 15 q5 8 10 16 q9 15 4.5 27 q-4.5 12 -19.5 18 l-2 1 q-18 7 -33 0.5 q-15 -6.5 -24 -20.5 q-23 -39 -53.5 -77.5 q-30.5 -38.5 -65 -73 q-34.5 -34.5 -71.5 -66 q-37 -31.5 -74 -55.5 q-16 -12 -19.5 -27.5 q-3.5 -15.5 7.5 -32.5 q10 -17 26 -20 q16 -3 31 8 q14 11 28.5 22 q14.5 11 25.5 22 l0 -438 q0 -41 12 -70.5 q12 -29.5 44.5 -48.5 q32.5 -19 90.5 -27.5 q58 -8.5 150 -8.5 l190 0 q81 0 134 11 q53 11 86.5 33.5 q33.5 22.5 50.5 57 q17 34.5 25 82.5 q3 18 -7.5 31 q-10.5 13 -27.5 16 l0 0 ZM249 564 q27 26 56 55.5 q29 29.5 52 62.5 l251 0 q-20 -29 -48.5 -60.5 q-28.5 -31.5 -54.5 -57.5 l-256 0 ZM263 305 l0 184 l221 0 l0 -184 l-221 0 ZM559 305 l0 184 l231 0 l0 -184 l-231 0 Z" /><glyph glyph-name="uni2F8F" unicode="&#x2f8f;&#x884c;&#xfa08;" d="M325 822 q-18 7 -34.5 2.5 q-16.5 -4.5 -28.5 -17.5 q-36 -40 -85 -83.5 q-49 -43.5 -95 -77.5 q-14 -11 -17.5 -26.5 q-3.5 -15.5 8.5 -29.5 q11 -15 26 -17.5 q15 -2.5 29 9.5 q52 43 109 93.5 q57 50.5 100 100.5 q11 14 8 26.5 q-3 12.5 -20 19.5 l0 0 ZM898 778 l-416 0 q-17 0 -28 -10 q-11 -10 -11 -28 q0 -17 11 -28 q11 -11 28 -11 l416 0 q17 0 27.5 11 q10.5 11 10.5 28 q0 18 -10.5 28 q-10.5 10 -27.5 10 l0 0 ZM288 446 q23 27 47.5 59.5 q24.5 32.5 45.5 62.5 q10 15 5.5 27 q-4.5 12 -20.5 17 q-18 5 -34 -0.5 q-16 -5.5 -27 -19.5 q-22 -31 -50 -63.5 q-28 -32.5 -57.5 -64.5 q-29.5 -32 -61 -61 q-31.5 -29 -60.5 -54 q-17 -12 -19 -29 q-2 -17 11 -32 q11 -17 28.5 -19 q17.5 -2 31.5 12 q22 19 43.5 40 q21.5 21 38.5 41 l0 -430 q0 -17 10.5 -27.5 q10.5 -10.5 28.5 -10.5 q17 0 28 10.5 q11 10.5 11 27.5 l0 514 l0 0 ZM764 -87 q23 8 34.5 31.5 q11.5 23.5 11.5 56.5 l0 428 l117 0 q17 0 28 11 q11 11 11 29 q0 17 -11 28 q-11 11 -28 11 l-488 0 q-18 0 -29 -11 q-11 -11 -11 -28 q0 -18 11 -29 q11 -11 29 -11 l290 0 l0 -427 q0 -11 -3.5 -16 q-3.5 -5 -14.5 -6 l-9 0 q-6 -2 -15 -2 q-9 0 -21 0 l-11 0 l-51 0 q-18 0 -28.5 -10 q-10.5 -10 -8.5 -28 l2 -32 q0 -3 2 -5 q2 -2 7 -2 l7 0 q70 0 112.5 2 q42.5 2 66.5 10 l0 0 Z" /><glyph glyph-name="uni2F94" unicode="&#x2f94;&#x8a00;" d="M926 689 l-363 0 l17 8 q8 3 10 10 q2 7 -2 14 q-11 20 -28.5 44.5 q-17.5 24.5 -37.5 46.5 q-11 12 -27 16.5 q-16 4.5 -31 -1.5 l-3 -1 q-18 -6 -21.5 -17.5 q-3.5 -11.5 7.5 -26.5 q20 -23 37.5 -48 q17.5 -25 28.5 -45 l-410 0 q-15 0 -24.5 -9.5 q-9.5 -9.5 -9.5 -25.5 q0 -15 9.5 -24.5 q9.5 -9.5 24.5 -9.5 l823 0 q15 0 25 9.5 q10 9.5 10 24.5 q0 16 -10 25.5 q-10 9.5 -25 9.5 l0 0 ZM776 546 l-525 0 q-17 0 -26 -9.5 q-9 -9.5 -9 -24.5 q0 -16 9 -25.5 q9 -9.5 26 -9.5 l525 0 q16 0 25 9.5 q9 9.5 9 25.5 q0 15 -9 24.5 q-9 9.5 -25 9.5 l0 0 ZM776 394 l-525 0 q-17 0 -26 -9 q-9 -9 -9 -25 q0 -16 9 -25 q9 -9 26 -9 l525 0 q16 0 25 9 q9 9 9 25 q0 16 -9 25 q-9 9 -25 9 l0 0 ZM765 233 l-502 0 q-25 0 -40.5 -15 q-15.5 -15 -15.5 -41 l0 -189 q0 -26 15.5 -41.5 q15.5 -15.5 40.5 -15.5 l502 0 q26 0 41 15.5 q15 15.5 15 41.5 l0 189 q0 26 -15 41 q-15 15 -41 15 l0 0 ZM286 1 l0 161 l454 0 l0 -161 l-454 0 Z" /><glyph glyph-name="uni2F9D" unicode="&#x2f9d;&#x8eab;" d="M706 204 l0 -192 q0 -14 -6.5 -20.5 q-6.5 -6.5 -21.5 -8.5 l-43 0 l-10 0 l-65 0 l-12 0 q-4 0 -7.5 0.5 q-3.5 0.5 -8.5 0.5 q-7 0 -11 -4.5 q-4 -4.5 -3 -11.5 l2 -25 q1 -19 13 -30 q12 -11 30 -11 q63 1 104.5 4 q41.5 3 64.5 11 q26 9 37.5 33.5 q11.5 24.5 11.5 61.5 l0 256 q38 34 75.5 75.5 q37.5 41.5 70.5 83.5 q10 14 6.5 27.5 q-3.5 13.5 -19.5 21.5 q-15 7 -30.5 3 q-15.5 -4 -26.5 -18 q-17 -25 -37.5 -49.5 q-20.5 -24.5 -38.5 -44.5 l0 318 q0 26 -15 41 q-15 15 -41 15 l-214 0 q6 9 12 20 q6 11 14 22 q10 18 3.5 31 q-6.5 13 -27.5 17 q-20 5 -36 -5 q-16 -10 -23 -29 q-5 -15 -11.5 -28.5 q-6.5 -13.5 -12.5 -27.5 l-145 0 q-26 0 -41.5 -15 q-15.5 -15 -15.5 -41 l0 -402 l-99 0 q-16 0 -26 -10 q-10 -10 -10 -25 q0 -17 10 -26.5 q10 -9.5 26 -9.5 l480 0 q-46 -32 -98 -62 q-52 -30 -109 -60 l-7 -3 q-1 -1 -2 -1 q-1 0 -2 -1 q-5 -3 -11 -6 q-6 -3 -12 -6 q-2 0 -3 -1 q-1 -1 -4 -2 l-6 -3 q-61 -30 -124.5 -55 q-63.5 -25 -125.5 -43 q-17 -5 -23.5 -17.5 q-6.5 -12.5 -0.5 -30.5 l8 -19 q2 -8 8.5 -11.5 q6.5 -3.5 15.5 -0.5 l17 7 l10 3 q46 16 90.5 34 q44.5 18 90.5 38 l9 5 q11 6 21 11 q10 5 21 10 l10 4 q28 14 55.5 28.5 q27.5 14.5 54.5 29.5 l8 6 l9 5 l13 8 l8 5 q49 29 92.5 58.5 q43.5 29.5 83.5 61.5 l0 0 ZM304 591 l0 79 l402 0 l0 -79 l-402 0 ZM304 441 l0 86 l402 0 l0 -86 l-402 0 ZM304 283 l0 95 l402 0 l0 -82 l-17 -13 l-385 0 Z" /><glyph glyph-name="uni2FA5" unicode="&#x2fa5;&#x91cc;&#xf9e9;" d="M919 5 l-364 0 l0 149 l309 0 q18 0 28 10.5 q10 10.5 10 28.5 q0 17 -10 27 q-10 10 -28 10 l-309 0 l0 114 l257 0 q26 0 41 15.5 q15 15.5 15 40.5 l0 343 q0 26 -15 41.5 q-15 15.5 -41 15.5 l-586 0 q-25 0 -40.5 -15.5 q-15.5 -15.5 -15.5 -41.5 l0 -343 q0 -25 15.5 -40.5 q15.5 -15.5 40.5 -15.5 l250 0 l0 -114 l-300 0 q-17 0 -28 -10 q-11 -10 -11 -27 q0 -18 11 -28.5 q11 -10.5 28 -10.5 l300 0 l0 -149 l-368 0 q-18 0 -28.5 -10.5 q-10.5 -10.5 -10.5 -28.5 q0 -17 10.5 -27.5 q10.5 -10.5 28.5 -10.5 l811 0 q17 0 27 10.5 q10 10.5 10 27.5 q0 18 -10 28.5 q-10 10.5 -27 10.5 l0 0 ZM551 611 l0 114 l236 0 l0 -114 l-236 0 ZM248 611 l0 114 l231 0 l0 -114 l-231 0 ZM551 417 l0 124 l236 0 l0 -124 l-236 0 ZM248 417 l0 124 l231 0 l0 -124 l-231 0 Z" /><glyph glyph-name="uni2FA6" unicode="&#x2fa6;&#x91d1;" d="M905 5 l-357 0 l0 254 l311 0 q18 0 28 10.5 q10 10.5 10 27.5 q0 17 -10 27.5 q-10 10.5 -28 10.5 l-311 0 l0 132 l183 0 q15 0 24.5 9 q9.5 9 9.5 25 l0 34 q30 -18 64 -36.5 q34 -18.5 70 -34.5 q17 -8 32.5 -1 q15.5 7 23.5 24 q8 18 1 32.5 q-7 14.5 -24 20.5 q-48 18 -101.5 43.5 q-53.5 25.5 -104 56.5 q-50.5 31 -95 64.5 q-44.5 33.5 -76.5 67.5 q3 4 6.5 9 q3.5 5 7.5 11 q6 8 4 16 q-2 8 -12 13 l-15 8 q-18 9 -33.5 4 q-15.5 -5 -27.5 -19 q-33 -43 -78.5 -83.5 q-45.5 -40.5 -96.5 -75.5 q-51 -35 -106.5 -64.5 q-55.5 -29.5 -109.5 -50.5 q-18 -8 -25 -22.5 q-7 -14.5 2 -32.5 q8 -17 24 -24 q16 -7 34 0 q36 14 69.5 30.5 q33.5 16.5 61.5 31.5 l0 -27 q0 -14 7.5 -21.5 q7.5 -7.5 21.5 -7.5 l182 0 l0 -132 l-305 0 q-18 0 -28 -10.5 q-10 -10.5 -10 -27.5 q0 -17 10 -27.5 q10 -10.5 28 -10.5 l305 0 l0 -254 l-351 0 q-18 0 -28 -10 q-10 -10 -10 -28 q0 -17 10 -27.5 q10 -10.5 28 -10.5 l785 0 q18 0 28 10.5 q10 10.5 10 27.5 q0 18 -10 28 q-10 10 -28 10 l0 0 ZM287 541 q63 36 120 83.5 q57 47.5 104 99.5 q30 -31 67 -61.5 q37 -30.5 77 -59.5 l10 -6 q21 -15 42.5 -29 q21.5 -14 43.5 -27 l-464 0 ZM367 86 q-13 29 -31 62 q-18 33 -35 63 q-8 14 -23 18.5 q-15 4.5 -30 -1.5 q-17 -7 -20.5 -19 q-3.5 -12 4.5 -27 q18 -29 35 -63 q17 -34 29 -63 q7 -16 20 -22 q13 -6 29 1 q16 7 22.5 21 q6.5 14 -0.5 30 l0 0 ZM773 227 q-17 6 -33 0 q-16 -6 -25 -22 q-7 -15 -14.5 -29 q-7.5 -14 -15.5 -29 l-6 -10 q-8 -17 -17.5 -33 q-9.5 -16 -17.5 -30 q-8 -14 -4 -25 q4 -11 18 -17 q15 -6 28 -2 q13 4 22 16 q18 29 40 63 q22 34 43 67 q9 17 4.5 30.5 q-4.5 13.5 -22.5 20.5 l0 0 Z" /><glyph glyph-name="uni2FAE" unicode="&#x2fae;&#x975e;" d="M408 834 q-18 0 -28.5 -10.5 q-10.5 -10.5 -10.5 -27.5 l0 -108 l-235 0 q-18 0 -29 -10.5 q-11 -10.5 -11 -28.5 q0 -18 11 -29 q11 -11 29 -11 l235 0 l0 -143 l-219 0 q-19 0 -29.5 -11 q-10.5 -11 -10.5 -28 q0 -18 10.5 -29 q10.5 -11 29.5 -11 l219 0 l0 -157 l-259 0 q-18 0 -28.5 -10.5 q-10.5 -10.5 -10.5 -28.5 q0 -17 10.5 -27.5 q10.5 -10.5 28.5 -10.5 l259 0 l0 -218 q0 -17 10.5 -27 q10.5 -10 28.5 -10 q17 0 27 10 q10 10 10 27 l0 861 q0 17 -10 27.5 q-10 10.5 -27 10.5 l0 0 ZM666 152 l263 0 q17 0 28 10.5 q11 10.5 11 28.5 q0 18 -11 28.5 q-11 10.5 -28 10.5 l-263 0 l0 157 l225 0 q17 0 28 11 q11 11 11 29 q0 17 -11 28 q-11 11 -28 11 l-225 0 l0 143 l245 0 q18 0 28.5 11 q10.5 11 10.5 29 q0 18 -10.5 28.5 q-10.5 10.5 -28.5 10.5 l-245 0 l0 106 q0 17 -11 28 q-11 11 -28 11 q-18 0 -28.5 -11 q-10.5 -11 -10.5 -28 l0 -859 q0 -17 10.5 -27.5 q10.5 -10.5 28.5 -10.5 q17 0 28 10.5 q11 10.5 11 27.5 l0 217 l0 0 Z" /><glyph glyph-name="uni2FAF" unicode="&#x2faf;&#x9762;" d="M849 579 l-342 0 q9 26 18.5 56 q9.5 30 17.5 60 l372 0 q18 0 28.5 11 q10.5 11 10.5 28 q0 18 -10.5 28.5 q-10.5 10.5 -28.5 10.5 l-803 0 q-18 0 -28.5 -10.5 q-10.5 -10.5 -10.5 -28.5 q0 -17 10.5 -28 q10.5 -11 28.5 -11 l342 0 q-7 -26 -12.5 -58 q-5.5 -32 -13.5 -58 l-253 0 q-25 0 -40.5 -15.5 q-15.5 -15.5 -15.5 -41.5 l0 -526 q0 -26 15.5 -41 q15.5 -15 40.5 -15 l674 0 q25 0 40.5 15 q15.5 15 15.5 41 l0 526 q0 26 -15.5 41.5 q-15.5 15.5 -40.5 15.5 l0 0 ZM402 397 l0 107 l205 0 l0 -107 l-205 0 ZM197 15 l0 489 l139 0 l0 -489 l-139 0 ZM673 15 l0 489 l151 0 l0 -489 l-151 0 ZM402 217 l0 113 l205 0 l0 -113 l-205 0 ZM402 15 l0 136 l205 0 l0 -136 l-205 0 Z" /><glyph glyph-name="uni2FB3" unicode="&#x2fb3;&#x97f3;" d="M919 516 l-220 0 q13 23 28.5 52.5 q15.5 29.5 30.5 59.5 q7 14 1.5 25 q-5.5 11 -21.5 15 l-33 7 l164 0 q17 0 26.5 9.5 q9.5 9.5 9.5 27.5 q0 16 -9.5 26 q-9.5 10 -26.5 10 l-300 0 q-4 16 -11 33 q-7 17 -16 33 q-8 14 -23.5 20 q-15.5 6 -31.5 3 l-4 -1 q-18 -5 -23 -16 q-5 -11 3 -27 q5 -13 10 -24.5 q5 -11.5 10 -20.5 l-319 0 q-18 0 -27.5 -10 q-9.5 -10 -9.5 -26 q0 -18 9.5 -27.5 q9.5 -9.5 27.5 -9.5 l171 0 l-35 -8 q-15 -4 -20.5 -15 q-5.5 -11 2.5 -25 q14 -28 24.5 -58.5 q10.5 -30.5 16.5 -52.5 l-218 0 q-17 0 -26.5 -9.5 q-9.5 -9.5 -9.5 -27.5 q0 -17 9.5 -27 q9.5 -10 26.5 -10 l814 0 q17 0 26.5 10 q9.5 10 9.5 27 q0 18 -9.5 27.5 q-9.5 9.5 -26.5 9.5 l0 0 ZM373 516 l23 10 q-5 30 -18.5 73 q-13.5 43 -35.5 76 l343 0 q-5 -17 -12 -38 q-7 -21 -15 -42.5 q-8 -21.5 -16.5 -42 q-8.5 -20.5 -16.5 -36.5 l-252 0 ZM768 360 l-503 0 q-25 0 -40.5 -15 q-15.5 -15 -15.5 -41 l0 -322 q0 -26 15.5 -41.5 q15.5 -15.5 40.5 -15.5 l503 0 q26 0 41 15.5 q15 15.5 15 41.5 l0 322 q0 26 -15 41 q-15 15 -41 15 l0 0 ZM287 185 l0 105 l456 0 l0 -105 l-456 0 ZM287 -4 l0 124 l456 0 l0 -124 l-456 0 Z" /><glyph glyph-name="uni2FB8" unicode="&#x2fb8;&#x9996;" d="M784 543 l-257 0 q9 17 15.5 39.5 q6.5 22.5 14.5 46.5 l366 0 q16 0 25.5 9.5 q9.5 9.5 9.5 27.5 q0 16 -9.5 25.5 q-9.5 9.5 -25.5 9.5 l-223 0 q16 17 33 37 q17 20 33 40 q12 17 7 30.5 q-5 13.5 -24 18.5 l-1 0 q-20 6 -37.5 -2 q-17.5 -8 -27.5 -25 q-13 -25 -28.5 -51 q-15.5 -26 -31.5 -48 l-257 0 l22 11 q10 4 13 12.5 q3 8.5 -3 16.5 q-11 18 -26.5 36.5 q-15.5 18.5 -30.5 35.5 q-11 13 -28.5 16.5 q-17.5 3.5 -32.5 -4.5 q-16 -8 -18.5 -19.5 q-2.5 -11.5 8.5 -25.5 q19 -20 36 -40.5 q17 -20.5 26 -38.5 l-228 0 q-17 0 -26.5 -9.5 q-9.5 -9.5 -9.5 -25.5 q0 -18 9.5 -27.5 q9.5 -9.5 26.5 -9.5 l362 0 q-5 -19 -9.5 -42.5 q-4.5 -23.5 -12.5 -43.5 l-203 0 q-26 0 -41.5 -15.5 q-15.5 -15.5 -15.5 -41.5 l0 -487 q0 -26 15.5 -41 q15.5 -15 41.5 -15 l543 0 q26 0 41.5 15 q15.5 15 15.5 41 l0 487 q0 26 -15.5 41.5 q-15.5 15.5 -41.5 15.5 l0 0 ZM262 375 l0 95 l498 0 l0 -95 l-498 0 ZM262 207 l0 101 l498 0 l0 -101 l-498 0 ZM262 15 l0 126 l498 0 l0 -126 l-498 0 Z" /><glyph glyph-name="uni2FBC" unicode="&#x2fbc;&#x9ad8;" d="M912 734 l-347 0 q-5 16 -10.5 33.5 q-5.5 17.5 -12.5 36.5 q-6 17 -21.5 25 q-15.5 8 -33.5 4 q-17 -5 -24 -17.5 q-7 -12.5 -1 -30.5 l19 -51 l-372 0 q-16 0 -25.5 -9.5 q-9.5 -9.5 -9.5 -25.5 q0 -15 9.5 -24.5 q9.5 -9.5 25.5 -9.5 l803 0 q16 0 25.5 9.5 q9.5 9.5 9.5 24.5 q0 16 -9.5 25.5 q-9.5 9.5 -25.5 9.5 l0 0 ZM749 617 l-464 0 q-26 0 -41.5 -15 q-15.5 -15 -15.5 -41 l0 -96 q0 -26 15.5 -41 q15.5 -15 41.5 -15 l464 0 q25 0 40.5 15 q15.5 15 15.5 41 l0 96 q0 26 -15.5 41 q-15.5 15 -40.5 15 l0 0 ZM305 470 l0 85 l418 0 l1 -85 l-419 0 ZM189 290 l645 0 l0 -307 q0 -9 -3.5 -12.5 q-3.5 -3.5 -12.5 -4.5 q-6 0 -25.5 -0.5 q-19.5 -0.5 -39.5 0.5 q-14 0 -21.5 -8 q-7.5 -8 -5.5 -21 q1 -14 9.5 -22 q8.5 -8 22.5 -9 q43 0 73 2 q30 2 46 8 q19 7 28 24 q9 17 9 43 l0 320 q0 26 -15 41 q-15 15 -41 15 l-691 0 q-26 0 -41 -15 q-15 -15 -15 -41 l0 -366 q0 -18 10.5 -28.5 q10.5 -10.5 29.5 -10.5 q17 0 27.5 10.5 q10.5 10.5 10.5 28.5 l0 353 l0 0 ZM656 233 l-302 0 q-25 0 -40.5 -15 q-15.5 -15 -15.5 -41 l0 -121 q0 -25 15.5 -40.5 q15.5 -15.5 40.5 -15.5 l302 0 q26 0 41.5 15.5 q15.5 15.5 15.5 40.5 l0 121 q0 26 -15.5 41 q-15.5 15 -41.5 15 l0 0 ZM372 62 l0 109 l270 0 l0 -109 l-270 0 Z" /><glyph glyph-name="uni2FC7" unicode="&#x2fc7;&#x9ebb;" d="M200 453 l0 194 l720 0 q17 0 27.5 11 q10.5 11 10.5 28 q0 17 -10.5 28 q-10.5 11 -27.5 11 l-313 0 q-6 17 -14 38 q-8 21 -18 42 q-8 17 -23.5 24 q-15.5 7 -33.5 1 q-18 -5 -24 -17.5 q-6 -12.5 3 -30.5 q7 -15 13 -30 q6 -15 10 -27 l-344 0 q-25 0 -40.5 -15.5 q-15.5 -15.5 -15.5 -40.5 l0 -216 q0 -46 -2.5 -104 q-2.5 -58 -10 -120 q-7.5 -62 -20.5 -124 q-13 -62 -34 -115 q-7 -18 -2 -33 q5 -15 21 -27 q1 -1 1 -1 l0 0 q14 -11 27.5 -8.5 q13.5 2.5 20.5 20.5 q23 55 38 123 q15 68 24.5 138 q9.5 70 13 135.5 q3.5 65.5 3.5 115.5 l0 0 ZM788 334 q23 -69 56 -138 q33 -69 65 -118 q9 -15 22.5 -16.5 q13.5 -1.5 26.5 10.5 q13 10 14.5 24 q1.5 14 -7.5 27 q-21 29 -43 64 q-22 35 -42.5 73.5 q-20.5 38.5 -38.5 78 q-18 39.5 -30 76.5 l109 0 q15 0 24.5 9.5 q9.5 9.5 9.5 26.5 q0 15 -9.5 24.5 q-9.5 9.5 -24.5 9.5 l-132 0 l0 113 q0 16 -9.5 26 q-9.5 10 -25.5 10 q-18 0 -27.5 -10 q-9.5 -10 -9.5 -26 l0 -113 l-102 0 q-16 0 -25.5 -9.5 q-9.5 -9.5 -9.5 -24.5 q0 -17 9.5 -26.5 q9.5 -9.5 25.5 -9.5 l86 0 q-13 -38 -31.5 -79 q-18.5 -41 -40 -79.5 q-21.5 -38.5 -45 -73.5 q-23.5 -35 -46.5 -60 q-12 -13 -13 -27.5 q-1 -14.5 12 -27.5 q11 -14 25 -14.5 q14 -0.5 26 14.5 q18 23 36.5 53.5 q18.5 30.5 35 63 q16.5 32.5 30.5 67.5 q14 35 27 66 l0 -384 q0 -16 9.5 -25.5 q9.5 -9.5 27.5 -9.5 q16 0 25.5 9.5 q9.5 9.5 9.5 25.5 l0 400 l0 0 ZM439 323 q18 -22 36.5 -47.5 q18.5 -25.5 34.5 -49.5 q9 -14 20.5 -14 q11.5 0 21.5 14 q10 15 8.5 31 q-1.5 16 -12.5 30 q-12 13 -27.5 29.5 q-15.5 16.5 -31 32.5 q-15.5 16 -29 30 q-13.5 14 -21.5 23 l0 13 l83 0 q16 0 25.5 9.5 q9.5 9.5 9.5 26.5 q0 15 -9.5 24.5 q-9.5 9.5 -25.5 9.5 l-83 0 l0 114 q0 15 -9.5 25 q-9.5 10 -25.5 10 q-15 0 -24.5 -10 q-9.5 -10 -9.5 -25 l0 -114 l-110 0 q-16 0 -26 -9.5 q-10 -9.5 -10 -24.5 q0 -17 10 -26.5 q10 -9.5 26 -9.5 l101 0 q-11 -38 -28.5 -78 q-17.5 -40 -38 -78 q-20.5 -38 -43 -71.5 q-22.5 -33.5 -44.5 -59.5 q-11 -13 -11.5 -28 q-0.5 -15 11.5 -27 q12 -14 26.5 -14 q14.5 0 24.5 14 q33 44 63.5 106.5 q30.5 62.5 48.5 121.5 l0 -368 q0 -15 9.5 -24.5 q9.5 -9.5 24.5 -9.5 q16 0 25.5 9.5 q9.5 9.5 9.5 24.5 l0 390 l0 0 Z" /><glyph glyph-name="uni2FCA" unicode="&#x2fca;&#x9ed1;" d="M920 220 l-373 0 l0 89 l289 0 q15 0 24 9.5 q9 9.5 9 24.5 q0 15 -9 24.5 q-9 9.5 -24 9.5 l-289 0 l0 78 l247 0 q25 0 40.5 15 q15.5 15 15.5 41 l0 233 q0 26 -15.5 41.5 q-15.5 15.5 -40.5 15.5 l-567 0 q-25 0 -40.5 -15.5 q-15.5 -15.5 -15.5 -41.5 l0 -233 q0 -26 15.5 -41 q15.5 -15 40.5 -15 l246 0 l0 -78 l-285 0 q-15 0 -24 -9.5 q-9 -9.5 -9 -24.5 q0 -15 9 -24.5 q9 -9.5 24 -9.5 l285 0 l0 -89 l-367 0 q-17 0 -26.5 -9.5 q-9.5 -9.5 -9.5 -26.5 q0 -17 9.5 -27 q9.5 -10 26.5 -10 l814 0 q16 0 25.5 10 q9.5 10 9.5 27 q0 17 -9.5 26.5 q-9.5 9.5 -25.5 9.5 l0 0 ZM547 524 l0 207 l224 0 l0 -207 l-224 0 ZM247 524 l0 207 l226 0 l0 -207 l-226 0 ZM698 702 l-5 3 q-14 5 -27 -0.5 q-13 -5.5 -19 -19.5 q-4 -10 -8.5 -20.5 q-4.5 -10.5 -9.5 -21.5 l-4 -10 q-7 -15 -13 -28 q-6 -13 -12 -25 q-5 -12 -1 -22 q4 -10 16 -15 q12 -5 22.5 -1.5 q10.5 3.5 16.5 14.5 q10 17 19.5 35.5 q9.5 18.5 19.5 37.5 q0 2 0.5 3 q0.5 1 1.5 3 l3 7 l14 26 q6 11 2.5 20 q-3.5 9 -16.5 14 l0 0 ZM413 594 q-9 22 -20 47.5 q-11 25.5 -24 48.5 q-7 11 -18.5 15.5 q-11.5 4.5 -22.5 0.5 q-13 -5 -16.5 -14.5 q-3.5 -9.5 1.5 -20.5 q13 -24 23.5 -50 q10.5 -26 18.5 -49 q5 -13 14.5 -18 q9.5 -5 23.5 0 q14 5 19.5 16 q5.5 11 0.5 24 l0 0 ZM938 -38 q-18 28 -43 60.5 q-25 32.5 -48 60.5 q-10 11 -26 14.5 q-16 3.5 -31 -1.5 l-3 0 q-17 -6 -20 -17 q-3 -11 8 -26 q24 -27 46.5 -60.5 q22.5 -33.5 39.5 -62.5 q10 -16 26.5 -21.5 q16.5 -5.5 34.5 1.5 q17 8 22 22 q5 14 -6 30 l0 0 ZM225 99 q-17 4 -33.5 -3 q-16.5 -7 -25.5 -22 q-16 -27 -34.5 -56.5 q-18.5 -29.5 -36.5 -55.5 q-11 -15 -7.5 -29.5 q3.5 -14.5 21.5 -22.5 q16 -8 32.5 -4 q16.5 4 26.5 20 q19 30 39 64.5 q20 34.5 38 64.5 q9 16 3.5 28 q-5.5 12 -23.5 16 l0 0 ZM679 -38 q-7 23 -16 48 q-9 25 -17 48 q-7 17 -21.5 24.5 q-14.5 7.5 -31.5 4.5 q-18 -4 -24 -16 q-6 -12 -1 -28 q9 -25 17.5 -51 q8.5 -26 14.5 -49 q5 -18 19 -26.5 q14 -8.5 31 -4.5 q18 5 26 19 q8 14 3 31 l0 0 ZM446 -45 q-2 22 -5.5 48.5 q-3.5 26.5 -8.5 49.5 q-3 16 -14 24.5 q-11 8.5 -27 7.5 q-16 -2 -24 -12 q-8 -10 -6 -25 q5 -36 6 -75 q1 -39 1 -63 l0 -4 q2 -3 3 -3 l38 5 q17 3 28.5 16 q11.5 13 8.5 31 l0 0 Z" /><glyph glyph-name="uni2FCF" unicode="&#x2fcf;&#x9f20;" d="M814 790 l-227 0 q-17 0 -26 -9.5 q-9 -9.5 -9 -24.5 q0 -17 9 -26 q9 -9 26 -9 l206 0 l0 -73 l-194 0 q-14 0 -23.5 -9 q-9.5 -9 -9.5 -24 q0 -14 9.5 -23 q9.5 -9 23.5 -9 l194 0 l0 -83 l-555 0 l0 86 l191 0 q14 0 23.5 9 q9.5 9 9.5 23 q0 15 -9.5 24 q-9.5 9 -23.5 9 l-191 0 l0 74 q23 3 47.5 6.5 q24.5 3.5 49.5 8.5 l10 2 q24 4 46 9 q22 5 42 10 q17 4 21 15 q4 11 -4 26 q-9 14 -24 19.5 q-15 5.5 -32 1.5 q-24 -6 -53.5 -12 q-29.5 -6 -58.5 -11 l-12 -2 l-21 -4 l-11 -2 q-11 -2 -20 -4 q-9 -2 -19 -4 q-18 -2 -28.5 -14 q-10.5 -12 -10.5 -30 l0 -253 q0 -25 15 -40.5 q15 -15.5 41 -15.5 l598 0 q26 0 41 15.5 q15 15.5 15 40.5 l0 246 q0 26 -15 41.5 q-15 15.5 -41 15.5 l0 0 ZM945 58 q-13 2 -21.5 -4.5 q-8.5 -6.5 -10.5 -19.5 q-3 -27 -8.5 -40 q-5.5 -13 -13.5 -13 q-32 0 -50 102 q-18 102 -19 286 q0 18 -11 29.5 q-11 11.5 -29 11.5 q-18 0 -29.5 -11.5 q-11.5 -11.5 -10.5 -29.5 q3 -104 12.5 -189.5 q9.5 -85.5 27 -147 q17.5 -61.5 43.5 -95.5 q26 -34 62 -34 q33 0 55 27.5 q22 27.5 30 92.5 q2 13 -6 22.5 q-8 9.5 -21 12.5 l0 0 ZM725 1 l0 11 l0 5 l0 29 l0 5 q0 2 -1 3 q-1 1 -3 0 l-186 -45 l0 360 q0 16 -10 25.5 q-10 9.5 -26 9.5 q-18 0 -27.5 -9.5 q-9.5 -9.5 -9.5 -25.5 l0 -327 q0 -13 -3 -23 q-3 -10 -8 -18 q-9 -13 -11.5 -27 q-2.5 -14 6.5 -28 q9 -15 22.5 -19 q13.5 -4 28.5 1 q23 9 73.5 22.5 q50.5 13.5 143.5 35.5 q5 2 8 6 q3 4 3 9 l0 0 ZM414 11 l0 2 q-1 15 -9 21.5 q-8 6.5 -22 3.5 l-135 -30 l0 357 q0 17 -11 27.5 q-11 10.5 -28 10.5 q-18 0 -28.5 -10.5 q-10.5 -10.5 -10.5 -27.5 l0 -319 q0 -14 -4 -26 q-4 -12 -10 -20 q-10 -13 -13 -27.5 q-3 -14.5 5 -29.5 q9 -15 22.5 -20 q13.5 -5 30.5 0 q22 7 65 18.5 q43 11.5 117 28.5 q14 3 23 14.5 q9 11.5 8 26.5 l0 0 ZM412 311 q-15 11 -31 22 q-16 11 -33 22 q-11 9 -23.5 6.5 q-12.5 -2.5 -20.5 -11.5 q-8 -10 -7.5 -21 q0.5 -11 11.5 -19 q16 -11 31.5 -23.5 q15.5 -12.5 30.5 -23.5 q11 -9 24 -8 q13 1 23 12 q10 12 8.5 24 q-1.5 12 -13.5 20 l0 0 ZM697 309 q-14 12 -30.5 24 q-16.5 12 -32.5 22 q-11 9 -24 6.5 q-13 -2.5 -22 -12.5 q-9 -10 -7.5 -20.5 q1.5 -10.5 12.5 -18.5 q16 -11 32.5 -25 q16.5 -14 30.5 -25 q12 -9 24.5 -7.5 q12.5 1.5 21.5 12.5 q10 11 8.5 23.5 q-1.5 12.5 -13.5 20.5 l0 0 ZM404 154 q-13 11 -29 22 q-16 11 -32 23 q-11 7 -24 5 q-13 -2 -22 -13 q-9 -10 -7.5 -20.5 q1.5 -10.5 12.5 -18.5 q15 -12 30.5 -24.5 q15.5 -12.5 28.5 -24.5 q12 -10 24.5 -8.5 q12.5 1.5 23.5 13.5 q10 11 9 23.5 q-1 12.5 -14 22.5 l0 0 ZM698 143 q-15 12 -34 25.5 q-19 13.5 -36 26.5 q-12 8 -24 6.5 q-12 -1.5 -21 -12.5 q-10 -10 -9 -21 q1 -11 13 -20 q17 -14 35 -28.5 q18 -14.5 34 -26.5 q12 -10 24.5 -8.5 q12.5 1.5 22.5 12.5 q11 12 9.5 24.5 q-1.5 12.5 -14.5 21.5 l0 0 Z" /><glyph glyph-name="uni3001" unicode="&#x3001;" d="M314 -58 q16 13 18 31 q2 18 -13 33 q-37 42 -80 85 q-43 43 -85 79 q-15 13 -34 13 q-19 0 -33 -13 q-15 -14 -15 -29.5 q0 -15.5 15 -28.5 q41 -36 83 -78.5 q42 -42.5 80 -86.5 q14 -16 31.5 -17.5 q17.5 -1.5 32.5 12.5 l0 0 Z" /><glyph glyph-name="uni3002" unicode="&#x3002;" d="M199 219 q-32 0 -60 -12 q-28 -12 -49.5 -33 q-21.5 -21 -34 -49.5 q-12.5 -28.5 -12.5 -61.5 q0 -32 12.5 -61 q12.5 -29 34 -50 q21.5 -21 49.5 -33 q28 -12 60 -12 q32 0 61 12 q29 12 50 33 q21 21 33 50 q12 29 12 61 q0 33 -12 61.5 q-12 28.5 -33 49.5 q-21 21 -50 33 q-29 12 -61 12 l0 0 ZM199 -41 q-22 0 -40.5 8 q-18.5 8 -32.5 22 q-14 14 -22.5 33.5 q-8.5 19.5 -8.5 40.5 q0 22 8.5 40.5 q8.5 18.5 22.5 33 q14 14.5 32.5 22.5 q18.5 8 40.5 8 q21 0 40.5 -8 q19.5 -8 33.5 -22.5 q14 -14.5 22 -33 q8 -18.5 8 -40.5 q0 -44 -30 -74 q-30 -30 -74 -30 l0 0 Z" /><glyph glyph-name="uni3010" unicode="&#x3010;" d="M989 830 l0 6 l-251 0 q-25 0 -40.5 -15.5 q-15.5 -15.5 -15.5 -41.5 l0 -841 q0 -26 15.5 -41.5 q15.5 -15.5 40.5 -15.5 l251 0 l0 5 q-42 35 -79 84 q-37 49 -64.5 109.5 q-27.5 60.5 -43.5 131 q-16 70.5 -16 147.5 q0 78 16 148.5 q16 70.5 43.5 130.5 q27.5 60 64.5 109.5 q37 49.5 79 83.5 l0 0 Z" /><glyph glyph-name="uni3011" unicode="&#x3011;" d="M35 -119 l251 0 q25 0 40.5 15.5 q15.5 15.5 15.5 41.5 l0 841 q0 26 -15.5 41.5 q-15.5 15.5 -40.5 15.5 l-251 0 l0 -6 q42 -34 79 -83.5 q37 -49.5 64.5 -109.5 q27.5 -60 43.5 -130.5 q16 -70.5 16 -148.5 q0 -77 -16 -147.5 q-16 -70.5 -43.5 -131 q-27.5 -60.5 -64.5 -109.5 q-37 -49 -79 -84 l0 -5 l0 0 Z" /><glyph glyph-name="uni3064" unicode="&#x3064;" d="M926 365 q0 64 -23.5 114.5 q-23.5 50.5 -64.5 86 q-41 35.5 -96.5 54 q-55.5 18.5 -118.5 18.5 q-57 0 -119 -12 q-62 -12 -120 -28 q-58 -16 -108.5 -33.5 q-50.5 -17.5 -82.5 -27.5 q-17 -6 -33 -10.5 q-16 -4.5 -31 -9.5 q-23 -6 -30.5 -22 q-7.5 -16 1.5 -36 q9 -22 27 -29 q18 -7 40 1 q40 16 96 37.5 q56 21.5 117.5 40.5 q61.5 19 124 32.5 q62.5 13.5 116.5 13.5 q52 0 91 -14.5 q39 -14.5 65.5 -39.5 q26.5 -25 39.5 -59.5 q13 -34.5 13 -74.5 q0 -74 -35 -127 q-35 -53 -96 -88 q-61 -35 -143 -54 q-82 -19 -174 -25 q-23 -2 -31 -14.5 q-8 -12.5 0 -32.5 l3 -10 q7 -16 22.5 -25.5 q15.5 -9.5 33.5 -7.5 q110 9 205 37 q95 28 164 75 q69 47 108 114 q39 67 39 156 l0 0 Z" /><glyph glyph-name="uni309C" unicode="&#x309c;" d="M27 693 q0 -24 9 -45 q9 -21 24.5 -37 q15.5 -16 37 -25 q21.5 -9 45.5 -9 q25 0 46.5 9 q21.5 9 37 25 q15.5 16 24.5 37 q9 21 9 45 q0 25 -9 46.5 q-9 21.5 -24.5 37.5 q-15.5 16 -37 25 q-21.5 9 -46.5 9 q-24 0 -45.5 -9 q-21.5 -9 -37 -25.5 q-15.5 -16.5 -24.5 -37.5 q-9 -21 -9 -46 l0 0 ZM71 693 q0 30 21.5 51 q21.5 21 50.5 21 q30 0 51 -21 q21 -21 21 -51 q0 -28 -21 -49.5 q-21 -21.5 -51 -21.5 q-29 0 -50.5 22 q-21.5 22 -21.5 49 l0 0 Z" /><glyph glyph-name="uni30ED" unicode="&#x30ed;" d="M241 18 l547 0 q0 -8 -0.5 -15.5 q-0.5 -7.5 -1.5 -14.5 q-2 -14 5.5 -22 q7.5 -8 21.5 -8 l17 0 q21 0 34 13.5 q13 13.5 13 33.5 q-1 22 -1 44.5 q0 22.5 0 36.5 l0 509 l0 40 q1 17 -10 28 q-11 11 -28 10 q-13 -1 -24.5 -1 q-11.5 0 -20.5 0 l-547 0 q-12 0 -25 0.5 q-13 0.5 -28 1.5 q-18 1 -28.5 -10.5 q-10.5 -11.5 -9.5 -28.5 l0 -40 l0 -508 q0 -14 -0.5 -37 q-0.5 -23 -0.5 -45 q-1 -20 11.5 -33.5 q12.5 -13.5 34.5 -13.5 l16 0 q14 0 21.5 7.5 q7.5 7.5 6.5 21.5 q-1 8 -1.5 15.5 q-0.5 7.5 -1.5 15.5 l0 0 ZM241 104 l0 481 l547 0 l0 -481 l-547 0 Z" /><glyph glyph-name="uni4E01" unicode="&#x4e01;" d="M526 -78 q30 9 45 36 q15 27 15 70 l0 637 l321 0 q20 0 31 11 q11 11 11 31 q0 19 -11 30.5 q-11 11.5 -31 11.5 l-791 0 q-20 0 -31 -11.5 q-11 -11.5 -11 -30.5 q0 -20 11 -31 q11 -11 31 -11 l381 0 l0 -635 q0 -18 -7.5 -25 q-7.5 -7 -24.5 -8 q-15 -1 -57 -1 q-42 0 -89 1 q-20 0 -32 -12.5 q-12 -12.5 -9 -32.5 q2 -21 15.5 -33.5 q13.5 -12.5 34.5 -12.5 q73 1 122.5 4.5 q49.5 3.5 75.5 11.5 l0 0 Z" /><glyph glyph-name="uni4E07" unicode="&#x4e07;" d="M402 412 l366 0 q-10 -189 -25 -294 q-15 -105 -36 -124 q-9 -8 -18.5 -10.5 q-9.5 -2.5 -25.5 -2.5 l-10 0 q-17 0 -47.5 0.5 q-30.5 0.5 -61.5 2.5 q-18 1 -28.5 -9 q-10.5 -10 -9.5 -27 q0 -18 10.5 -29 q10.5 -11 28.5 -12 q46 -3 84.5 -4 q38.5 -1 60.5 1 q28 2 50 10.5 q22 8.5 39 29.5 q28 29 45.5 152.5 q17.5 123.5 29.5 354.5 q0 3 0.5 8 q0.5 5 0.5 10 q0 9 -5 14 q-5 5 -14 5 l-414 0 q3 24 3.5 49.5 q0.5 25.5 -0.5 51.5 l0 7 l0 6 l-1 7 q0 20 -0.5 39 q-0.5 19 0.5 37 l485 0 q18 0 28.5 11 q10.5 11 10.5 29 q0 17 -10.5 28 q-10.5 11 -28.5 11 l-794 0 q-19 0 -29.5 -11 q-10.5 -11 -10.5 -28 q0 -18 10.5 -29 q10.5 -11 29.5 -11 l237 0 q-2 -87 -11.5 -186.5 q-9.5 -99.5 -37.5 -195.5 q-28 -96 -78.5 -180 q-50.5 -84 -134.5 -139 q-15 -12 -19 -26.5 q-4 -14.5 6 -31.5 q9 -16 25.5 -20 q16.5 -4 31.5 7 q64 43 110 101.5 q46 58.5 78 125 q32 66.5 51.5 136.5 q19.5 70 28.5 136 l0 0 Z" /><glyph glyph-name="uni4E09" unicode="&#x4e09;" d="M847 744 l-668 0 q-18 0 -29.5 -11 q-11.5 -11 -11.5 -30 q0 -18 11.5 -29 q11.5 -11 29.5 -11 l668 0 q18 0 29.5 11 q11.5 11 11.5 29 q0 19 -11.5 30 q-11.5 11 -29.5 11 l0 0 ZM767 419 l-521 0 q-20 0 -31 -11.5 q-11 -11.5 -11 -29.5 q0 -20 11 -31 q11 -11 31 -11 l521 0 q18 0 29.5 11 q11.5 11 11.5 31 q0 18 -11.5 29.5 q-11.5 11.5 -29.5 11.5 l0 0 ZM902 58 l-780 0 q-20 0 -31 -11 q-11 -11 -11 -30 q0 -19 11 -30.5 q11 -11.5 31 -11.5 l780 0 q19 0 30 11.5 q11 11.5 11 30.5 q0 19 -11 30 q-11 11 -30 11 l0 0 Z" /><glyph glyph-name="uni4E0A" unicode="&#x4e0a;" d="M920 30 l-401 0 l0 408 l330 0 q18 0 29.5 11.5 q11.5 11.5 11.5 29.5 q0 19 -11.5 30 q-11.5 11 -29.5 11 l-330 0 l0 262 q0 19 -11 30 q-11 11 -30 11 q-19 0 -30.5 -11 q-11.5 -11 -11.5 -30 l0 -752 l-331 0 q-18 0 -29 -11.5 q-11 -11.5 -11 -29.5 q0 -18 11 -29 q11 -11 29 -11 l815 0 q17 0 28 11 q11 11 11 29 q0 18 -11 29.5 q-11 11.5 -28 11.5 l0 0 Z" /><glyph glyph-name="uni4E0B" unicode="&#x4e0b;" d="M534 450 q33 -19 70 -41.5 q37 -22.5 73 -46 q36 -23.5 69.5 -46.5 q33.5 -23 60.5 -44 q17 -12 34.5 -10.5 q17.5 1.5 30.5 19.5 q13 17 10.5 34.5 q-2.5 17.5 -20.5 28.5 q-31 22 -69 46.5 q-38 24.5 -78.5 49 q-40.5 24.5 -81.5 47.5 q-41 23 -78 40 q-4 2 -8 1.5 q-4 -0.5 -7 -4.5 l-6 -9 l0 169 l380 0 q19 0 30 11.5 q11 11.5 11 29.5 q0 18 -11 29.5 q-11 11.5 -30 11.5 l-803 0 q-19 0 -30 -11.5 q-11 -11.5 -11 -29.5 q0 -18 11 -29.5 q11 -11.5 30 -11.5 l340 0 l0 -744 q0 -19 11 -30 q11 -11 31 -11 q18 0 29.5 11 q11.5 11 11.5 30 l0 510 l0 0 Z" /><glyph glyph-name="uni4E0D" unicode="&#x4e0d;&#xf967;" d="M555 583 q7 11 13.5 20.5 q6.5 9.5 14.5 21.5 l6 8 l5 8 q7 12 14 24 q7 12 15 24 l277 0 q18 0 29 11.5 q11 11.5 11 28.5 q0 17 -11 28.5 q-11 11.5 -29 11.5 l-776 0 q-18 0 -29 -11.5 q-11 -11.5 -11 -28.5 q0 -17 11 -28.5 q11 -11.5 29 -11.5 l400 0 q-32 -55 -78.5 -113 q-46.5 -58 -101.5 -112.5 q-55 -54.5 -116.5 -103 q-61.5 -48.5 -125.5 -85.5 q-17 -9 -21.5 -25 q-4.5 -16 5.5 -33 q9 -17 26 -22.5 q17 -5.5 34 5.5 q43 25 84.5 56 q41.5 31 80.5 65 l8 7 q12 10 23.5 20 q11.5 10 23.5 22 l7 7 q4 3 7 6.5 q3 3.5 7 7.5 l7 7 q21 21 40.5 41.5 q19.5 20.5 36.5 40.5 l0 -538 q0 -20 11.5 -31 q11.5 -11 30.5 -11 q19 0 30.5 11 q11.5 11 11.5 31 l0 641 l0 0 ZM937 290 q-33 31 -77 67.5 q-44 36.5 -91 72.5 l-9 6 q-27 21 -52 39 q-25 18 -49 34 q-14 10 -31.5 8.5 q-17.5 -1.5 -30.5 -12.5 q-13 -12 -12 -25 q1 -13 15 -24 q26 -19 53 -39.5 q27 -20.5 55 -42.5 l9 -7 q44 -36 85 -73 q41 -37 71 -67 q15 -14 33 -14.5 q18 -0.5 32 13.5 q14 15 14 32 q0 17 -15 32 l0 0 Z" /><glyph glyph-name="uni4E0E" unicode="&#x4e0e;" d="M696 -90 q30 2 54 11 q24 9 42 28 q32 31 58 145.5 q26 114.5 46 319.5 q1 3 1.5 8 q0.5 5 0.5 10 q2 9 -3 14.5 q-5 5.5 -14 5.5 l-600 0 q11 36 20 82 q9 46 20 91 l525 0 q17 0 27.5 10 q10.5 10 10.5 28 q0 17 -10.5 27 q-10.5 10 -27.5 10 l-508 0 q3 16 6.5 33.5 q3.5 17.5 6.5 34.5 q4 17 -4.5 29.5 q-8.5 12.5 -25.5 14.5 q-19 2 -32 -7.5 q-13 -9.5 -17 -27.5 q-5 -23 -10 -49.5 q-5 -26.5 -11 -52.5 l-2 -10 l-4 -17 l-2 -11 l-1 -5 l-3 -18 q-14 -55 -25.5 -107.5 q-11.5 -52.5 -23.5 -95.5 q-4 -15 3 -24 q7 -9 22 -9 l34 -1 l560 0 q-15 -159 -36 -254 q-21 -95 -48 -120 q-2 -1 -3 -2 q-1 -1 -3 -3 q-8 -6 -18.5 -8 q-10.5 -2 -27.5 -2 l-5 0 q-19 0 -53 0.5 q-34 0.5 -70 2.5 q-18 2 -28.5 -8.5 q-10.5 -10.5 -9.5 -27.5 q1 -17 11.5 -28.5 q10.5 -11.5 28.5 -13.5 q49 -2 88.5 -3 q39.5 -1 60.5 0 l0 0 ZM648 237 l-537 0 q-18 0 -29 -11.5 q-11 -11.5 -11 -28.5 q0 -18 11 -29 q11 -11 29 -11 l537 0 q18 0 29 11 q11 11 11 29 q0 17 -11 28.5 q-11 11.5 -29 11.5 l0 0 Z" /><glyph glyph-name="uni4E11" unicode="&#x4e11;" d="M926 8 l-149 0 q5 58 10.5 132.5 q5.5 74.5 10.5 157.5 l1 11 l1 12 l3 55 l0 11 q2 15 2.5 30.5 q0.5 15.5 1.5 31.5 l1 16 q1 20 1.5 39 q0.5 19 2.5 39 l0 11 l1 9 l0 4 l0 8 q2 38 3.5 73.5 q1.5 35.5 3.5 68.5 q1 26 -14 42 q-15 16 -42 16 l-596 0 q-18 0 -29.5 -11 q-11.5 -11 -11.5 -29 q0 -18 11.5 -29.5 q11.5 -11.5 29.5 -11.5 l208 0 q-2 -31 -5.5 -65.5 q-3.5 -34.5 -9.5 -70.5 l-1 -10 l-1 -6 l-1 -11 l-2 -15 l-2 -15 q-3 -21 -5 -41.5 q-2 -20.5 -4 -40.5 l-157 0 q-17 0 -27.5 -11 q-10.5 -11 -10.5 -28 q0 -18 10.5 -28.5 q10.5 -10.5 27.5 -10.5 l157 0 q-4 -41 -7.5 -86.5 q-3.5 -45.5 -7.5 -89.5 q-4 -44 -8.5 -84.5 q-4.5 -40.5 -8.5 -72.5 l-212 0 q-17 0 -28.5 -11 q-11.5 -11 -11.5 -29 q0 -17 11.5 -28.5 q11.5 -11.5 28.5 -11.5 l825 0 q17 0 28.5 11.5 q11.5 11.5 11.5 28.5 q0 18 -11.5 29 q-11.5 11 -28.5 11 l0 0 ZM426 419 q2 20 3.5 41 q1.5 21 3.5 42 l0 10 q1 5 1 8.5 q0 3.5 0 7.5 l1 11 q2 41 4.5 80 q2.5 39 4.5 75 l294 0 q-1 -26 -2 -55.5 q-1 -29.5 -3 -58.5 l-1 -11 q-2 -20 -2.5 -41.5 q-0.5 -21.5 -2.5 -42.5 l-1 -10 q-1 -14 -1.5 -28 q-0.5 -14 -1.5 -28 l-297 0 ZM394 8 q5 39 8.5 92.5 q3.5 53.5 6.5 111.5 l0 10 q0 8 1 11 l0 12 l1 11 q2 22 3 43.5 q1 21.5 3 41.5 l305 0 q-2 -23 -3 -47 q-1 -24 -3 -48 l-1 -16 l0 -6 l-1 -16 l0 -5 l-1 -12 q-3 -52 -7 -99 q-4 -47 -8 -84 l-304 0 Z" /><glyph glyph-name="uni4E13" unicode="&#x4e13;" d="M723 -12 q-27 15 -57 31 q-30 16 -63 30 q20 19 40.5 39.5 q20.5 20.5 40.5 42.5 l4 4 l7 7 q3 3 4 4 l8 9 l11 11 l8 8 l3 4 l8 8 l7 9 q26 26 50 52 q24 26 46 50 q11 11 9.5 23.5 q-1.5 12.5 -14.5 20.5 l-25 14 q-3 2 -6.5 2.5 q-3.5 0.5 -5.5 -0.5 l-7 -3 l-416 0 q8 24 12.5 51.5 q4.5 27.5 13.5 57.5 l499 0 q18 0 28 10.5 q10 10.5 10 28.5 q0 17 -10 27.5 q-10 10.5 -28 10.5 l-472 0 q3 10 5.5 19.5 q2.5 9.5 6.5 20.5 q0 2 0.5 4 q0.5 2 1.5 4 l1 6 l19 58 l364 0 q18 0 28 10.5 q10 10.5 10 27.5 q0 18 -10 28 q-10 10 -28 10 l-341 0 q5 15 10.5 31.5 q5.5 16.5 10.5 33.5 q5 18 -3 29.5 q-8 11.5 -28 11.5 q-19 0 -33 -11.5 q-14 -11.5 -19 -30.5 q-4 -17 -8 -33 q-4 -16 -9 -31 l-216 0 q-17 0 -27 -10 q-10 -10 -10 -28 q0 -17 10 -27.5 q10 -10.5 27 -10.5 l192 0 q-8 -26 -12.5 -55.5 q-4.5 -29.5 -15.5 -56.5 l-245 0 q-18 0 -28.5 -10.5 q-10.5 -10.5 -10.5 -27.5 q0 -18 10.5 -28.5 q10.5 -10.5 28.5 -10.5 l220 0 q-5 -17 -11.5 -33 q-6.5 -16 -12.5 -33 l-4 -10 q-5 -14 -9.5 -27.5 q-4.5 -13.5 -9.5 -25.5 q-9 -24 1 -38.5 q10 -14.5 35 -14.5 l396 0 q-18 -19 -38 -41 q-20 -22 -41 -45 l-7 -9 q-26 -27 -51.5 -54.5 q-25.5 -27.5 -50.5 -50.5 q-8 2 -14.5 5 q-6.5 3 -13.5 5 l-13 5 l-17 6 l-9 4 l-15 6 l-10 4 l-9 4 q-18 7 -35.5 13 q-17.5 6 -35.5 11 q-16 6 -32 0.5 q-16 -5.5 -26 -18.5 q-10 -13 -6.5 -24.5 q3.5 -11.5 19.5 -16.5 q46 -15 96.5 -36 q50.5 -21 98.5 -43.5 q48 -22.5 92 -46.5 q44 -24 79 -43 q17 -9 33.5 -5.5 q16.5 3.5 27.5 18.5 q12 17 8 32.5 q-4 15.5 -21 26.5 l0 0 Z" /><glyph glyph-name="uni4E14" unicode="&#x4e14;" d="M918 24 l-111 0 l0 701 q0 26 -15.5 41 q-15.5 15 -40.5 15 l-466 0 q-26 0 -41.5 -15 q-15.5 -15 -15.5 -41 l0 -701 l-120 0 q-19 0 -30 -11.5 q-11 -11.5 -11 -29.5 q0 -18 11 -29 q11 -11 30 -11 l810 0 q17 0 28 11 q11 11 11 29 q0 18 -11 29.5 q-11 11.5 -28 11.5 l0 0 ZM306 538 l0 163 l420 0 l0 -163 l-420 0 ZM306 285 l0 177 l420 0 l0 -177 l-420 0 ZM306 24 l0 183 l420 0 l0 -183 l-420 0 Z" /><glyph glyph-name="uni4E1A" unicode="&#x4e1a;" d="M911 34 l-241 0 l0 753 q0 18 -10.5 28 q-10.5 10 -27.5 10 q-18 0 -28 -10 q-10 -10 -10 -28 l0 -753 l-164 0 l0 751 q0 18 -11 29 q-11 11 -29 11 q-17 0 -28.5 -11 q-11.5 -11 -11.5 -29 l0 -751 l-235 0 q-18 0 -29 -11.5 q-11 -11.5 -11 -28.5 q0 -18 11 -29 q11 -11 29 -11 l796 0 q18 0 29 11 q11 11 11 29 q0 17 -11 28.5 q-11 11.5 -29 11.5 l0 0 ZM303 300 q-13 33 -29 72.5 q-16 39.5 -33 80.5 l-5 11 q-3 6 -6 12 q-3 6 -5 13 l-4 11 q-8 20 -16.5 40 q-8.5 20 -17.5 39 q-7 16 -21 22.5 q-14 6.5 -31 1.5 q-17 -5 -23.5 -18.5 q-6.5 -13.5 0.5 -30.5 q12 -31 25.5 -65 q13.5 -34 27.5 -68 l4 -10 q15 -39 28.5 -75 q13.5 -36 24.5 -66 q7 -17 22.5 -24 q15.5 -7 34.5 0 q17 6 24 21.5 q7 15.5 0 32.5 l0 0 ZM895 593 q-17 8 -30.5 2.5 q-13.5 -5.5 -20.5 -23.5 q-11 -29 -26 -61 q-15 -32 -31 -65 l-5 -10 q-20 -39 -39.5 -76.5 q-19.5 -37.5 -37.5 -69.5 q-9 -15 -5.5 -29 q3.5 -14 19.5 -22 q15 -9 30 -4.5 q15 4.5 23 18.5 q18 30 35.5 63 q17.5 33 35.5 69 l5 10 q18 36 35.5 73 q17.5 37 31.5 70 q9 17 3 32 q-6 15 -23 23 l0 0 Z" /><glyph glyph-name="uni4E1D" unicode="&#x4e1d;" d="M920 208 l0 0 q1 17 -8 27 q-9 10 -26 9 l-249 -17 q57 57 117 132 q60 75 115 155 q3 3 3 4 l5 7 q9 14 17.5 26.5 q8.5 12.5 16.5 26.5 q11 15 7 30 q-4 15 -20 23 q-16 8 -31.5 4 q-15.5 -4 -24.5 -20 q-19 -29 -39.5 -59.5 q-20.5 -30.5 -39.5 -56.5 l-153 -9 q30 41 61 91.5 q31 50.5 60 104.5 l5 9 q10 19 19.5 37.5 q9.5 18.5 17.5 36.5 q8 16 3 30.5 q-5 14.5 -22 21.5 q-18 7 -32.5 1 q-14.5 -6 -22.5 -23 q-17 -41 -37.5 -82 q-20.5 -41 -39 -76 q-18.5 -35 -34 -60.5 q-15.5 -25.5 -23.5 -36.5 q-8 -13 -16 -24 q-8 -11 -17 -19 q-10 -12 -14.5 -26 q-4.5 -14 1.5 -32 q5 -17 19 -23.5 q14 -6.5 31 -3.5 q20 4 53.5 7.5 q33.5 3.5 91.5 6.5 q-37 -47 -65 -86.5 q-28 -39.5 -38 -53.5 q-20 -18 -36 -32.5 q-16 -14.5 -29 -25.5 q-12 -10 -19 -24 q-7 -14 -2 -31 q5 -17 18 -25 q13 -8 30 -6 q16 2 39.5 4.5 q23.5 2.5 60 5 q36.5 2.5 87 5.5 q50.5 3 120.5 7 q17 1 27.5 11.5 q10.5 10.5 12.5 28.5 l0 0 ZM485 203 l0 1 q2 16 -6.5 25.5 q-8.5 9.5 -25.5 8.5 l-219 -15 q40 43 82 97 q42 54 82 112 l6 9 l7 9 l6 9 q5 7 8.5 13.5 q3.5 6.5 8.5 12.5 l6 10 l5 9 l7 9 q11 17 22 35.5 q11 18.5 23 37.5 q8 14 4 28.5 q-4 14.5 -19 22.5 l-7 3 q-12 6 -23 3 q-11 -3 -18 -15 q-3 -7 -6.5 -13.5 q-3.5 -6.5 -7.5 -13.5 l-5 -9 l-5 -9 q-14 -24 -27 -47.5 q-13 -23.5 -28 -45.5 l-149 -7 q24 33 50.5 73.5 q26.5 40.5 50.5 84.5 l5 9 q2 5 5.5 9.5 q3.5 4.5 6.5 9.5 q1 2 2 4 q1 2 2 4 l3 6 q11 20 21 40.5 q10 20.5 21 41.5 q8 16 2.5 30.5 q-5.5 14.5 -23.5 22.5 q-17 8 -31.5 2 q-14.5 -6 -21.5 -23 q-17 -42 -38 -83.5 q-21 -41.5 -40.5 -76.5 q-19.5 -35 -35.5 -61 q-16 -26 -24 -37 q-8 -13 -16.5 -24 q-8.5 -11 -16.5 -19 q-10 -12 -14.5 -26.5 q-4.5 -14.5 0.5 -32.5 q5 -17 18 -24 q13 -7 31 -4 q20 4 55 7.5 q35 3.5 91 7.5 q-31 -45 -61 -82 q-30 -37 -46 -52 q-3 -3 -4 -5 q-15 -18 -29 -32.5 q-14 -14.5 -27 -25.5 q-11 -11 -16.5 -25 q-5.5 -14 0.5 -30 q6 -17 19.5 -24.5 q13.5 -7.5 30.5 -5.5 q30 4 92 9.5 q62 5.5 178 12.5 q18 2 27.5 12 q9.5 10 11.5 27 l0 0 ZM918 37 l-814 0 q-17 0 -27.5 -11 q-10.5 -11 -10.5 -28 q0 -17 10.5 -27.5 q10.5 -10.5 27.5 -10.5 l814 0 q17 0 27 10.5 q10 10.5 10 27.5 q0 17 -10 28 q-10 11 -27 11 l0 0 Z" /><glyph glyph-name="uni4E24" unicode="&#x4e24;" d="M197 487 l151 0 q-2 -37 -7.5 -83 q-5.5 -46 -18 -93.5 q-12.5 -47.5 -33.5 -94 q-21 -46.5 -53 -85.5 q-12 -12 -12 -27 q0 -15 12 -26 q11 -12 25 -12.5 q14 -0.5 25 12.5 q39 49 63.5 109 q24.5 60 37.5 112 q15 -20 31 -44 q16 -24 29 -45 q10 -15 21.5 -16 q11.5 -1 23.5 13 l2 3 q10 13 11 29.5 q1 16.5 -7 30.5 q-17 27 -38 58 q-21 31 -42 57 q4 26 1 52.5 q-3 26.5 -1 49.5 l178 0 q-2 -36 -8.5 -82 q-6.5 -46 -20 -92.5 q-13.5 -46.5 -35 -92 q-21.5 -45.5 -54.5 -84.5 q-11 -14 -11.5 -29.5 q-0.5 -15.5 12.5 -28.5 q14 -15 29 -14 q15 1 27 15 q38 50 63.5 111.5 q25.5 61.5 38.5 114.5 q31 -39 62.5 -84.5 q31.5 -45.5 55.5 -82.5 q9 -14 20.5 -15 q11.5 -1 23.5 13 l0 0 q11 14 12 31 q1 17 -8 32 q-12 20 -28.5 44.5 q-16.5 24.5 -34.5 49.5 q-18 25 -37 50 q-19 25 -37 45 q4 25 1 50.5 q-3 25.5 -1 48.5 l162 0 l0 -485 q0 -12 -3.5 -18.5 q-3.5 -6.5 -19.5 -7.5 q-11 -1 -42.5 -1 q-31.5 0 -66.5 1 q-18 1 -29 -9.5 q-11 -10.5 -9 -28.5 q1 -19 13 -30 q12 -11 30 -11 q57 1 97.5 3.5 q40.5 2.5 62.5 10.5 q26 8 37 32 q11 24 11 57 l0 506 q0 25 -15 40.5 q-15 15.5 -41 15.5 l-186 0 l0 130 l245 0 q18 0 28.5 11 q10.5 11 10.5 28 q0 18 -10.5 28.5 q-10.5 10.5 -28.5 10.5 l-800 0 q-18 0 -28.5 -10.5 q-10.5 -10.5 -10.5 -28.5 q0 -17 10.5 -28 q10.5 -11 28.5 -11 l237 0 l0 -130 l-176 0 q-26 0 -41 -15.5 q-15 -15.5 -15 -40.5 l0 -569 q0 -18 11 -29 q11 -11 29 -11 q17 0 28.5 11 q11.5 11 11.5 29 l0 550 l0 0 ZM419 562 l0 130 l178 0 l0 -130 l-178 0 Z" /><glyph glyph-name="uni4E2A" unicode="&#x4e2a;" d="M511 701 q77 -92 160.5 -161 q83.5 -69 172.5 -123 l8 -5 q9 -5 19 -11 q10 -6 19 -11 q17 -9 33 -4.5 q16 4.5 26 22.5 l1 1 q9 17 4 32.5 q-5 15.5 -22 24.5 q-96 51 -193 122.5 q-97 71.5 -180 171.5 q4 5 7 10.5 q3 5.5 7 10.5 q7 11 4 20 q-3 9 -14 14 l-11 6 q-16 8 -31.5 3.5 q-15.5 -4.5 -25.5 -18.5 q-34 -50 -79.5 -99.5 q-45.5 -49.5 -97.5 -93 q-52 -43.5 -107.5 -80.5 q-55.5 -37 -111.5 -65 q-18 -9 -23.5 -25.5 q-5.5 -16.5 4.5 -33.5 q9 -19 26.5 -24.5 q17.5 -5.5 35.5 4.5 q37 21 73.5 45 q36.5 24 72.5 50 l8 6 q61 49 116.5 102 q55.5 53 98.5 109 l0 0 ZM511 548 q-19 0 -30.5 -11.5 q-11.5 -11.5 -11.5 -30.5 l0 -566 q0 -20 11.5 -31 q11.5 -11 30.5 -11 q19 0 30.5 11 q11.5 11 11.5 31 l0 566 q0 19 -11.5 30.5 q-11.5 11.5 -30.5 11.5 l0 0 Z" /><glyph glyph-name="uni4E2D" unicode="&#x4e2d;" d="M550 226 l305 0 q26 0 41 15.5 q15 15.5 15 41.5 l0 324 q0 26 -15 41.5 q-15 15.5 -41 15.5 l-305 0 l0 134 q0 18 -11.5 29.5 q-11.5 11.5 -29.5 11.5 q-19 0 -30 -11.5 q-11 -11.5 -11 -29.5 l0 -134 l-300 0 q-26 0 -41 -15.5 q-15 -15.5 -15 -41.5 l0 -326 q0 -26 15 -41.5 q15 -15.5 41 -15.5 l300 0 l0 -285 q0 -19 11 -30 q11 -11 30 -11 q18 0 29.5 11 q11.5 11 11.5 30 l0 287 l0 0 ZM191 303 l0 281 l277 0 l0 -281 l-277 0 ZM550 304 l0 280 l278 0 l0 -280 l-278 0 Z" /><glyph glyph-name="uni4E32" unicode="&#x4e32;&#xf905;" d="M549 62 l304 0 q26 0 41 15.5 q15 15.5 15 41.5 l0 194 q0 26 -15 41.5 q-15 15.5 -41 15.5 l-304 0 l0 79 l259 0 q26 0 41 15 q15 15 15 41 l0 164 q0 25 -15 40.5 q-15 15.5 -41 15.5 l-259 0 l0 72 q0 17 -11.5 28.5 q-11.5 11.5 -28.5 11.5 q-17 0 -28.5 -11.5 q-11.5 -11.5 -11.5 -28.5 l0 -72 l-253 0 q-26 0 -41 -15.5 q-15 -15.5 -15 -40.5 l0 -164 q0 -26 15 -41 q15 -15 41 -15 l253 0 l0 -79 l-293 0 q-25 0 -40.5 -15.5 q-15.5 -15.5 -15.5 -41.5 l0 -194 q0 -26 15.5 -41.5 q15.5 -15.5 40.5 -15.5 l293 0 l0 -124 q0 -18 11.5 -29 q11.5 -11 28.5 -11 q17 0 28.5 11 q11.5 11 11.5 29 l0 124 l0 0 ZM549 521 l0 131 l231 0 l0 -131 l-231 0 ZM240 521 l0 131 l229 0 l0 -131 l-229 0 ZM201 136 l0 158 l268 0 l0 -158 l-268 0 ZM549 137 l0 157 l275 0 l0 -157 l-275 0 Z" /><glyph glyph-name="uni4E34" unicode="&#x4e34;" d="M546 645 l377 0 q17 0 27.5 11 q10.5 11 10.5 28 q0 17 -10.5 27.5 q-10.5 10.5 -27.5 10.5 l-342 0 q5 14 11 30.5 q6 16.5 11 33.5 q5 18 -3 30.5 q-8 12.5 -26 17.5 q-17 4 -31.5 -5 q-14.5 -9 -19.5 -26 q-23 -78 -58.5 -151 q-35.5 -73 -77.5 -127 q-11 -14 -10 -29.5 q1 -15.5 15 -26.5 q15 -12 30.5 -10.5 q15.5 1.5 27.5 15.5 q26 38 50.5 81.5 q24.5 43.5 45.5 89.5 l0 0 ZM308 825 q-17 0 -28.5 -11 q-11.5 -11 -11.5 -29 l0 -840 q0 -18 11.5 -29 q11.5 -11 28.5 -11 q18 0 29 11 q11 11 11 29 l0 840 q0 18 -11 29 q-11 11 -29 11 l0 0 ZM138 721 q-17 0 -28 -11 q-11 -11 -11 -28 l0 -605 q0 -18 11 -28.5 q11 -10.5 28 -10.5 q18 0 28.5 10.5 q10.5 10.5 10.5 28.5 l0 605 q0 17 -10.5 28 q-10.5 11 -28.5 11 l0 0 ZM792 486 q-6 4 -11 8.5 q-5 4.5 -10 9.5 l-8 6 q-24 20 -50.5 43.5 q-26.5 23.5 -50.5 43.5 q-12 9 -25 8.5 q-13 -0.5 -24 -11.5 q-11 -11 -10.5 -24 q0.5 -13 11.5 -23 q10 -8 19 -17 q9 -9 18 -18 l8 -8 l13 -11 q14 -15 29 -28.5 q15 -13.5 27 -26.5 q13 -13 28.5 -13 q15.5 0 27.5 14 l10 10 q8 8 7.5 18.5 q-0.5 10.5 -9.5 18.5 l0 0 ZM877 381 l-385 0 q-26 0 -41.5 -15.5 q-15.5 -15.5 -15.5 -40.5 l0 -328 q0 -26 15.5 -41 q15.5 -15 41.5 -15 l385 0 q25 0 40.5 15 q15.5 15 15.5 41 l0 328 q0 25 -15.5 40.5 q-15.5 15.5 -40.5 15.5 l0 0 ZM715 16 l0 286 l138 0 l0 -286 l-138 0 ZM512 16 l0 286 l129 0 l0 -286 l-129 0 Z" /><glyph glyph-name="uni4E3A" unicode="&#x4e3a;" d="M487 522 l336 0 q-10 -240 -24.5 -367.5 q-14.5 -127.5 -35.5 -149.5 q-8 -8 -17.5 -12 q-9.5 -4 -23.5 -4 q-14 0 -41 0 q-27 0 -56 2 q-19 2 -30 -8.5 q-11 -10.5 -10 -29.5 q1 -19 12 -30.5 q11 -11.5 30 -12.5 q40 -2 72.5 -2.5 q32.5 -0.5 52.5 1.5 q26 2 48 12.5 q22 10.5 40 30.5 q12 15 21 51 q9 36 18 97 l1 6 q1 3 1 4 q0 1 0 3 q9 75 15.5 185.5 q6.5 110.5 12.5 261.5 l0 22 q1 9 -4.5 14.5 q-5.5 5.5 -15.5 5.5 l-390 0 l1 7 l0 6 l0 7 l0 10 l1 3 l0 5 l0 7 q1 18 1 34.5 q0 16.5 0 34.5 l0 79 q0 18 -11.5 29.5 q-11.5 11.5 -29.5 11.5 q-19 0 -30 -11.5 q-11 -11.5 -11 -29.5 l0 -78 q0 -27 1 -56.5 q1 -29.5 -1 -58.5 l-283 0 q-17 0 -28.5 -11 q-11.5 -11 -11.5 -29 q0 -17 11.5 -28.5 q11.5 -11.5 28.5 -11.5 l272 0 q-9 -58 -29.5 -126.5 q-20.5 -68.5 -55.5 -138.5 q-35 -70 -88 -136 q-53 -66 -126 -120 q-16 -11 -18.5 -27 q-2.5 -16 8.5 -31 q12 -17 28 -19.5 q16 -2.5 32 8.5 q84 62 142 137 q58 75 96.5 153.5 q38.5 78.5 59.5 156 q21 77.5 29 143.5 l0 0 ZM336 695 q-8 11 -17 22 q-9 11 -17 22 l-6 10 q-6 8 -12 15.5 q-6 7.5 -13 15.5 q-11 15 -27 19 q-16 4 -31 -3 l-4 -2 q-14 -7 -17.5 -18 q-3.5 -11 6.5 -23 q5 -8 9.5 -14.5 q4.5 -6.5 9.5 -14.5 l7 -9 q10 -15 20 -29 q10 -14 19 -27 q10 -15 26 -19.5 q16 -4.5 34 3.5 q17 8 20.5 22.5 q3.5 14.5 -7.5 29.5 l0 0 ZM692 231 q-5 7 -9 14 q-4 7 -9 14 l-5 8 q-9 13 -17.5 25.5 q-8.5 12.5 -17.5 24.5 l-6 10 q-8 12 -16.5 23.5 q-8.5 11.5 -16.5 23.5 q-9 14 -24.5 18 q-15.5 4 -30.5 -4 q-16 -8 -19.5 -20.5 q-3.5 -12.5 5.5 -26.5 q24 -35 48 -73 q24 -38 42 -69 q11 -16 26 -20 q15 -4 32 5 l7 3 q13 9 16 20.5 q3 11.5 -5 23.5 l0 0 Z" /><glyph glyph-name="uni4E3B" unicode="&#x4e3b;" d="M918 13 l-367 0 l0 255 l274 0 q18 0 28.5 11 q10.5 11 10.5 29 q0 18 -10.5 28.5 q-10.5 10.5 -28.5 10.5 l-274 0 l0 215 l316 0 q18 0 28.5 11 q10.5 11 10.5 28 q0 17 -10.5 28 q-10.5 11 -28.5 11 l-282 0 l24 16 q12 9 13.5 19 q1.5 10 -8.5 19 q-26 27 -64 59 q-38 32 -74 59 q-14 11 -31 10.5 q-17 -0.5 -31 -10.5 q-15 -11 -15 -23 q0 -12 15 -23 q41 -30 79.5 -65 q38.5 -35 62.5 -61 l-399 0 q-18 0 -28.5 -11 q-10.5 -11 -10.5 -28 q0 -17 10.5 -28 q10.5 -11 28.5 -11 l315 0 l0 -215 l-267 0 q-19 0 -29.5 -10.5 q-10.5 -10.5 -10.5 -28.5 q0 -18 10.5 -29 q10.5 -11 29.5 -11 l267 0 l0 -255 l-360 0 q-19 0 -30 -11 q-11 -11 -11 -30 q0 -17 11 -28.5 q11 -11.5 30 -11.5 l806 0 q17 0 28 11.5 q11 11.5 11 28.5 q0 19 -11 30 q-11 11 -28 11 l0 0 Z" /><glyph glyph-name="uni4E3E" unicode="&#x4e3e;" d="M551 721 q-13 20 -27.5 44.5 q-14.5 24.5 -28.5 46.5 q-10 14 -24.5 18.5 q-14.5 4.5 -30.5 -3.5 q-15 -7 -18.5 -19.5 q-3.5 -12.5 4.5 -27.5 q14 -22 28 -45.5 q14 -23.5 25 -44.5 q8 -15 23 -20.5 q15 -5.5 33 2.5 q16 7 20 21 q4 14 -4 28 l0 0 ZM389 572 l246 0 q21 -36 51 -73 q30 -37 64.5 -71 q34.5 -34 73.5 -63.5 q39 -29.5 78 -52.5 q17 -8 31.5 -3.5 q14.5 4.5 23.5 21.5 q9 16 3.5 30.5 q-5.5 14.5 -21.5 22.5 q-31 15 -62.5 37 q-31.5 22 -61.5 47 q-30 25 -56.5 52 q-26.5 27 -45.5 53 l209 0 q15 0 24.5 10 q9.5 10 9.5 26 q0 16 -9.5 25.5 q-9.5 9.5 -24.5 9.5 l-196 0 q22 24 47 55 q25 31 48 62 q13 16 8 30.5 q-5 14.5 -24 21.5 q-20 6 -36.5 -0.5 q-16.5 -6.5 -27.5 -24.5 q-21 -35 -48.5 -75 q-27.5 -40 -51.5 -69 l-344 0 l28 12 q12 5 16 16.5 q4 11.5 -3 22.5 q-14 22 -33 47 q-19 25 -38 47 q-11 13 -27.5 16 q-16.5 3 -31.5 -4 q-15 -8 -18 -20.5 q-3 -12.5 9 -25.5 q23 -29 45 -59.5 q22 -30.5 34 -51.5 l-173 0 q-16 0 -25.5 -9.5 q-9.5 -9.5 -9.5 -25.5 q0 -16 9.5 -26 q9.5 -10 25.5 -10 l212 0 q-19 -28 -45 -57.5 q-26 -29.5 -57 -56 q-31 -26.5 -63.5 -49.5 q-32.5 -23 -64.5 -39 q-15 -9 -20 -22 q-5 -13 4 -29 q8 -16 23 -20 q15 -4 29 4 q40 24 79 54 q39 30 73.5 65 q34.5 35 64 73.5 q29.5 38.5 49.5 76.5 l0 0 ZM551 105 l335 0 q17 0 28 11 q11 11 11 28 q0 18 -11 28.5 q-11 10.5 -28 10.5 l-335 0 l0 123 l192 0 q18 0 28 11 q10 11 10 28 q0 17 -10 27.5 q-10 10.5 -28 10.5 l-192 0 l0 86 q0 17 -11 28 q-11 11 -28 11 q-18 0 -29 -11 q-11 -11 -11 -28 l0 -86 l-182 0 q-18 0 -28.5 -10.5 q-10.5 -10.5 -10.5 -27.5 q0 -17 10.5 -28 q10.5 -11 28.5 -11 l182 0 l0 -123 l-326 0 q-17 0 -27.5 -10.5 q-10.5 -10.5 -10.5 -28.5 q0 -17 10.5 -28 q10.5 -11 27.5 -11 l326 0 l0 -172 q0 -17 11 -27.5 q11 -10.5 29 -10.5 q17 0 28 10.5 q11 10.5 11 27.5 l0 172 l0 0 Z" /><glyph glyph-name="uni4E43" unicode="&#x4e43;" d="M357 692 l282 0 q-6 -26 -13.5 -55.5 q-7.5 -29.5 -14.5 -58.5 l-3 -12 l-6 -26 l-2 -9 q-1 -1 -1 -2 q0 -1 -1 -3 l-1 -7 q-7 -26 -13.5 -52.5 q-6.5 -26.5 -14.5 -49.5 q-10 -35 5 -55.5 q15 -20.5 51 -20.5 l191 0 q-8 -146 -22 -227.5 q-14 -81.5 -31 -97.5 q-8 -8 -19 -10.5 q-11 -2.5 -27 -2.5 q-16 0 -50 1 q-34 1 -70 3 q-18 1 -29 -9 q-11 -10 -10 -30 q0 -18 12 -30 q12 -12 30 -13 q48 -2 86.5 -3 q38.5 -1 58.5 1 q29 2 52.5 11.5 q23.5 9.5 40.5 28.5 q25 25 39.5 128 q14.5 103 24.5 290 q0 3 0.5 8.5 q0.5 5.5 0.5 10.5 q0 10 -5.5 15.5 q-5.5 5.5 -14.5 5.5 l-221 0 q11 36 21 79 q10 43 22 89 l2 10 q3 12 5.5 24 q2.5 12 4.5 24 l2 8 q1 1 1 2 q0 1 1 3 l1 8 l2 10 q2 11 5 23 q3 12 5 23 q5 20 -5 33 q-10 13 -32 13 l-546 0 q-18 0 -28.5 -10.5 q-10.5 -10.5 -10.5 -28.5 q0 -17 10.5 -28 q10.5 -11 28.5 -11 l125 0 l0 -25 q0 -62 -7 -145.5 q-7 -83.5 -28.5 -175 q-21.5 -91.5 -62 -183 q-40.5 -91.5 -106.5 -168.5 q-14 -17 -13.5 -34.5 q0.5 -17.5 15.5 -32.5 q14 -14 31.5 -14 q17.5 0 30.5 16 q71 83 114.5 182.5 q43.5 99.5 67 199.5 q23.5 100 31.5 192 q8 92 8 160 l0 28 l0 0 Z" /><glyph glyph-name="uni4E45" unicode="&#x4e45;" d="M558 314 q27 -57 61.5 -115 q34.5 -58 76.5 -110.5 q42 -52.5 91 -97 q49 -44.5 102 -76.5 q17 -10 33.5 -4.5 q16.5 5.5 25.5 22.5 q9 19 3.5 34.5 q-5.5 15.5 -22.5 25.5 q-51 30 -100 75 q-49 45 -91 99 q-42 54 -75 114 q-33 60 -55 118 q22 46 40 101.5 q18 55.5 32 111.5 l3 11 q1 5 2 9 q1 4 2 8 q2 8 -1 15 q-3 7 -11 10 l-39 18 q-4 0 -5 -2 l-2 -3 l-246 0 q11 21 22 47 q11 26 21 51 q8 20 0 33.5 q-8 13.5 -28 18.5 q-19 6 -35 -3 q-16 -9 -23 -27 q-23 -59 -51 -115.5 q-28 -56.5 -60 -109 q-32 -52.5 -68 -98.5 q-36 -46 -74 -82 q-14 -14 -15 -31.5 q-1 -17.5 13 -31.5 q14 -16 31.5 -16.5 q17.5 -0.5 31.5 14.5 q55 55 105.5 126 q50.5 71 89.5 147 l252 0 q-30 -102 -80.5 -196.5 q-50.5 -94.5 -114.5 -173 q-64 -78.5 -139 -140.5 q-75 -62 -151 -102 q-19 -9 -24.5 -25.5 q-5.5 -16.5 4.5 -34.5 q9 -17 26 -23 q17 -6 36 3 q61 32 118 76 q57 44 108.5 96.5 q51.5 52.5 97 112 q45.5 59.5 82.5 120.5 l0 0 Z" /><glyph glyph-name="uni4E48" unicode="&#x4e48;" d="M495 810 q-19 6 -36 0 q-17 -6 -28 -23 q-28 -43 -65 -90 q-37 -47 -78.5 -92.5 q-41.5 -45.5 -85.5 -87 q-44 -41.5 -87 -75.5 q-16 -12 -18 -28 q-2 -16 11 -30 q11 -14 27.5 -16 q16.5 -2 30.5 9 q19 15 38 32 q19 17 39 35 l7 8 q20 19 39.5 39 q19.5 20 39.5 40 l7 9 q50 55 95 111 q45 56 81 109 q11 16 6 30 q-5 14 -23 20 l0 0 ZM936 -9 q-21 38 -49 83 q-28 45 -60 93 l-6 9 l-1 3 l-4 4 l-5 7 q-19 30 -39 57.5 q-20 27.5 -40 52.5 q-11 14 -28 18 q-17 4 -33 -5 q-18 -8 -21 -21.5 q-3 -13.5 8 -29.5 q14 -17 28 -36.5 q14 -19.5 29 -39.5 l6 -9 l6 -8 q27 -41 49 -72 l-496 -44 q41 36 82 78 q41 42 84 89 l8 8 q8 10 16.5 19.5 q8.5 9.5 16.5 19.5 l8 8 q17 20 34 40.5 q17 20.5 34 40.5 l6 9 l5 5 q1 2 2.5 3 q1.5 1 2.5 3 l4 6 l7 8 l7 8 l9 13 l7 9 l43 55 l6 5 q1 2 2 3 q1 1 2 3 l4 7 l9 12 l10 13 q6 8 13 17 q7 9 13 17 l6 8 q3 5 6.5 8.5 q3.5 3.5 6.5 9.5 l6 8 l3 4 q2 2 1.5 3.5 q-0.5 1.5 -2.5 2.5 l-36 18 q-19 10 -37.5 5 q-18.5 -5 -30.5 -21 q-13 -18 -26 -36 q-13 -18 -27 -37 l-7 -10 q-12 -14 -22 -27.5 q-10 -13.5 -21 -26.5 l-8 -10 q-43 -55 -84.5 -104.5 q-41.5 -49.5 -77.5 -90.5 q-36 -41 -65 -70.5 q-29 -29.5 -45 -44.5 q-28 -24 -52.5 -46 q-24.5 -22 -43.5 -37 q-16 -11 -22 -27 q-6 -16 0 -35 q7 -19 22.5 -27 q15.5 -8 35.5 -5 q24 4 68 8.5 q44 4.5 117 12 q73 7.5 181 16.5 q108 9 261 23 q12 -18 21.5 -37.5 q9.5 -19.5 18.5 -37.5 q8 -18 23.5 -23.5 q15.5 -5.5 33.5 4.5 q17 11 22 27 q5 16 -5 34 l0 0 Z" /><glyph glyph-name="uni4E4B" unicode="&#x4e4b;" d="M253 48 q14 0 36 -18.5 q22 -18.5 50 -43.5 q5 -4 11 -8 q47 -24 110.5 -37 q63.5 -13 147.5 -13 q33 0 78 0.5 q45 0.5 94 2.5 l12 1 q33 1 66 2 q33 1 60 4 q19 2 31 14 q12 12 12 32 q0 19 -12 30 q-12 11 -31 9 q-32 -4 -71 -6.5 q-39 -2.5 -79.5 -4.5 q-40.5 -2 -81 -3 q-40.5 -1 -75.5 -1 q-80 0 -139.5 9.5 q-59.5 9.5 -104.5 39.5 q-2 1 -3.5 2 q-1.5 1 -3.5 2 q-6 4 -11.5 8.5 q-5.5 4.5 -10.5 8.5 q59 36 120 85 q61 49 122 104 l8 7 q14 15 29 29 q15 14 29 29 l7 8 q6 5 12 11 q6 6 11 13 l8 7 l3 4 l7 8 q47 49 88 98.5 q41 49.5 74 96.5 q9 14 6.5 28 q-2.5 14 -15.5 24 l-25 15 q-2 2 -6 3 q-4 1 -7 0 l-8 -3 l-255 0 l31 18 q14 7 16.5 19 q2.5 12 -5.5 27 q-9 14 -20.5 30 q-11.5 16 -22.5 33 l-7 9 l-22 31 q-9 13 -24.5 17 q-15.5 4 -29.5 -5 l-1 0 q-17 -8 -20.5 -22.5 q-3.5 -14.5 6.5 -28.5 q22 -33 44.5 -68.5 q22.5 -35.5 36.5 -59.5 l-373 0 q-18 0 -28.5 -10.5 q-10.5 -10.5 -10.5 -28.5 q0 -17 10.5 -28 q10.5 -11 28.5 -11 l587 0 q-33 -46 -77 -96.5 q-44 -50.5 -97 -102.5 l-8 -8 q-3 -3 -5.5 -6 q-2.5 -3 -5.5 -6 l-5 -5 q-2 -1 -3 -2 q-1 -1 -2 -3 q-5 -5 -11 -9.5 q-6 -4.5 -11 -10.5 l-8 -8 q-59 -55 -121 -103.5 q-62 -48.5 -123 -83.5 q-4 3 -12 3 q-31 0 -73.5 -29.5 q-42.5 -29.5 -84.5 -71.5 q-15 -16 -15.5 -36 q-0.5 -20 13.5 -37 q13 -17 28.5 -16 q15.5 1 29.5 18 q28 39 55.5 66.5 q27.5 27.5 46.5 27.5 l0 0 Z" /><glyph glyph-name="uni4E50" unicode="&#x4e50;" d="M528 -85 q23 8 33.5 31 q10.5 23 10.5 56 l0 359 l323 0 q17 0 28.5 11.5 q11.5 11.5 11.5 28.5 q0 18 -11.5 29 q-11.5 11 -28.5 11 l-323 0 l0 163 q0 18 -10.5 28.5 q-10.5 10.5 -27.5 10.5 q-19 0 -29.5 -10.5 q-10.5 -10.5 -10.5 -28.5 l0 -163 l-272 0 q9 34 17 74 q8 40 14 82 l2 11 l1 7 q1 2 1 3.5 q0 1.5 0 3.5 l1 7 q2 16 4 31.5 q2 15.5 4 30.5 q38 1 78 2.5 q40 1.5 81 4.5 l11 0 l77 7 l11 1 l5 0 l9 1 q4 0 6 1 l2 0 l11 1 l5 0 l11 1 q75 8 144.5 17.5 q69.5 9.5 126.5 23.5 q18 4 22.5 15.5 q4.5 11.5 -5.5 27.5 l-1 1 q-10 14 -27 20.5 q-17 6.5 -34 2.5 q-47 -10 -106.5 -18 q-59.5 -8 -126.5 -15 l-10 -1 l-39 -3 l-11 -1 l-11 -1 q-6 -1 -12 -1 q-6 0 -11 -1 l-13 -1 l-6 0 l-3 -1 l-18 -1 l-39 -3 l-8 0 l-6 0 l-3 -1 l-8 0 l-6 0 l-3 -1 l-11 -1 q-8 0 -15 -0.5 q-7 -0.5 -16 -0.5 l-6 0 l-7 -1 l-11 -1 l-17 -1 l-11 0 q-10 0 -19.5 -0.5 q-9.5 -0.5 -19.5 -1.5 q-17 -1 -28 -12.5 q-11 -11.5 -12 -28.5 q-2 -37 -6.5 -74.5 q-4.5 -37.5 -10 -69.5 q-5.5 -32 -10.5 -55.5 q-5 -23.5 -8 -34.5 q-4 -13 -7.5 -23.5 q-3.5 -10.5 -8.5 -19.5 q-5 -11 -6.5 -24.5 q-1.5 -13.5 6.5 -28.5 l1 -1 q8 -16 19 -24.5 q11 -8.5 20 -7.5 q14 1 38.5 2 q24.5 1 53.5 1 l227 0 l0 -357 q0 -12 -6 -17.5 q-6 -5.5 -18 -8.5 q-9 2 -32 2 q-23 0 -51 0 q-18 1 -29 -10.5 q-11 -11.5 -9 -29.5 q1 -18 13 -29 q12 -11 30 -11 q51 0 82.5 3.5 q31.5 3.5 53.5 11.5 l0 0 ZM295 265 q-17 6 -33.5 0 q-16.5 -6 -27.5 -21 q-30 -49 -70.5 -102.5 q-40.5 -53.5 -77.5 -92.5 q-13 -13 -13 -28.5 q0 -15.5 13 -29.5 q13 -14 29.5 -13.5 q16.5 0.5 28.5 15.5 q42 46 87 107.5 q45 61.5 81 116.5 q11 15 5.5 28.5 q-5.5 13.5 -22.5 19.5 l0 0 ZM948 43 q-15 23 -34.5 49 q-19.5 26 -40.5 53 q-21 27 -43 53.5 q-22 26.5 -43 50.5 q-11 13 -27.5 16 q-16.5 3 -31.5 -4 q-16 -8 -18 -20.5 q-2 -12.5 9 -25.5 q20 -24 41 -51.5 q21 -27.5 41.5 -55.5 q20.5 -28 39.5 -54.5 q19 -26.5 33 -50.5 q11 -16 26.5 -20.5 q15.5 -4.5 33.5 4.5 q16 9 20 24.5 q4 15.5 -6 31.5 l0 0 Z" /><glyph glyph-name="uni4E5F" unicode="&#x4e5f;" d="M925 167 q-18 2 -29.5 -6.5 q-11.5 -8.5 -13.5 -26.5 q-5 -37 -16 -63.5 q-11 -26.5 -33 -43.5 q-22 -17 -59.5 -25 q-37.5 -8 -95.5 -8 l-173 0 q-68 0 -106.5 5 q-38.5 5 -58 16.5 q-19.5 11.5 -25 29 q-5.5 17.5 -5.5 42.5 l0 348 l196 63 l0 -334 q0 -19 10.5 -29.5 q10.5 -10.5 29.5 -10.5 q17 0 28 10.5 q11 10.5 11 29.5 l0 359 l219 72 q-2 -106 -9 -180.5 q-7 -74.5 -18 -105.5 q-9 -28 -21.5 -37.5 q-12.5 -9.5 -28.5 -9.5 l-10 0 l-46 0 q-17 1 -27 -8.5 q-10 -9.5 -9 -26.5 q0 -17 10 -28 q10 -11 27 -11 q26 0 51.5 1.5 q25.5 1.5 40.5 5.5 q24 3 47.5 22.5 q23.5 19.5 37.5 55.5 q7 21 12.5 57.5 q5.5 36.5 10 84.5 q4.5 48 7 107.5 q2.5 59.5 3.5 125.5 l2 8 q1 3 -0.5 6 q-1.5 3 -4.5 5 l-40 17 q-4 2 -9 1.5 q-5 -0.5 -8 -3.5 l-8 -6 l-7 -5 l-222 -76 l0 203 q0 17 -11 28 q-11 11 -28 11 q-19 0 -29.5 -11 q-10.5 -11 -10.5 -28 l0 -226 l-196 -61 l0 222 q0 18 -10.5 28.5 q-10.5 10.5 -28.5 10.5 q-17 0 -28 -10.5 q-11 -10.5 -11 -28.5 l0 -247 l-152 -44 q-18 -5 -24.5 -17.5 q-6.5 -12.5 -1.5 -30.5 q5 -17 18 -23.5 q13 -6.5 30 -1.5 l130 42 l0 -322 q0 -44 11 -76 q11 -32 41 -53 q30 -21 84 -31 q54 -10 139 -10 l172 0 q77 0 127.5 12.5 q50.5 12.5 82 37.5 q31.5 25 47.5 63 q16 38 23 89 q3 17 -7 30 q-10 13 -27 16 l0 0 Z" /><glyph glyph-name="uni4E66" unicode="&#x4e66;" d="M508 319 l361 0 q-9 -102 -20 -160.5 q-11 -58.5 -26 -70.5 q-8 -6 -17 -8 q-9 -2 -24 -2 q-13 0 -43 0 q-30 0 -61 2 q-18 1 -28 -9 q-10 -10 -9 -27 q1 -17 11.5 -28 q10.5 -11 27.5 -12 q42 -2 77 -2.5 q35 -0.5 52 1.5 q24 2 46 9.5 q22 7.5 36 23.5 q20 21 35.5 100.5 q15.5 79.5 25.5 222.5 q1 5 1.5 9.5 q0.5 4.5 0.5 9.5 q1 9 -3.5 14 q-4.5 5 -13.5 5 l-130 0 l0 211 q0 26 -15.5 41.5 q-15.5 15.5 -40.5 15.5 l-243 0 l0 130 q0 17 -11 28 q-11 11 -28 11 q-18 0 -29 -11 q-11 -11 -11 -28 l0 -130 l-248 0 q-17 0 -28 -10.5 q-11 -10.5 -11 -27.5 q0 -18 11 -28.5 q11 -10.5 28 -10.5 l248 0 l0 -191 l-316 0 q-18 0 -28.5 -10.5 q-10.5 -10.5 -10.5 -28.5 q0 -17 10.5 -28 q10.5 -11 28.5 -11 l316 0 l0 -382 q0 -18 11 -28.5 q11 -10.5 29 -10.5 q17 0 28 10.5 q11 10.5 11 28.5 l0 382 l0 0 ZM931 695 q-30 21 -66.5 46 q-36.5 25 -68.5 47 q-14 10 -28 8 q-14 -2 -26 -14 q-11 -12 -9.5 -25.5 q1.5 -13.5 15.5 -23.5 q32 -23 68 -50 q36 -27 65 -48 q14 -11 30 -9.5 q16 1.5 27 15.5 q11 14 9 28.5 q-2 14.5 -16 25.5 l0 0 ZM508 397 l0 191 l221 0 l0 -191 l-221 0 Z" /><glyph glyph-name="uni4E71" unicode="&#x4e71;" d="M483 324 l-122 0 l0 164 l181 0 q16 0 26.5 10.5 q10.5 10.5 10.5 27.5 q0 17 -10.5 27 q-10.5 10 -26.5 10 l-181 0 l0 156 q42 7 82 16 q40 9 76 21 q18 6 21.5 17.5 q3.5 11.5 -10.5 26.5 l-3 3 q-11 12 -28 16.5 q-17 4.5 -33 -0.5 q-49 -14 -111.5 -27 q-62.5 -13 -130.5 -24 l-11 -1 q-28 -5 -55 -8.5 q-27 -3.5 -54 -6.5 q-16 -2 -21 -12 q-5 -10 0 -24 l0 -1 q5 -15 16.5 -23.5 q11.5 -8.5 27.5 -6.5 q15 2 31.5 3.5 q16.5 1.5 34.5 3.5 l10 2 q22 2 43 5 q21 3 41 7 l0 -143 l-197 0 q-17 0 -27.5 -10 q-10.5 -10 -10.5 -27 q0 -17 10.5 -27.5 q10.5 -10.5 27.5 -10.5 l197 0 l0 -164 l-124 0 q-26 0 -41.5 -15.5 q-15.5 -15.5 -15.5 -41.5 l0 -258 q0 -25 15.5 -40.5 q15.5 -15.5 41.5 -15.5 l320 0 q26 0 41.5 15.5 q15.5 15.5 15.5 40.5 l0 258 q0 26 -15.5 41.5 q-15.5 15.5 -41.5 15.5 l0 0 ZM936 171 q-17 2 -27 -6.5 q-10 -8.5 -12 -25.5 q-4 -79 -18.5 -115 q-14.5 -36 -58.5 -36 l-59 0 q-24 0 -37.5 3 q-13.5 3 -20.5 10 q-7 7 -9 19.5 q-2 12.5 -2 29.5 l0 737 q0 18 -11 29 q-11 11 -29 11 q-18 0 -29.5 -11 q-11.5 -11 -11.5 -29 l0 -736 q0 -36 7 -62 q7 -26 23.5 -43 q16.5 -17 44.5 -25 q28 -8 71 -8 l66 0 q39 0 65.5 13.5 q26.5 13.5 43.5 40 q17 26.5 26 67 q9 40.5 13 94.5 q1 16 -8.5 28 q-9.5 12 -26.5 15 l0 0 ZM182 27 l0 223 l278 0 l0 -223 l-278 0 Z" /><glyph glyph-name="uni4E86" unicode="&#x4e86;" d="M503 -88 q28 8 41 31.5 q13 23.5 13 59.5 l0 449 q39 21 81.5 49.5 q42.5 28.5 84.5 60.5 q42 32 81 65 q39 33 70 65 q14 14 13 28 q-1 14 -16 25 l-23 18 q-4 3 -8.5 4 q-4.5 1 -9.5 -1 l-9 -3 l-669 0 q-19 0 -29.5 -11 q-10.5 -11 -10.5 -28 q0 -18 10.5 -29 q10.5 -11 29.5 -11 l594 0 q-23 -21 -52 -45 q-29 -24 -61 -47 q-32 -23 -64.5 -44 q-32.5 -21 -64.5 -38 q-15 -8 -23 -22 q-8 -14 -8 -29 l0 -456 q0 -12 -4.5 -18.5 q-4.5 -6.5 -18.5 -7.5 q-15 0 -50 -0.5 q-35 -0.5 -76 0.5 q-19 0 -29 -10.5 q-10 -10.5 -8 -28.5 q2 -18 13.5 -29 q11.5 -11 30.5 -11 q63 1 105.5 3.5 q42.5 2.5 66.5 10.5 l0 0 Z" /><glyph glyph-name="uni4E88" unicode="&#x4e88;" d="M511 -86 q25 8 36.5 30 q11.5 22 11.5 55 l0 392 l275 0 q-21 -31 -46.5 -65.5 q-25.5 -34.5 -49.5 -64.5 q-11 -13 -8.5 -26.5 q2.5 -13.5 16.5 -22.5 q15 -10 31 -8 q16 2 27 15 q36 40 72.5 93 q36.5 53 68.5 102 q8 14 4.5 26.5 q-3.5 12.5 -17.5 19.5 l-26 11 q-3 2 -7 2.5 q-4 0.5 -7 -1.5 l-8 -4 l-209 0 l9 15 q4 6 2 12.5 q-2 6.5 -9 10.5 q-18 8 -39 17 q-21 9 -44 20 q56 37 116.5 84.5 q60.5 47.5 111.5 93.5 q13 11 12.5 24 q-0.5 13 -14.5 23 l-23 18 q-2 2 -6 3 q-4 1 -6 -1 l-7 -3 l-577 0 q-18 0 -27.5 -9.5 q-9.5 -9.5 -9.5 -26.5 q0 -18 9.5 -27.5 q9.5 -9.5 27.5 -9.5 l498 0 q-39 -33 -87 -69 q-48 -36 -93 -61 q-7 3 -14 6 q-7 3 -15 6 l-10 4 l-19 9 l-9 4 q-20 9 -39 17.5 q-19 8.5 -37 16.5 q-16 7 -30.5 2.5 q-14.5 -4.5 -23.5 -18.5 q-11 -15 -7.5 -27 q3.5 -12 19.5 -18 q24 -12 51.5 -24 q27.5 -12 53.5 -24 l10 -5 q36 -17 71.5 -33 q35.5 -16 65.5 -30 l-481 0 q-17 0 -27.5 -10.5 q-10.5 -10.5 -10.5 -27.5 q0 -17 10.5 -28 q10.5 -11 27.5 -11 l373 0 l0 -391 q0 -11 -4 -15.5 q-4 -4.5 -15 -6.5 q-13 0 -42 -0.5 q-29 -0.5 -61 0.5 q-18 0 -28.5 -10 q-10.5 -10 -8.5 -28 q3 -18 14 -28.5 q11 -10.5 29 -10.5 q55 1 91 3.5 q36 2.5 58 9.5 l0 0 Z" /><glyph glyph-name="uni4E8B" unicode="&#x4e8b;" d="M504 -94 q21 8 32 28.5 q11 20.5 11 53.5 l0 72 l232 0 l0 -24 q0 -11 7 -18 q7 -7 18 -7 l14 0 q18 0 28.5 11 q10.5 11 10.5 28 l0 149 l75 0 q14 0 23.5 9 q9.5 9 9.5 23 q0 15 -9.5 24 q-9.5 9 -23.5 9 l-75 0 l0 73 q0 25 -15.5 40.5 q-15.5 15.5 -40.5 15.5 l-254 0 l0 66 l239 0 q26 0 41.5 15 q15.5 15 15.5 41 l0 71 q0 25 -15.5 40.5 q-15.5 15.5 -41.5 15.5 l-239 0 l0 49 l364 0 q16 0 25 9.5 q9 9.5 9 24.5 q0 15 -9 24.5 q-9 9.5 -25 9.5 l-364 0 l0 40 q0 17 -10.5 27.5 q-10.5 10.5 -27.5 10.5 q-17 0 -27.5 -10.5 q-10.5 -10.5 -10.5 -27.5 l0 -40 l-356 0 q-16 0 -25 -9.5 q-9 -9.5 -9 -24.5 q0 -15 9 -24.5 q9 -9.5 25 -9.5 l356 0 l0 -49 l-227 0 q-26 0 -41.5 -15.5 q-15.5 -15.5 -15.5 -40.5 l0 -71 q0 -26 15.5 -41 q15.5 -15 41.5 -15 l227 0 l0 -66 l-282 0 q-14 0 -22 -8 q-8 -8 -8 -23 q0 -14 8 -22 q8 -8 22 -8 l282 0 l0 -68 l-377 0 q-14 0 -23.5 -9 q-9.5 -9 -9.5 -24 q0 -14 9.5 -23 q9.5 -9 23.5 -9 l377 0 l0 -76 l-290 0 q-14 0 -22.5 -8.5 q-8.5 -8.5 -8.5 -22.5 q0 -14 8.5 -23 q8.5 -9 22.5 -9 l290 0 l0 -72 q0 -13 -5.5 -19.5 q-5.5 -6.5 -20.5 -7.5 q-8 0 -32.5 -0.5 q-24.5 -0.5 -53.5 0.5 q-15 0 -24 -9 q-9 -9 -7 -25 q2 -15 12 -25 q10 -10 26 -10 q52 2 85 4.5 q33 2.5 53 9.5 l0 0 ZM547 517 l0 67 l217 0 l0 -67 l-217 0 ZM263 517 l0 67 l208 0 l0 -67 l-208 0 ZM547 264 l0 68 l232 0 l0 -68 l-232 0 ZM547 123 l0 76 l232 0 l0 -76 l-232 0 Z" /><glyph glyph-name="uni4E8E" unicode="&#x4e8e;" d="M509 -83 q27 8 40 33.5 q13 25.5 13 64.5 l0 347 l354 0 q18 0 29 11.5 q11 11.5 11 29.5 q0 18 -11 29 q-11 11 -29 11 l-354 0 l0 244 l283 0 q17 0 28.5 11.5 q11.5 11.5 11.5 29.5 q0 17 -11.5 28.5 q-11.5 11.5 -28.5 11.5 l-665 0 q-18 0 -29.5 -11.5 q-11.5 -11.5 -11.5 -28.5 q0 -18 11.5 -29.5 q11.5 -11.5 29.5 -11.5 l300 0 l0 -244 l-371 0 q-19 0 -30 -11 q-11 -11 -11 -29 q0 -18 11 -29.5 q11 -11.5 30 -11.5 l371 0 l0 -347 q0 -15 -6 -21.5 q-6 -6.5 -20 -7.5 q-7 0 -19 -0.5 q-12 -0.5 -29 -0.5 l-11 0 q-14 0 -30.5 0 q-16.5 0 -32.5 1 q-20 0 -30.5 -11.5 q-10.5 -11.5 -8.5 -30.5 q2 -19 15 -30.5 q13 -11.5 32 -11.5 q63 1 104.5 4 q41.5 3 64.5 11 l0 0 Z" /><glyph glyph-name="uni4E91" unicode="&#x4e91;" d="M809 760 l-586 0 q-19 0 -30.5 -11.5 q-11.5 -11.5 -11.5 -29.5 q0 -20 11.5 -31 q11.5 -11 30.5 -11 l586 0 q18 0 29.5 11 q11.5 11 11.5 31 q0 18 -11.5 29.5 q-11.5 11.5 -29.5 11.5 l0 0 ZM910 -20 q-17 30 -40 68.5 q-23 38.5 -48.5 78.5 q-25.5 40 -52.5 80 q-27 40 -51 75 q-11 14 -27.5 17.5 q-16.5 3.5 -33.5 -4.5 q-16 -9 -19 -24 q-3 -15 7 -29 q13 -19 26.5 -39.5 q13.5 -20.5 26.5 -40.5 l7 -9 q11 -19 22 -36.5 q11 -17.5 22 -33.5 l-485 -40 q30 36 59 79.5 q29 43.5 58 92.5 l5 9 l3 4 l5 10 l3 5 l5 9 q8 11 14 23 q6 12 13 24 l5 9 q12 24 24.5 46.5 q12.5 22.5 24.5 43.5 l431 0 q19 0 30 11.5 q11 11.5 11 29.5 q0 19 -11 30 q-11 11 -30 11 l-803 0 q-19 0 -30 -11 q-11 -11 -11 -30 q0 -18 11 -29.5 q11 -11.5 30 -11.5 l265 0 l-20 -38 l-6 -11 q-20 -40 -41.5 -79 q-21.5 -39 -41 -71.5 q-19.5 -32.5 -35.5 -57 q-16 -24.5 -25 -36.5 q-11 -15 -22.5 -29 q-11.5 -14 -21.5 -25 q-12 -13 -18 -31 q-6 -18 1 -38 q7 -21 23 -29 q16 -8 37 -4 q23 4 64 9.5 q41 5.5 110 12.5 q69 7 170 17 q101 10 245 22 q11 -18 21.5 -38 q10.5 -20 20.5 -40 q9 -17 25 -21.5 q16 -4.5 33 6.5 q16 11 21 28 q5 17 -6 35 l0 0 Z" /><glyph glyph-name="uni4E92" unicode="&#x4e92;" d="M922 16 l-208 0 q6 40 12.5 87 q6.5 47 12.5 98 l1 7 q1 2 1 3 q0 1 0 3 q1 8 2 15.5 q1 7.5 2 15.5 l4 22 l3 23 l1 11 q8 60 14.5 116 q6.5 56 11.5 101 q2 14 -5.5 23.5 q-7.5 9.5 -20.5 11.5 l-23 2 q-4 1 -8 0.5 q-4 -0.5 -7 -2.5 l-7 -3 l-331 0 q4 20 6 39.5 q2 19.5 4 40.5 l1 7 l0 6 l0 6 l6 54 l498 0 q17 0 28 11 q11 11 11 28 q0 18 -11 28.5 q-11 10.5 -28 10.5 l-753 0 q-17 0 -28 -10.5 q-11 -10.5 -11 -28.5 q0 -17 11 -28 q11 -11 28 -11 l180 0 q-9 -55 -21 -122.5 q-12 -67.5 -27 -136.5 l-3 -11 q-9 -47 -18.5 -92 q-9.5 -45 -19.5 -84 q-8 -33 7.5 -52.5 q15.5 -19.5 49.5 -19.5 l367 0 q-2 -15 -4 -31.5 q-2 -16.5 -4 -33.5 l-1 -10 l0 -2 q-1 -3 -1 -4 q0 -1 0 -3 l-1 -8 q-2 -20 -4.5 -39.5 q-2.5 -19.5 -4.5 -37.5 l-528 0 q-18 0 -29 -11 q-11 -11 -11 -30 q0 -17 11 -28.5 q11 -11.5 29 -11.5 l816 0 q17 0 28.5 11.5 q11.5 11.5 11.5 28.5 q0 19 -11.5 30 q-11.5 11 -28.5 11 l0 0 ZM315 261 q8 30 15 64.5 q7 34.5 14 71.5 l2 12 q4 17 7 34 q3 17 6 34 l330 0 q-5 -43 -9.5 -101.5 q-4.5 -58.5 -12.5 -114.5 l-352 0 Z" /><glyph glyph-name="uni4E94" unicode="&#x4e94;" d="M918 36 l-168 0 q3 32 6.5 68 q3.5 36 7.5 75 l1 9 l0 5 q0 2 0.5 4.5 q0.5 2.5 0.5 4.5 l2 16 q5 55 9 108.5 q4 53.5 7 96.5 q1 14 -6.5 23 q-7.5 9 -21.5 11 l-24 2 q-3 1 -7 0.5 q-4 -0.5 -6 -2.5 l-7 -3 l-242 0 q2 17 5 34.5 q3 17.5 5 35.5 l1 11 q1 4 1 5 q0 2 0.5 5 q0.5 3 1.5 5 l0 5 q4 29 7.5 56.5 q3.5 27.5 7.5 52.5 l345 0 q17 0 28 10.5 q11 10.5 11 28.5 q0 18 -11 28.5 q-11 10.5 -28 10.5 l-669 0 q-18 0 -29 -10.5 q-11 -10.5 -11 -28.5 q0 -18 11 -28.5 q11 -10.5 29 -10.5 l241 0 q-4 -30 -8 -62.5 q-4 -32.5 -9 -64.5 l-1 -11 l-1 -7 q-1 -2 -1 -3 q0 -1 0 -3 l-1 -4 l0 -6 q0 -2 -0.5 -3.5 q-0.5 -1.5 -0.5 -3.5 l-2 -12 l-1 -10 l-4 -20 l-157 0 q-17 0 -28 -11 q-11 -11 -11 -28 q0 -18 11 -28.5 q11 -10.5 28 -10.5 l142 0 q-3 -21 -6.5 -42 q-3.5 -21 -6.5 -41 l-1 -11 q-9 -68 -17 -133 q-8 -65 -19 -113 l-211 0 q-18 0 -29 -11.5 q-11 -11.5 -11 -28.5 q0 -18 11 -29 q11 -11 29 -11 l807 0 q17 0 28 11 q11 11 11 29 q0 17 -11 28.5 q-11 11.5 -28 11.5 l0 0 ZM407 36 q7 36 13 80 q6 44 12 93 l2 11 l1 11 q2 12 2.5 22 q0.5 10 2.5 21 l2 12 q3 23 6.5 45.5 q3.5 22.5 6.5 44.5 l241 0 q-3 -33 -6 -76 q-3 -43 -6.5 -89 q-3.5 -46 -7 -91.5 q-3.5 -45.5 -7.5 -83.5 l-262 0 Z" /><glyph glyph-name="uni4E9B" unicode="&#x4e9b;" d="M519 395 q-1 18 -10.5 26.5 q-9.5 8.5 -27.5 6.5 l-121 -14 l0 181 l115 0 q17 0 27 10 q10 10 10 28 q0 16 -10 26.5 q-10 10.5 -27 10.5 l-115 0 l0 129 q0 17 -10.5 28 q-10.5 11 -27.5 11 q-18 0 -28.5 -11 q-10.5 -11 -10.5 -28 l0 -398 l-84 -8 l0 300 q0 18 -10.5 28 q-10.5 10 -27.5 10 q-18 0 -28 -10 q-10 -10 -10 -28 l0 -311 l-34 -2 q-16 -1 -24.5 -11 q-8.5 -10 -6.5 -25 l1 -6 q2 -17 15 -27 q13 -10 30 -8 q48 5 104.5 13 q56.5 8 117.5 16 l16 2 l11 2 q8 1 15.5 2 q7.5 1 15.5 2 l4 0 l9 2 l22 3 l11 1 l52 7 q18 2 27.5 13.5 q9.5 11.5 9.5 28.5 l0 0 ZM929 522 q-18 3 -28.5 -6 q-10.5 -9 -12.5 -27 q-4 -47 -22 -64.5 q-18 -17.5 -66 -17.5 l-79 0 q-31 0 -48.5 1.5 q-17.5 1.5 -25 6 q-7.5 4.5 -9 11.5 q-1.5 7 -1.5 19 l0 124 q58 18 122 42.5 q64 24.5 118 50.5 q18 9 20 23 q2 14 -12 29 q-15 14 -33.5 15.5 q-18.5 1.5 -36.5 -7.5 q-20 -11 -43 -21.5 q-23 -10.5 -47 -21.5 l-10 -4 q-21 -9 -41 -17.5 q-20 -8.5 -37 -15.5 l0 157 q0 17 -11 28 q-11 11 -28 11 q-18 0 -29 -11 q-11 -11 -11 -28 l0 -354 q0 -30 6 -52.5 q6 -22.5 23.5 -36.5 q17.5 -14 48.5 -20.5 q31 -6.5 81 -6.5 l86 0 q41 0 69 8 q28 8 46.5 25.5 q18.5 17.5 29 46 q10.5 28.5 16.5 68.5 q2 18 -8 30 q-10 12 -27 15 l0 0 ZM813 236 l-589 0 q-18 0 -29 -11 q-11 -11 -11 -28 q0 -19 11 -29.5 q11 -10.5 29 -10.5 l589 0 q17 0 28 10.5 q11 10.5 11 29.5 q0 17 -11 28 q-11 11 -28 11 l0 0 ZM914 4 l-802 0 q-19 0 -30 -11 q-11 -11 -11 -30 q0 -17 11 -28.5 q11 -11.5 30 -11.5 l802 0 q18 0 29 11.5 q11 11.5 11 28.5 q0 19 -11 30 q-11 11 -29 11 l0 0 Z" /><glyph glyph-name="uni4EA4" unicode="&#x4ea4;" d="M901 702 l-372 0 l26 8 q11 3 14.5 11 q3.5 8 -1.5 19 q-8 18 -20 37 q-12 19 -25 37 q-9 14 -25 20 q-16 6 -33 0 q-18 -8 -22 -20.5 q-4 -12.5 6 -28.5 q14 -21 26 -43 q12 -22 20 -40 l-374 0 q-18 0 -29 -11 q-11 -11 -11 -28 q0 -18 11 -29 q11 -11 29 -11 l780 0 q18 0 29 11 q11 11 11 29 q0 17 -11 28 q-11 11 -29 11 l0 0 ZM918 412 q-20 19 -45 41 q-25 22 -52 44 q-27 22 -55.5 43.5 q-28.5 21.5 -53.5 40.5 q-15 11 -31.5 10.5 q-16.5 -0.5 -30.5 -11.5 q-14 -12 -13.5 -24 q0.5 -12 14.5 -24 q26 -18 53.5 -40 q27.5 -22 53.5 -45 q26 -23 50.5 -45.5 q24.5 -22.5 42.5 -43.5 q14 -14 30.5 -15.5 q16.5 -1.5 31.5 10.5 q16 13 17.5 28.5 q1.5 15.5 -12.5 30.5 l0 0 ZM375 586 q-18 7 -35 2.5 q-17 -4.5 -30 -18.5 q-39 -43 -90 -84.5 q-51 -41.5 -100 -72.5 q-16 -10 -17.5 -23 q-1.5 -13 12.5 -25 q3 -3 6 -6 q3 -3 5 -5 q8 -8 20.5 -8 q12.5 0 23.5 6 q27 17 55.5 38.5 q28.5 21.5 56.5 46 q28 24.5 55 50.5 q27 26 49 51 q12 14 9 27 q-3 13 -20 21 l0 0 ZM512 92 q71 -57 168 -106 q97 -49 212 -76 q17 -4 31.5 4.5 q14.5 8.5 19.5 26.5 q5 17 -3 29.5 q-8 12.5 -26 16.5 q-95 20 -184 62.5 q-89 42.5 -157 92.5 q43 43 79.5 102 q36.5 59 65.5 124 q8 17 1 31.5 q-7 14.5 -26 19.5 q-18 5 -33 -2.5 q-15 -7.5 -23 -25.5 q-24 -58 -55 -108.5 q-31 -50.5 -70 -87.5 q-41 37 -70.5 88.5 q-29.5 51.5 -53.5 106.5 q-6 16 -19.5 22.5 q-13.5 6.5 -29.5 1.5 q-16 -5 -22 -18.5 q-6 -13.5 0 -28.5 q28 -62 63.5 -121.5 q35.5 -59.5 78.5 -102.5 q-68 -52 -159 -95.5 q-91 -43.5 -187 -67.5 q-19 -6 -26.5 -18.5 q-7.5 -12.5 -1.5 -31.5 q6 -17 21 -24.5 q15 -7.5 32 -2.5 q111 32 206 82 q95 50 168 107 l0 0 Z" /><glyph glyph-name="uni4EAB" unicode="&#x4eab;" d="M909 752 l-346 0 q-5 13 -10.5 27 q-5.5 14 -11.5 28 q-9 17 -25 25 q-16 8 -34 4 l0 0 q-18 -6 -24 -17.5 q-6 -11.5 2 -28.5 q5 -11 9 -20.5 q4 -9.5 8 -17.5 l-363 0 q-17 0 -26.5 -10 q-9.5 -10 -9.5 -25 q0 -17 9.5 -26.5 q9.5 -9.5 26.5 -9.5 l795 0 q16 0 25.5 9.5 q9.5 9.5 9.5 26.5 q0 15 -9.5 25 q-9.5 10 -25.5 10 l0 0 ZM767 627 l-504 0 q-25 0 -40.5 -15.5 q-15.5 -15.5 -15.5 -41.5 l0 -96 q0 -25 15.5 -40.5 q15.5 -15.5 40.5 -15.5 l504 0 q26 0 41 15.5 q15 15.5 15 40.5 l0 96 q0 26 -15 41.5 q-15 15.5 -41 15.5 l0 0 ZM285 479 l0 85 l456 0 l0 -85 l-456 0 ZM504 -96 q24 8 35.5 27 q11.5 19 11.5 49 l0 122 l370 0 q16 0 25.5 10 q9.5 10 9.5 26 q0 17 -9.5 26.5 q-9.5 9.5 -25.5 9.5 l-370 0 l0 24 q70 17 143 45.5 q73 28.5 132 59.5 q15 8 16 19 q1 11 -11 22 l-21 17 q-2 3 -6 4 q-4 1 -8 0 l-9 -3 l-589 0 q-15 0 -24 -9 q-9 -9 -9 -23 q0 -15 9 -24 q9 -9 24 -9 l471 0 q-38 -14 -82 -28 q-44 -14 -86 -25 q-15 -3 -23 -13.5 q-8 -10.5 -8 -24.5 l0 -32 l-366 0 q-16 0 -25.5 -9.5 q-9.5 -9.5 -9.5 -26.5 q0 -16 9.5 -26 q9.5 -10 25.5 -10 l366 0 l0 -120 q0 -11 -4 -15.5 q-4 -4.5 -19 -5.5 q-10 -1 -39.5 -1 q-29.5 0 -63.5 1 q-15 0 -24 -8.5 q-9 -8.5 -7 -24.5 l1 -22 q1 -5 4.5 -8 q3.5 -3 8.5 -3 l11 0 q61 0 102 1.5 q41 1.5 64 7.5 l0 0 Z" /><glyph glyph-name="uni4EAD" unicode="&#x4ead;" d="M918 754 l-344 0 q-8 13 -17.5 28.5 q-9.5 15.5 -20.5 29.5 q-12 14 -27.5 19.5 q-15.5 5.5 -33.5 -0.5 l-1 0 q-17 -5 -21 -17 q-4 -12 7 -27 q7 -9 13.5 -17.5 q6.5 -8.5 11.5 -15.5 l-376 0 q-16 0 -25.5 -10 q-9.5 -10 -9.5 -25 q0 -16 9.5 -25.5 q9.5 -9.5 25.5 -9.5 l809 0 q15 0 24.5 9.5 q9.5 9.5 9.5 25.5 q0 15 -9.5 25 q-9.5 10 -24.5 10 l0 0 ZM760 635 l-490 0 q-25 0 -40.5 -15.5 q-15.5 -15.5 -15.5 -40.5 l0 -86 q0 -26 15.5 -41.5 q15.5 -15.5 40.5 -15.5 l490 0 q25 0 40.5 15.5 q15.5 15.5 15.5 41.5 l0 86 q0 25 -15.5 40.5 q-15.5 15.5 -40.5 15.5 l0 0 ZM292 497 l0 78 l441 0 l0 -78 l-441 0 ZM160 311 l704 0 l0 -86 q0 -17 10.5 -27.5 q10.5 -10.5 27.5 -10.5 q18 0 28 10.5 q10 10.5 10 27.5 l0 96 q0 25 -15.5 40.5 q-15.5 15.5 -40.5 15.5 l-741 0 q-25 0 -40.5 -15.5 q-15.5 -15.5 -15.5 -40.5 l0 -97 q0 -17 9.5 -27 q9.5 -10 27.5 -10 q16 0 26 10 q10 10 10 27 l0 87 l0 0 ZM523 -88 q27 8 38 28 q11 20 11 51 l0 181 l211 0 q16 0 25 9 q9 9 9 26 q0 15 -9 24.5 q-9 9.5 -25 9.5 l-535 0 q-17 0 -26 -9.5 q-9 -9.5 -9 -24.5 q0 -17 9 -26 q9 -9 26 -9 l239 0 l0 -178 q0 -10 -4 -15 q-4 -5 -18 -6 q-10 -1 -39.5 -1.5 q-29.5 -0.5 -64.5 1.5 q-17 0 -26.5 -9.5 q-9.5 -9.5 -7.5 -25.5 l1 -31 q1 -3 3 -5 q2 -2 6 -2 l7 0 q68 0 112 2 q44 2 67 10 l0 0 Z" /><glyph glyph-name="uni4EAE" unicode="&#x4eae;" d="M913 745 l-336 0 q-6 15 -14.5 32 q-8.5 17 -18.5 34 q-8 14 -24 20.5 q-16 6.5 -34 2.5 l-2 0 q-18 -6 -22.5 -17.5 q-4.5 -11.5 4.5 -28.5 q6 -11 12 -22.5 q6 -11.5 11 -20.5 l-379 0 q-17 0 -26.5 -9.5 q-9.5 -9.5 -9.5 -24.5 q0 -17 9.5 -26.5 q9.5 -9.5 26.5 -9.5 l803 0 q16 0 25.5 9.5 q9.5 9.5 9.5 26.5 q0 15 -9.5 24.5 q-9.5 9.5 -25.5 9.5 l0 0 ZM758 628 l-484 0 q-25 0 -40.5 -15.5 q-15.5 -15.5 -15.5 -41.5 l0 -87 q0 -25 15.5 -40.5 q15.5 -15.5 40.5 -15.5 l484 0 q25 0 40.5 15.5 q15.5 15.5 15.5 40.5 l0 87 q0 26 -15.5 41.5 q-15.5 15.5 -40.5 15.5 l0 0 ZM296 487 l0 81 l435 0 l0 -81 l-435 0 ZM169 303 l682 0 l0 -70 q0 -18 10.5 -28.5 q10.5 -10.5 29.5 -10.5 q17 0 28 10.5 q11 10.5 11 28.5 l0 80 q0 26 -15.5 41.5 q-15.5 15.5 -41.5 15.5 l-725 0 q-25 0 -40.5 -15.5 q-15.5 -15.5 -15.5 -41.5 l0 -82 q0 -17 11 -27.5 q11 -10.5 28 -10.5 q17 0 27.5 10.5 q10.5 10.5 10.5 27.5 l0 72 l0 0 ZM389 168 l232 0 l0 -152 q0 -25 5.5 -44 q5.5 -19 19.5 -32 q14 -13 41 -19 q27 -6 68 -6 l61 0 q63 0 91 30 q28 30 37 99 q2 17 -7 29 q-9 12 -27 14 q-17 2 -27.5 -6.5 q-10.5 -8.5 -12.5 -26.5 q-3 -38 -14 -53 q-11 -15 -43 -15 l-51 0 q-41 0 -51 6.5 q-10 6.5 -10 23.5 l0 166 q0 26 -15 41.5 q-15 15.5 -41 15.5 l-271 0 q-25 0 -40.5 -15 q-15.5 -15 -18.5 -40 q-5 -41 -17.5 -74.5 q-12.5 -33.5 -35.5 -59.5 q-23 -26 -58 -45 q-35 -19 -84 -32 q-17 -4 -24 -15 q-7 -11 -2 -29 q5 -16 18 -23.5 q13 -7.5 29 -3.5 q65 16 109 41.5 q44 25.5 73 59.5 q29 34 44.5 75.5 q15.5 41.5 21.5 89.5 l0 0 Z" /><glyph glyph-name="uni4EC0" unicode="&#x4ec0;&#xf9fd;" d="M286 607 q21 38 43.5 81 q22.5 43 41.5 85 q7 18 0.5 31.5 q-6.5 13.5 -24.5 18.5 q-17 5 -31.5 -1.5 q-14.5 -6.5 -22.5 -23.5 q-20 -46 -45 -92.5 q-25 -46.5 -53 -90.5 q-28 -44 -59.5 -84.5 q-31.5 -40.5 -61.5 -73.5 q-15 -15 -15 -32.5 q0 -17.5 14 -32.5 q13 -14 29.5 -14 q16.5 0 29.5 14 q19 23 38.5 48.5 q19.5 25.5 36.5 48.5 l0 -551 q0 -18 10.5 -28.5 q10.5 -10.5 29.5 -10.5 q17 0 28 10.5 q11 10.5 11 28.5 l0 669 l0 0 ZM689 417 l237 0 q17 0 28.5 11 q11.5 11 11.5 30 q0 17 -11.5 28.5 q-11.5 11.5 -28.5 11.5 l-237 0 l0 292 q0 17 -10 27 q-10 10 -28 10 q-17 0 -27.5 -10 q-10.5 -10 -10.5 -27 l0 -292 l-230 0 q-18 0 -29.5 -11.5 q-11.5 -11.5 -11.5 -28.5 q0 -19 11.5 -30 q11.5 -11 29.5 -11 l230 0 l0 -483 q0 -17 10.5 -27 q10.5 -10 27.5 -10 q18 0 28 10 q10 10 10 27 l0 483 l0 0 Z" /><glyph glyph-name="uni4EC5" unicode="&#x4ec5;" d="M284 593 q11 20 23 40.5 q12 20.5 24 43.5 l4 9 q11 21 21 40.5 q10 19.5 19 40.5 q8 17 1.5 31 q-6.5 14 -24.5 20 q-18 6 -33 -1 q-15 -7 -22 -24 q-21 -47 -47 -93.5 q-26 -46.5 -56 -90 q-30 -43.5 -62.5 -83.5 q-32.5 -40 -64.5 -73 q-15 -15 -16.5 -33.5 q-1.5 -18.5 12.5 -33.5 q14 -16 31.5 -17 q17.5 -1 31.5 14 q20 23 40.5 48.5 q20.5 25.5 38.5 49.5 l0 -543 q0 -18 10.5 -28.5 q10.5 -10.5 29.5 -10.5 q17 0 28 10.5 q11 10.5 11 28.5 l0 655 l0 0 ZM654 117 q48 -56 110 -110.5 q62 -54.5 137 -91.5 q17 -8 31.5 -2.5 q14.5 5.5 22.5 21.5 q9 18 3 31 q-6 13 -22 22 q-67 31 -130.5 83 q-63.5 52 -109.5 107 q36 45 69.5 102 q33.5 57 62 122 q28.5 65 51.5 138 q23 73 37 150 q3 12 -3 22.5 q-6 10.5 -18 14.5 l-21 7 q-3 1 -6 1 q-3 0 -5 -1 l-6 -2 l-447 0 q-18 0 -27.5 -9.5 q-9.5 -9.5 -9.5 -27.5 l0 -11 q0 -11 7 -18.5 q7 -7.5 18 -7.5 l26 0 l-5 -3 q-3 -2 -4 -5 q-1 -3 -1 -5 q15 -64 35 -128.5 q20 -64.5 44 -125 q24 -60.5 51.5 -115 q27.5 -54.5 59.5 -99.5 q-53 -58 -116.5 -110 q-63.5 -52 -128.5 -82 q-16 -9 -21.5 -22.5 q-5.5 -13.5 2.5 -31.5 q7 -16 22 -21.5 q15 -5.5 30 2.5 q74 37 140.5 91.5 q66.5 54.5 121.5 114.5 l0 0 ZM487 657 l343 0 q-13 -59 -32.5 -118 q-19.5 -59 -43 -112.5 q-23.5 -53.5 -51.5 -101 q-28 -47.5 -58 -86.5 q-29 41 -52.5 90.5 q-23.5 49.5 -43 103 q-19.5 53.5 -34.5 111 q-15 57.5 -28 113.5 l0 0 Z" /><glyph glyph-name="uni4ECB" unicode="&#x4ecb;" d="M510 717 q34 -44 78.5 -86 q44.5 -42 95 -80 q50.5 -38 106 -69.5 q55.5 -31.5 111.5 -55.5 q19 -8 34.5 -0.5 q15.5 7.5 23.5 25.5 q8 17 1 32 q-7 15 -25 21 q-52 19 -107 48.5 q-55 29.5 -105.5 64.5 q-50.5 35 -93.5 74.5 q-43 39.5 -73 79.5 q2 3 4 6.5 q2 3.5 4 7.5 q4 8 3 14 q-1 6 -8 10 l-16 11 q-15 9 -28.5 6 q-13.5 -3 -24.5 -17 q-31 -47 -76.5 -93.5 q-45.5 -46.5 -98 -88 q-52.5 -41.5 -110 -75.5 q-57.5 -34 -112.5 -57 q-18 -9 -25.5 -23.5 q-7.5 -14.5 1.5 -33.5 q8 -18 24 -24.5 q16 -6.5 34 1.5 q54 24 107.5 58 q53.5 34 103.5 73.5 q50 39.5 94 83 q44 43.5 78 87.5 l0 0 ZM695 450 q-19 0 -30.5 -11.5 q-11.5 -11.5 -11.5 -30.5 l0 -473 q0 -19 11.5 -30 q11.5 -11 30.5 -11 q20 0 31 11 q11 11 11 30 l0 473 q0 19 -11 30.5 q-11 11.5 -31 11.5 l0 0 ZM379 313 l0 94 q0 19 -11.5 30.5 q-11.5 11.5 -30.5 11.5 q-20 0 -31 -11.5 q-11 -11.5 -11 -30.5 l0 -93 q0 -36 -6.5 -80.5 q-6.5 -44.5 -24.5 -89 q-18 -44.5 -50.5 -87 q-32.5 -42.5 -83.5 -75.5 q-15 -12 -19.5 -26.5 q-4.5 -14.5 7.5 -31.5 q10 -15 26.5 -19 q16.5 -4 31.5 6 q64 41 103 92.5 q39 51.5 62 106 q23 54.5 30.5 107 q7.5 52.5 7.5 96.5 l0 0 Z" /><glyph glyph-name="uni4ECE" unicode="&#x4ece;" d="M667 331 q14 -46 34.5 -99.5 q20.5 -53.5 46.5 -105.5 q26 -52 58.5 -100.5 q32.5 -48.5 69.5 -84.5 q14 -15 32 -13 q18 2 30 20 q12 16 9.5 33.5 q-2.5 17.5 -17.5 31.5 q-45 41 -82.5 99.5 q-37.5 58.5 -66 123 q-28.5 64.5 -49 130 q-20.5 65.5 -32.5 119.5 q7 39 12 81.5 q5 42.5 10 88.5 l1 11 q1 12 2 24 q1 12 3 25 l0 6 l0 8 l1 3 l0 5 l1 13 l0 5 l1 11 l1 3 l0 5 l1 12 l0 6 l1 11 l1 5 q0 2 -1.5 3.5 q-1.5 1.5 -3.5 1.5 l-78 4 q-3 0 -4.5 -1.5 q-1.5 -1.5 -1.5 -4.5 l0 -6 q-1 -8 -1.5 -15 q-0.5 -7 -0.5 -15 l-1 -12 q-2 -18 -2.5 -33.5 q-0.5 -15.5 -2.5 -33.5 l-1 -11 q-2 -19 -3.5 -38 q-1.5 -19 -3.5 -39 l-2 -8 l0 -6 l-1 -9 q-11 -92 -27.5 -178 q-16.5 -86 -42 -161.5 q-25.5 -75.5 -59 -138.5 q-33.5 -63 -78.5 -110 q-14 -15 -15.5 -33 q-1.5 -18 14.5 -34 q14 -15 32.5 -15.5 q18.5 -0.5 32.5 15.5 q34 39 61.5 86 q27.5 47 50 99 q22.5 52 40 106.5 q17.5 54.5 31.5 109.5 l0 0 ZM323 399 q35 -46 68 -103.5 q33 -57.5 56 -104.5 q9 -17 22.5 -19.5 q13.5 -2.5 28.5 10.5 q14 14 17 31.5 q3 17.5 -6 35.5 q-15 27 -35 60 q-20 33 -42 67 q-22 34 -45 65.5 q-23 31.5 -46 58.5 q5 34 8 72 q3 38 7 78 l1 10 l3 48 l1 11 l0 5 l1 10 l0 5 l2 7 l0 7 q0 3 0.5 6.5 q0.5 3.5 0.5 6.5 l1 7 l0 6 q0 11 1 16 q0 8 -5 12.5 q-5 4.5 -13 5.5 l-65 2 q-2 0 -3.5 -1.5 q-1.5 -1.5 -1.5 -3.5 l0 -6 q-3 -32 -5 -62.5 q-2 -30.5 -4 -61.5 l-1 -12 q-2 -36 -5.5 -72.5 q-3.5 -36.5 -8.5 -71.5 l-1 -11 q0 -2 -0.5 -3 q-0.5 -1 -0.5 -3 q0 -2 -0.5 -5 q-0.5 -3 -0.5 -5 l-1 -7 q-21 -152 -59.5 -280 q-38.5 -128 -103.5 -215 q-13 -18 -12 -35.5 q1 -17.5 18 -32.5 q18 -14 35.5 -12 q17.5 2 30.5 19 q30 44 55.5 99 q25.5 55 46 115.5 q20.5 60.5 35.5 124.5 q15 64 26 126 l0 0 Z" /><glyph glyph-name="uni4ED3" unicode="&#x4ed3;" d="M837 151 q-20 2 -32 -7.5 q-12 -9.5 -14 -28.5 q-5 -30 -13 -51 q-8 -21 -26 -34 q-18 -13 -47 -19 q-29 -6 -75 -6 l-141 0 q-56 0 -87.5 3 q-31.5 3 -48 10.5 q-16.5 7.5 -20.5 19 q-4 11.5 -4 28.5 l0 344 l357 0 q-5 -84 -10.5 -130.5 q-5.5 -46.5 -13.5 -56.5 q-7 -5 -10 -7 q-3 -2 -16 -2 q-10 0 -33 0.5 q-23 0.5 -50 1.5 q-16 2 -26 -7 q-10 -9 -9 -26 q0 -16 10 -26.5 q10 -10.5 26 -11.5 q35 -1 62 -1 q27 0 43 2 q21 1 40 8 q19 7 32 21 q14 19 23.5 85.5 q9.5 66.5 15.5 190.5 q0 3 -0.5 7 q-0.5 4 -1.5 9 q-1 7 -6 11 q-5 4 -13 4 l-482 0 q20 15 39 29.5 q19 14.5 37 30.5 l8 7 q45 39 86 80.5 q41 41.5 76 85.5 q69 -80 151 -145.5 q82 -65.5 175 -119.5 l9 -6 l4 -3 l4 -2 q2 -2 4 -3 q2 -1 4 -2 q6 -4 10 -5 l7 -4 q1 0 2 -0.5 q1 -0.5 3 -1.5 l2 -1 l8 -5 q5 -2 9 -5 q4 -3 9 -5 q9 -5 16.5 -2 q7.5 3 12.5 11 l16 29 q7 12 3.5 22.5 q-3.5 10.5 -15.5 15.5 q-7 3 -13.5 7 q-6.5 4 -12.5 7 l-10 4 q-97 49 -189.5 114 q-92.5 65 -165.5 152 q3 4 6 8.5 q3 4.5 7 9.5 q5 10 3 17.5 q-2 7.5 -11 11.5 l-16 7 q-18 8 -33.5 2.5 q-15.5 -5.5 -27.5 -19.5 q-33 -49 -78.5 -96.5 q-45.5 -47.5 -96.5 -90 q-51 -42.5 -106.5 -78 q-55.5 -35.5 -109.5 -63.5 q-17 -8 -22 -23.5 q-5 -15.5 5 -32.5 q10 -18 26 -22.5 q16 -4.5 33 5.5 q30 18 58.5 36 q28.5 18 53.5 34 l0 -408 q0 -37 9.5 -64 q9.5 -27 37 -43.5 q27.5 -16.5 74.5 -25 q47 -8.5 121 -8.5 l143 0 q64 0 107 10.5 q43 10.5 70.5 32 q27.5 21.5 41.5 55 q14 33.5 21 79.5 q4 20 -6.5 33 q-10.5 13 -28.5 17 l0 0 Z" /><glyph glyph-name="uni4ED6" unicode="&#x4ed6;" d="M937 125 q-17 2 -29 -6.5 q-12 -8.5 -14 -26.5 q-4 -27 -11 -47 q-7 -20 -22.5 -33.5 q-15.5 -13.5 -40.5 -19.5 q-25 -6 -64 -6 l-125 0 q-49 0 -78 4 q-29 4 -43.5 12.5 q-14.5 8.5 -19 23 q-4.5 14.5 -4.5 34.5 l0 367 l137 55 l0 -311 q0 -17 10 -27.5 q10 -10.5 27 -10.5 q17 0 27 10.5 q10 10.5 10 27.5 l0 343 l157 57 q-1 -54 -2 -101 q-1 -47 -3 -85 q-2 -38 -4 -64 q-2 -26 -5 -37 q-1 -1 -1 -2 q0 -1 -1 -3 q-4 -17 -12 -21.5 q-8 -4.5 -20 -4.5 l-36 0 q-15 0 -25 -9.5 q-10 -9.5 -10 -25.5 l1 -2 q0 -17 10.5 -28 q10.5 -11 27.5 -11 q23 1 44 2.5 q21 1.5 34 5.5 q22 5 39.5 24.5 q17.5 19.5 23.5 52.5 q4 16 6.5 52 q2.5 36 4 87 q1.5 51 2 111.5 q0.5 60.5 0.5 125.5 l2 7 q0 3 -1.5 5.5 q-1.5 2.5 -4.5 4.5 l-39 17 q-5 2 -9.5 1 q-4.5 -1 -7.5 -4 l-7 -6 l-9 -10 l-155 -61 l0 207 q0 16 -10 26.5 q-10 10.5 -27 10.5 q-17 0 -27 -10.5 q-10 -10.5 -10 -26.5 l0 -237 l-137 -54 l0 195 q0 18 -10.5 28.5 q-10.5 10.5 -28.5 10.5 q-18 0 -28.5 -10.5 q-10.5 -10.5 -10.5 -28.5 l0 -228 l-83 -34 q-17 -6 -22.5 -19.5 q-5.5 -13.5 1.5 -29.5 q7 -16 21 -21.5 q14 -5.5 29 2.5 l54 23 l0 -336 q0 -38 9.5 -66.5 q9.5 -28.5 34 -46.5 q24.5 -18 67.5 -26.5 q43 -8.5 110 -8.5 l128 0 q57 0 95.5 10 q38.5 10 62.5 30.5 q24 20.5 37 52 q13 31.5 19 74.5 q3 17 -7 30 q-10 13 -27 16 l0 0 ZM257 601 q11 20 22 39.5 q11 19.5 22 41.5 l4 9 l5 9 q11 20 19.5 38.5 q8.5 18.5 16.5 37.5 q7 17 0.5 30 q-6.5 13 -22.5 18 q-18 5 -31.5 -1.5 q-13.5 -6.5 -21.5 -23.5 q-18 -45 -42.5 -90.5 q-24.5 -45.5 -53 -89.5 q-28.5 -44 -59 -83 q-30.5 -39 -61.5 -73 q-13 -14 -13.5 -31 q-0.5 -17 12.5 -32 q14 -14 29.5 -14.5 q15.5 -0.5 28.5 13.5 q17 20 34.5 42.5 q17.5 22.5 31.5 43.5 l0 -547 q0 -18 11 -28.5 q11 -10.5 29 -10.5 q18 0 28.5 10.5 q10.5 10.5 10.5 28.5 l0 663 l0 0 Z" /><glyph glyph-name="uni4EE3" unicode="&#x4ee3;" d="M299 602 q9 14 18.5 29 q9.5 15 17.5 31 l5 9 q13 23 26 46.5 q13 23.5 24 47.5 q8 17 2 30.5 q-6 13.5 -23 19.5 q-18 5 -32 -1 q-14 -6 -23 -23 q-22 -47 -51 -94 q-29 -47 -61.5 -91.5 q-32.5 -44.5 -68 -85 q-35.5 -40.5 -71.5 -74.5 q-14 -14 -15.5 -31.5 q-1.5 -17.5 11.5 -32.5 q13 -15 29 -16.5 q16 -1.5 31 12.5 q25 25 52 55 q27 30 48 60 l0 -554 q0 -18 11.5 -29 q11.5 -11 29.5 -11 q17 0 28.5 11 q11.5 11 11.5 29 l0 663 l0 0 ZM951 156 q-16 4 -26.5 -4 q-10.5 -8 -12.5 -25 q-7 -58 -20 -96.5 q-13 -38.5 -31 -37.5 q-38 4 -70.5 42.5 q-32.5 38.5 -59 102 q-26.5 63.5 -46 147 q-19.5 83.5 -32.5 178.5 l273 34 q17 2 26.5 14 q9.5 12 6.5 30 q-3 17 -15 25.5 q-12 8.5 -30 6.5 l-269 -33 q-5 41 -5.5 86 q-0.5 45 -0.5 92 l0 10 l0 22 l0 26 l0 10 l0 19 q0 8 -5.5 12.5 q-5.5 4.5 -13.5 4.5 l-30 0 q-16 0 -24.5 -9 q-8.5 -9 -7.5 -25 q0 -8 0.5 -16.5 q0.5 -8.5 1.5 -16.5 l0 -7 l0 -7 l1 -7 l0 -8 l0 -6 l1 -7 l1 -17 q3 -45 6 -88 q3 -43 6 -82 l-196 -22 q-18 -2 -27 -13.5 q-9 -11.5 -6 -28.5 q2 -18 14.5 -27 q12.5 -9 29.5 -7 l198 25 q13 -112 36 -211 q23 -99 57.5 -174 q34.5 -75 80 -120.5 q45.5 -45.5 103.5 -49.5 q36 -2 67.5 49 q31.5 51 49.5 164 q2 17 -6 29 q-8 12 -25 16 l0 0 ZM916 682 q-13 13 -28.5 28 q-15.5 15 -31.5 30 l-8 8 l-4 4 l-8 8 q-10 8 -19 16 q-9 8 -17 17 q-13 11 -28 12 q-15 1 -29 -7 q-13 -10 -14 -22 q-1 -12 10 -23 q9 -9 18 -18 q9 -9 18 -17 l8 -8 l9 -9 q6 -6 12 -12 q6 -6 12 -11 l5 -6 l4 -4 q9 -8 15.5 -15 q6.5 -7 13.5 -14 q12 -12 28 -13.5 q16 -1.5 30 8.5 q15 9 16 23 q1 14 -12 25 l0 0 Z" /><glyph glyph-name="uni4EE4" unicode="&#x4ee4;" d="M517 715 q34 -35 75 -70.5 q41 -35.5 87 -69.5 l9 -6 q51 -37 103.5 -70 q52.5 -33 101.5 -59 q17 -9 34 -3.5 q17 5.5 26 23.5 q10 17 4 32.5 q-6 15.5 -23 23.5 q-46 22 -97.5 50.5 q-51.5 28.5 -101.5 60.5 q-50 32 -94.5 67.5 q-44.5 35.5 -77.5 69.5 q3 4 6.5 9 q3.5 5 8.5 10 q7 9 5.5 17 q-1.5 8 -12.5 13 l-15 9 q-17 8 -33.5 4.5 q-16.5 -3.5 -28.5 -17.5 q-36 -43 -82.5 -85 q-46.5 -42 -99 -80.5 q-52.5 -38.5 -107.5 -71.5 q-55 -33 -108 -59 q-17 -8 -22 -23 q-5 -15 4 -32 q9 -18 25 -23 q16 -5 33 4 q31 17 61.5 35 q30.5 18 61.5 37 l9 5 q70 45 133.5 95.5 q63.5 50.5 114.5 103.5 l0 0 ZM596 479 q-14 15 -30.5 31 q-16.5 16 -34.5 33 l-8 8 l-30 29 q-12 11 -27 12 q-15 1 -29 -10 q-13 -12 -13 -25 q0 -13 11 -25 l37 -36 l8 -9 q16 -15 30 -30 q14 -15 28 -28 q12 -13 27.5 -13.5 q15.5 -0.5 28.5 10.5 q13 11 13.5 26 q0.5 15 -11.5 27 l0 0 ZM662 -10 q-17 15 -35.5 31.5 q-18.5 16.5 -37.5 30.5 q24 24 50 51 q26 27 52 56 l7 8 q39 42 75 82 q36 40 67 73 q11 11 9.5 23 q-1.5 12 -14.5 22 l-24 14 q-3 2 -6.5 2.5 q-3.5 0.5 -5.5 -0.5 l-7 -3 l-570 0 q-17 0 -28 -11 q-11 -11 -11 -28 q0 -17 11 -28 q11 -11 28 -11 l492 0 q-21 -20 -43.5 -46 q-22.5 -26 -46.5 -53 q-24 -27 -48.5 -54 q-24.5 -27 -49.5 -51 q-12 8 -24 16.5 q-12 8.5 -23 17.5 l-9 6 l-8 6 q-12 10 -24.5 18.5 q-12.5 8.5 -23.5 16.5 q-15 10 -32 8 q-17 -2 -30 -15 q-13 -14 -11 -27.5 q2 -13.5 16 -23.5 q27 -19 55.5 -40.5 q28.5 -21.5 57.5 -44.5 l8 -7 q34 -28 65 -55.5 q31 -27.5 57 -51.5 q15 -14 32.5 -13.5 q17.5 0.5 32.5 15.5 q14 17 13 34 q-1 17 -16 32 l0 0 Z" /><glyph glyph-name="uni4EE5" unicode="&#x4ee5;" d="M700 154 q24 -23 49 -51 q25 -28 49 -57.5 q24 -29.5 46 -57.5 q22 -28 39 -51 q11 -17 27.5 -20 q16.5 -3 32.5 8 q15 13 18 29.5 q3 16.5 -9 33.5 q-17 22 -39 48 q-22 26 -46 54 q-24 28 -49 54.5 q-25 26.5 -50 51.5 l-7 8 q-5 5 -11 10 q-6 5 -11 10 q45 97 70.5 234 q25.5 137 36.5 295 q2 19 -9.5 31.5 q-11.5 12.5 -30.5 14.5 q-20 1 -32 -10.5 q-12 -11.5 -13 -30.5 q-9 -143 -30 -264.5 q-21 -121.5 -62 -220 q-41 -98.5 -104.5 -171.5 q-63.5 -73 -157.5 -119 q-19 -10 -24.5 -25 q-5.5 -15 3.5 -34 q9 -17 26 -22.5 q17 -5.5 34 4.5 q88 48 150 114 q62 66 104 134 l0 0 ZM497 233 l0 0 q-5 18 -17 24 q-12 6 -28 -2 l-191 -96 l0 562 q0 18 -11.5 30 q-11.5 12 -30.5 12 q-19 0 -31 -12 q-12 -12 -12 -30 l0 -555 q0 -21 -9.5 -38 q-9.5 -17 -21.5 -31 q-11 -13 -14 -28 q-3 -15 8 -29 q11 -14 25.5 -17 q14.5 -3 29.5 8 q14 9 35.5 22 q21.5 13 54.5 30.5 q33 17.5 80 40.5 q47 23 109 54 q16 8 22.5 23 q6.5 15 1.5 32 l0 0 ZM588 548 q-24 37 -54.5 82 q-30.5 45 -59.5 86 q-10 14 -25.5 17.5 q-15.5 3.5 -30.5 -4.5 q-17 -8 -20 -22 q-3 -14 6 -28 q10 -14 19 -28 q9 -14 18 -28 l6 -11 q19 -27 36.5 -55 q17.5 -28 31.5 -51 q10 -17 25.5 -21 q15.5 -4 32.5 7 q18 9 21.5 24 q3.5 15 -6.5 32 l0 0 Z" /><glyph glyph-name="uni4EEC" unicode="&#x4eec;" d="M557 679 q-17 30 -39.5 64 q-22.5 34 -44.5 65 q-10 14 -24.5 17 q-14.5 3 -28.5 -4 q-14 -8 -18 -20.5 q-4 -12.5 7 -26.5 q21 -33 43.5 -68.5 q22.5 -35.5 37.5 -65.5 q9 -15 22.5 -19.5 q13.5 -4.5 29.5 4.5 q15 8 19.5 23.5 q4.5 15.5 -4.5 30.5 l0 0 ZM241 600 q17 40 34 84.5 q17 44.5 31 88.5 q5 18 -1.5 30.5 q-6.5 12.5 -23.5 17.5 q-18 5 -30.5 -2 q-12.5 -7 -18.5 -23 q-28 -91 -72 -183.5 q-44 -92.5 -95 -165.5 q-12 -15 -10.5 -32 q1.5 -17 16.5 -30 q13 -14 28 -12.5 q15 1.5 26 16.5 q9 14 19.5 31 q10.5 17 18.5 34 l0 -517 q0 -18 10.5 -28.5 q10.5 -10.5 28.5 -10.5 q17 0 28 10.5 q11 10.5 11 28.5 l0 663 l0 0 ZM889 -86 q20 8 31 30.5 q11 22.5 11 55.5 l0 746 q0 26 -15.5 41.5 q-15.5 15.5 -41.5 15.5 l-253 0 q-18 0 -28 -10.5 q-10 -10.5 -10 -27.5 q0 -17 10 -27.5 q10 -10.5 28 -10.5 l230 0 l0 -726 q0 -12 -4.5 -18 q-4.5 -6 -16.5 -7 q-8 -1 -32 -1 q-24 0 -50 1 q-18 0 -28 -10 q-10 -10 -9 -27 q1 -18 12 -28.5 q11 -10.5 29 -10.5 q49 1 84 4 q35 3 53 10 l0 0 ZM388 642 q-17 0 -28.5 -11 q-11.5 -11 -11.5 -29 l0 -665 q0 -18 11.5 -29 q11.5 -11 28.5 -11 q18 0 29 11 q11 11 11 29 l0 665 q0 18 -11 29 q-11 11 -29 11 l0 0 Z" /><glyph glyph-name="uni4EF6" unicode="&#x4ef6;" d="M262 596 q23 41 45.5 86.5 q22.5 45.5 40.5 90.5 q7 18 1 31.5 q-6 13.5 -23 18.5 q-18 5 -32 -1.5 q-14 -6.5 -22 -23.5 q-18 -44 -41 -89.5 q-23 -45.5 -49.5 -88.5 q-26.5 -43 -55.5 -82.5 q-29 -39.5 -57 -73.5 q-14 -15 -14 -32.5 q0 -17.5 14 -32.5 q13 -14 29 -14 q16 0 29 14 q14 19 30 39.5 q16 20.5 28 40.5 l0 -542 q0 -18 11 -28 q11 -10 28 -10 q18 0 28 10 q10 10 10 28 l0 659 l0 0 ZM684 262 l239 0 q17 0 28 11 q11 11 11 29 q0 17 -11 28 q-11 11 -28 11 l-239 0 l0 218 l196 0 q17 0 27.5 11 q10.5 11 10.5 28 q0 17 -10.5 27.5 q-10.5 10.5 -27.5 10.5 l-196 0 l0 151 q0 18 -10.5 28.5 q-10.5 10.5 -28.5 10.5 q-18 0 -29 -10.5 q-11 -10.5 -11 -28.5 l0 -151 l-120 0 q8 21 14.5 47 q6.5 26 11.5 52 q4 18 -4 30.5 q-8 12.5 -26 16.5 q-17 4 -30 -4.5 q-13 -8.5 -16 -25.5 q-14 -73 -35.5 -144.5 q-21.5 -71.5 -51.5 -125.5 q-8 -16 -5.5 -31.5 q2.5 -15.5 18.5 -24.5 q16 -10 31 -7 q15 3 23 20 q8 18 15 37 q7 19 15 39 l4 10 l12 34 l144 0 l0 -218 l-232 0 q-19 0 -29.5 -11 q-10.5 -11 -10.5 -28 q0 -18 10.5 -29 q10.5 -11 29.5 -11 l232 0 l0 -327 q0 -17 11 -27.5 q11 -10.5 29 -10.5 q18 0 28.5 10.5 q10.5 10.5 10.5 27.5 l0 327 l0 0 Z" /><glyph glyph-name="uni4EFB" unicode="&#x4efb;" d="M284 603 q12 21 24.5 43 q12.5 22 23.5 45 l4 8 l5 10 l7 14 l11 22 l5 10 l5 9 q3 6 6 12.5 q3 6.5 5 13.5 q5 11 1.5 19.5 q-3.5 8.5 -15.5 12.5 l-14 4 q-17 5 -32.5 -2 q-15.5 -7 -23.5 -24 q-21 -46 -47.5 -92 q-26.5 -46 -56.5 -90.5 q-30 -44.5 -63 -84 q-33 -39.5 -67 -73.5 q-14 -15 -15.5 -33 q-1.5 -18 12.5 -34 q14 -16 31.5 -16.5 q17.5 -0.5 31.5 13.5 q21 24 43 49.5 q22 25.5 40 50.5 l0 -555 q0 -17 10.5 -27.5 q10.5 -10.5 29.5 -10.5 q17 0 28 10.5 q11 10.5 11 27.5 l0 668 l0 0 ZM914 17 l-234 0 l0 319 l251 0 q17 0 28 10.5 q11 10.5 11 28.5 q0 17 -11 28 q-11 11 -28 11 l-251 0 l0 271 q23 5 46.5 10 q23.5 5 46.5 11 l11 3 q27 6 53 12.5 q26 6.5 50 13.5 q19 5 22.5 18 q3.5 13 -9.5 28 l-4 5 q-11 14 -28 18 q-17 4 -33 -1 q-43 -13 -96.5 -26 q-53.5 -13 -112 -25 q-58.5 -12 -118 -22 q-59.5 -10 -115.5 -18 q-15 -2 -23.5 -13.5 q-8.5 -11.5 -4.5 -26.5 l0 0 q2 -16 13.5 -24.5 q11.5 -8.5 27.5 -6.5 q50 6 103 15 q53 9 98 17 l0 -259 l-249 0 q-17 0 -28 -11 q-11 -11 -11 -28 q0 -18 11 -28.5 q11 -10.5 28 -10.5 l249 0 l0 -319 l-217 0 q-17 0 -28.5 -11 q-11.5 -11 -11.5 -29 q0 -17 11.5 -28 q11.5 -11 28.5 -11 l524 0 q18 0 29 11 q11 11 11 28 q0 18 -11 29 q-11 11 -29 11 l0 0 Z" /><glyph glyph-name="uni4EFD" unicode="&#x4efd;" d="M259 598 q21 41 43.5 86 q22.5 45 39.5 91 q7 18 0 31 q-7 13 -25 18 q-17 5 -31.5 -2 q-14.5 -7 -21.5 -24 q-35 -90 -86.5 -179 q-51.5 -89 -107.5 -156 q-13 -16 -13 -32.5 q0 -16.5 15 -31.5 q13 -14 29 -13.5 q16 0.5 28 15.5 q13 17 26.5 36 q13.5 19 24.5 37 l0 -539 q0 -17 11 -27.5 q11 -10.5 29 -10.5 q18 0 28.5 10.5 q10.5 10.5 10.5 27.5 l0 663 l0 0 ZM968 471 q-3 5 -7 9.5 q-4 4.5 -7 9.5 q-1 3 -2 4 q-1 1 -2 3 l-4 4 q-43 62 -85 131.5 q-42 69.5 -86 152.5 q-8 15 -22 22 q-14 7 -30 5 q-16 -3 -22 -14.5 q-6 -11.5 2 -25.5 q32 -65 64.5 -125 q32.5 -60 65.5 -117 l5 -8 l10 -16 l5 -8 q12 -21 25 -41 q13 -20 27 -40 q11 -16 25.5 -16.5 q14.5 -0.5 26.5 15.5 l10 11 q8 10 8 21.5 q0 11.5 -7 22.5 l0 0 ZM610 376 l167 0 q-8 -178 -20 -273 q-12 -95 -27 -112 q-6 -8 -13 -11.5 q-7 -3.5 -19 -3.5 q-8 0 -24 0.5 q-16 0.5 -33 1.5 q-16 3 -26.5 -7 q-10.5 -10 -10.5 -27 q0 -17 10.5 -27.5 q10.5 -10.5 26.5 -11.5 q29 -2 52.5 -2 q23.5 0 36.5 2 q22 2 39 11 q17 9 30 27 q22 24 36 137 q14 113 24 327 q0 3 -0.5 7 q-0.5 4 -0.5 7 q0 6 -1 9 q0 8 -4.5 12.5 q-4.5 4.5 -12.5 4.5 l-427 0 q50 62 94 142.5 q44 80.5 74 167.5 q5 17 -3 29.5 q-8 12.5 -25 17.5 q-17 4 -31 -4 q-14 -8 -19 -26 q-28 -88 -72 -168 q-44 -80 -102 -135 q-15 -14 -16.5 -30.5 q-1.5 -16.5 11.5 -31.5 q12 -16 27.5 -17.5 q15.5 -1.5 26.5 14.5 q7 9 13.5 18.5 q6.5 9.5 15.5 18.5 l0 -33 q0 -16 9 -25 q9 -9 24 -9 l92 0 q-6 -63 -18.5 -121 q-12.5 -58 -34 -109.5 q-21.5 -51.5 -51.5 -93.5 q-30 -42 -69 -71 q-14 -12 -17.5 -26 q-3.5 -14 6.5 -30 q10 -14 25 -17.5 q15 -3.5 29 7.5 q47 36 81.5 85 q34.5 49 60 108 q25.5 59 41.5 127 q16 68 25 141 l0 0 Z" /><glyph glyph-name="uni4EFF" unicode="&#x4eff;" d="M260 594 q13 23 26.5 49.5 q13.5 26.5 25.5 52.5 l4 10 q9 17 16.5 34 q7.5 17 14.5 34 q7 18 0 31.5 q-7 13.5 -24 18.5 q-18 5 -32.5 -1.5 q-14.5 -6.5 -21.5 -23.5 q-35 -89 -88.5 -176.5 q-53.5 -87.5 -110.5 -155.5 q-15 -15 -15 -33 q0 -18 15 -33 q14 -14 30.5 -14 q16.5 0 28.5 16 q14 17 28 36 q14 19 25 37 l0 -538 q0 -18 11 -28.5 q11 -10.5 28 -10.5 q18 0 28.5 10.5 q10.5 10.5 10.5 28.5 l0 656 l0 0 ZM379 587 l128 0 q0 -12 -0.5 -22 q-0.5 -10 -0.5 -20 l0 -11 l-1 -22 l-1 -7 l0 -6 l0 -9 q-1 -16 -2 -32 q-1 -16 -3 -32 l-1 -11 q-6 -64 -17 -126.5 q-11 -62.5 -30 -118.5 q-19 -56 -47 -105 q-28 -49 -69 -85 q-14 -13 -16.5 -27.5 q-2.5 -14.5 9.5 -29.5 q11 -14 26.5 -16 q15.5 -2 28.5 9 q45 40 77.5 93 q32.5 53 54.5 113 q22 60 35 123.5 q13 63.5 20 125.5 l245 0 q-11 -169 -23 -262.5 q-12 -93.5 -27 -113.5 l-4 -4 q-6 -6 -13.5 -8.5 q-7.5 -2.5 -20.5 -2.5 q-9 0 -32 0.5 q-23 0.5 -49 1.5 q-16 1 -26 -9 q-10 -10 -9 -27 q0 -17 11 -27.5 q11 -10.5 27 -11.5 q36 -1 65 -1.5 q29 -0.5 46 1.5 q22 2 41 10.5 q19 8.5 36 26.5 q21 25 34.5 138 q13.5 113 23.5 328 q0 3 0.5 8 q0.5 5 0.5 10 q0 8 -5 13 q-5 5 -13 5 l-300 0 l0 11 l3 32 l0 5 l0 7 q1 5 1 10.5 q0 5.5 1 10.5 l0 6 l0 8 l1 7 l0 6 l0 7 l1 10 l1 21 l345 0 q17 0 28 10.5 q11 10.5 11 29.5 q0 17 -11 28 q-11 11 -28 11 l-284 0 l35 9 q15 4 22.5 15.5 q7.5 11.5 3.5 28.5 q-6 17 -11 37.5 q-5 20.5 -10 40.5 q-5 17 -20 24.5 q-15 7.5 -32 3.5 q-19 -4 -26 -17 q-7 -13 -2 -31 q8 -29 15 -60 q7 -31 12 -51 l-255 0 q-19 0 -29.5 -11 q-10.5 -11 -10.5 -28 q0 -19 10.5 -29.5 q10.5 -10.5 29.5 -10.5 l0 0 Z" /><glyph glyph-name="uni4F11" unicode="&#x4f11;" d="M282 593 q11 17 21 35.5 q10 18.5 22 38.5 l5 9 q12 23 23.5 45.5 q11.5 22.5 22.5 46.5 q8 17 1.5 31.5 q-6.5 14.5 -25.5 20.5 q-18 5 -33.5 -2.5 q-15.5 -7.5 -23.5 -24.5 q-20 -47 -46.5 -92.5 q-26.5 -45.5 -56.5 -88.5 q-30 -43 -63.5 -82.5 q-33.5 -39.5 -67.5 -71.5 q-14 -15 -15.5 -33 q-1.5 -18 11.5 -35 q14 -16 31 -17 q17 -1 32 14 q21 23 43 48 q22 25 40 49 l0 -546 q0 -18 10.5 -28.5 q10.5 -10.5 29.5 -10.5 q17 0 28 10.5 q11 10.5 11 28.5 l0 655 l0 0 ZM675 451 q17 -51 42.5 -104.5 q25.5 -53.5 55.5 -105 q30 -51.5 62 -97.5 q32 -46 64 -81 q14 -15 31 -14.5 q17 0.5 31 17.5 q13 15 11.5 32 q-1.5 17 -16.5 31 q-33 33 -68.5 77.5 q-35.5 44.5 -68.5 95 q-33 50.5 -61 104 q-28 53.5 -48 103.5 l215 0 q17 0 28 10.5 q11 10.5 11 28.5 q0 17 -11 28 q-11 11 -28 11 l-250 0 l0 200 q0 18 -10.5 28 q-10.5 10 -27.5 10 q-17 0 -28 -10 q-11 -10 -11 -28 l0 -200 l-238 0 q-17 0 -27.5 -11 q-10.5 -11 -10.5 -28 q0 -18 10.5 -28.5 q10.5 -10.5 27.5 -10.5 l201 0 q-20 -52 -47.5 -107 q-27.5 -55 -58.5 -106 q-31 -51 -65.5 -96.5 q-34.5 -45.5 -67.5 -78.5 q-15 -15 -16 -31 q-1 -16 12 -31 q13 -14 29.5 -15.5 q16.5 -1.5 29.5 12.5 q32 34 62.5 77.5 q30.5 43.5 59 92.5 q28.5 49 54 101.5 q25.5 52.5 45.5 101.5 l0 -495 q0 -17 11 -27 q11 -10 28 -10 q17 0 27.5 10 q10.5 10 10.5 27 l0 517 l0 0 Z" /><glyph glyph-name="uni4F18" unicode="&#x4f18;" d="M260 586 q24 44 47.5 92 q23.5 48 43.5 96 q7 17 0.5 30.5 q-6.5 13.5 -23.5 18.5 q-18 5 -31.5 -1.5 q-13.5 -6.5 -21.5 -22.5 q-35 -90 -89 -177.5 q-54 -87.5 -112 -155.5 q-14 -15 -14 -32.5 q0 -17.5 15 -32.5 q13 -14 29.5 -14.5 q16.5 -0.5 28.5 14.5 q13 16 26 34 q13 18 24 35 l0 -535 q0 -17 11 -27 q11 -10 28 -10 q18 0 28 10 q10 10 10 27 l0 651 l0 0 ZM598 528 l325 0 q17 0 27.5 10.5 q10.5 10.5 10.5 27.5 q0 18 -10.5 28 q-10.5 10 -27.5 10 l-317 0 l3 85 l0 10 q1 9 1 16 q0 7 0 15 l0 10 q0 5 0.5 10.5 q0.5 5.5 0.5 10.5 l0 10 l0 28 q0 12 -7.5 19.5 q-7.5 7.5 -19.5 7.5 l-21 0 q-14 0 -23.5 -9 q-9.5 -9 -9.5 -23 l0 -33 l0 -10 q0 -9 -0.5 -18 q-0.5 -9 -0.5 -18 l0 -10 q-1 -27 -1 -52 q0 -25 -2 -49 l-181 0 q-17 0 -27.5 -10 q-10.5 -10 -10.5 -28 q0 -17 10.5 -27.5 q10.5 -10.5 27.5 -10.5 l177 0 q-5 -72 -17 -149 q-12 -77 -35 -148 q-23 -71 -57.5 -133.5 q-34.5 -62.5 -83.5 -107.5 q-15 -13 -17 -28.5 q-2 -15.5 10 -30.5 q11 -14 27 -16.5 q16 -2.5 30 10.5 q56 51 95.5 121.5 q39.5 70.5 64.5 150 q25 79.5 39 164.5 q14 85 20 167 l0 0 ZM874 688 q-20 23 -45 49.5 q-25 26.5 -49 50.5 q-11 12 -25.5 13 q-14.5 1 -26.5 -8 q-13 -10 -14.5 -22.5 q-1.5 -12.5 9.5 -24.5 q8 -8 14.5 -15.5 q6.5 -7.5 15.5 -15.5 l8 -8 q14 -16 28 -31.5 q14 -15.5 25 -29.5 q11 -12 26 -14 q15 -2 29 8 q14 9 15.5 22.5 q1.5 13.5 -10.5 25.5 l0 0 ZM928 150 q-18 2 -27.5 -6.5 q-9.5 -8.5 -10.5 -25.5 q-3 -65 -15 -90.5 q-12 -25.5 -48 -25.5 l-51 0 q-20 0 -32 2 q-12 2 -17.5 6.5 q-5.5 4.5 -7 12.5 q-1.5 8 -1.5 18 l0 376 q0 17 -11.5 28.5 q-11.5 11.5 -28.5 11.5 q-18 0 -29 -11.5 q-11 -11.5 -11 -28.5 l0 -376 q0 -29 6 -50.5 q6 -21.5 21 -35.5 q15 -14 40.5 -21 q25.5 -7 64.5 -7 l60 0 q68 0 96 42.5 q28 42.5 36 138.5 q1 17 -8.5 28 q-9.5 11 -25.5 14 l0 0 Z" /></font>
</defs>
</svg>
